<?xml version="1.0" encoding="utf-8"?>
<!-- Generator: Adobe Illustrator 15.1.0, SVG Export Plug-In . SVG Version: 6.00 Build 0)  -->
<!DOCTYPE svg PUBLIC "-//W3C//DTD SVG 1.1//EN" "http://www.w3.org/Graphics/SVG/1.1/DTD/svg11.dtd">
<svg version="1.1" id="Layer_1" xmlns="http://www.w3.org/2000/svg" xmlns:xlink="http://www.w3.org/1999/xlink" x="0px" y="0px"
	 width="300px" height="300px" viewBox="0 0 300 300" enable-background="new 0 0 300 300" xml:space="preserve">
<polyline fill="none" stroke="#000000" points="243.5,111.5 243.5,183.5 234.5,183.5 234.5,111.5 225.5,111.5 225.5,183.5 
	216.5,183.5 216.5,111.5 207.5,111.5 207.5,183.5 198.5,183.5 198.5,111.5 189.5,111.5 189.5,183.5 180.5,183.5 180.5,111.5 
	171.5,111.5 171.5,183.5 162.5,183.5 162.5,111.5 153.5,111.5 153.5,183.5 144.5,183.5 144.5,111.5 135.5,111.5 135.5,183.5 
	126.5,183.5 126.5,111.5 117.5,111.5 117.5,183.5 108.5,183.5 108.5,111.5 99.5,111.5 99.5,183.5 90.5,183.5 90.5,111.5 81.5,111.5 
	81.5,183.5 72.5,183.5 72.5,111.5 63.5,111.5 63.5,183.5 "/>
</svg>
