G75*
G70*
%OFA0B0*%
%FSLAX24Y24*%
%IPPOS*%
%LPD*%
%AMOC8*
5,1,8,0,0,1.08239X$1,22.5*
%
%ADD10C,0.0000*%
%ADD11C,0.0050*%
%ADD12C,0.0040*%
%ADD13C,0.0080*%
%ADD14C,0.0060*%
%ADD15C,0.0030*%
D10*
X000150Y000994D02*
X000150Y014117D01*
X000307Y014590D02*
X001174Y015745D01*
X001331Y016217D02*
X001331Y035246D01*
X001332Y035246D02*
X001334Y035300D01*
X001339Y035353D01*
X001348Y035406D01*
X001361Y035458D01*
X001377Y035510D01*
X001397Y035560D01*
X001420Y035608D01*
X001447Y035655D01*
X001476Y035700D01*
X001509Y035743D01*
X001544Y035783D01*
X001582Y035821D01*
X001622Y035856D01*
X001665Y035889D01*
X001710Y035918D01*
X001757Y035945D01*
X001805Y035968D01*
X001855Y035988D01*
X001907Y036004D01*
X001959Y036017D01*
X002012Y036026D01*
X002065Y036031D01*
X002119Y036033D01*
X024559Y036033D01*
X024613Y036031D01*
X024666Y036026D01*
X024719Y036017D01*
X024771Y036004D01*
X024823Y035988D01*
X024873Y035968D01*
X024921Y035945D01*
X024968Y035918D01*
X025013Y035889D01*
X025056Y035856D01*
X025096Y035821D01*
X025134Y035783D01*
X025169Y035743D01*
X025202Y035700D01*
X025231Y035655D01*
X025258Y035608D01*
X025281Y035560D01*
X025301Y035510D01*
X025317Y035458D01*
X025330Y035406D01*
X025339Y035353D01*
X025344Y035300D01*
X025346Y035246D01*
X025347Y035246D02*
X025347Y001494D01*
X025348Y001425D01*
X025345Y001356D01*
X025338Y001287D01*
X025328Y001218D01*
X025313Y001150D01*
X025295Y001084D01*
X025273Y001018D01*
X025248Y000954D01*
X025219Y000891D01*
X025186Y000830D01*
X025150Y000770D01*
X025111Y000713D01*
X025068Y000658D01*
X025023Y000606D01*
X024975Y000556D01*
X024924Y000509D01*
X024870Y000465D01*
X024814Y000425D01*
X024756Y000387D01*
X024696Y000352D01*
X024634Y000321D01*
X024571Y000294D01*
X024506Y000270D01*
X024439Y000250D01*
X024372Y000233D01*
X024304Y000221D01*
X024235Y000212D01*
X024166Y000207D01*
X000937Y000207D01*
X000883Y000209D01*
X000830Y000214D01*
X000777Y000223D01*
X000725Y000236D01*
X000673Y000252D01*
X000623Y000272D01*
X000575Y000295D01*
X000528Y000322D01*
X000483Y000351D01*
X000440Y000384D01*
X000400Y000419D01*
X000362Y000457D01*
X000327Y000497D01*
X000294Y000540D01*
X000265Y000585D01*
X000238Y000632D01*
X000215Y000680D01*
X000195Y000730D01*
X000179Y000782D01*
X000166Y000834D01*
X000157Y000887D01*
X000152Y000940D01*
X000150Y000994D01*
X002000Y001466D02*
X002002Y001514D01*
X002008Y001562D01*
X002018Y001609D01*
X002031Y001655D01*
X002049Y001700D01*
X002069Y001744D01*
X002094Y001786D01*
X002122Y001825D01*
X002152Y001862D01*
X002186Y001896D01*
X002223Y001928D01*
X002261Y001957D01*
X002302Y001982D01*
X002345Y002004D01*
X002390Y002022D01*
X002436Y002036D01*
X002483Y002047D01*
X002531Y002054D01*
X002579Y002057D01*
X002627Y002056D01*
X002675Y002051D01*
X002723Y002042D01*
X002769Y002030D01*
X002814Y002013D01*
X002858Y001993D01*
X002900Y001970D01*
X002940Y001943D01*
X002978Y001913D01*
X003013Y001880D01*
X003045Y001844D01*
X003075Y001806D01*
X003101Y001765D01*
X003123Y001722D01*
X003143Y001678D01*
X003158Y001633D01*
X003170Y001586D01*
X003178Y001538D01*
X003182Y001490D01*
X003182Y001442D01*
X003178Y001394D01*
X003170Y001346D01*
X003158Y001299D01*
X003143Y001254D01*
X003123Y001210D01*
X003101Y001167D01*
X003075Y001126D01*
X003045Y001088D01*
X003013Y001052D01*
X002978Y001019D01*
X002940Y000989D01*
X002900Y000962D01*
X002858Y000939D01*
X002814Y000919D01*
X002769Y000902D01*
X002723Y000890D01*
X002675Y000881D01*
X002627Y000876D01*
X002579Y000875D01*
X002531Y000878D01*
X002483Y000885D01*
X002436Y000896D01*
X002390Y000910D01*
X002345Y000928D01*
X002302Y000950D01*
X002261Y000975D01*
X002223Y001004D01*
X002186Y001036D01*
X002152Y001070D01*
X002122Y001107D01*
X002094Y001146D01*
X002069Y001188D01*
X002049Y001232D01*
X002031Y001277D01*
X002018Y001323D01*
X002008Y001370D01*
X002002Y001418D01*
X002000Y001466D01*
X000150Y014117D02*
X000152Y014168D01*
X000157Y014218D01*
X000165Y014268D01*
X000176Y014317D01*
X000190Y014366D01*
X000208Y014413D01*
X000229Y014460D01*
X000252Y014504D01*
X000278Y014548D01*
X000307Y014589D01*
X001174Y015745D02*
X001203Y015786D01*
X001229Y015830D01*
X001252Y015874D01*
X001273Y015921D01*
X001291Y015968D01*
X001305Y016017D01*
X001316Y016066D01*
X001324Y016116D01*
X001329Y016166D01*
X001331Y016217D01*
X005134Y019104D02*
X005134Y031703D01*
X005135Y031702D02*
X005137Y031746D01*
X005142Y031789D01*
X005151Y031832D01*
X005163Y031874D01*
X005179Y031914D01*
X005198Y031954D01*
X005221Y031991D01*
X005246Y032027D01*
X005274Y032060D01*
X005305Y032091D01*
X005338Y032119D01*
X005374Y032145D01*
X005411Y032167D01*
X005450Y032186D01*
X005491Y032202D01*
X005533Y032215D01*
X005575Y032224D01*
X005619Y032229D01*
X005662Y032231D01*
X005662Y032232D02*
X021016Y032232D01*
X021060Y032230D01*
X021103Y032225D01*
X021146Y032216D01*
X021188Y032203D01*
X021228Y032187D01*
X021268Y032168D01*
X021305Y032146D01*
X021341Y032120D01*
X021374Y032092D01*
X021405Y032061D01*
X021433Y032028D01*
X021459Y031992D01*
X021481Y031955D01*
X021500Y031915D01*
X021516Y031875D01*
X021529Y031833D01*
X021538Y031790D01*
X021543Y031747D01*
X021545Y031703D01*
X021545Y019104D01*
X021016Y018317D02*
X005662Y018317D01*
X005613Y018328D01*
X005566Y018343D01*
X005519Y018362D01*
X005474Y018384D01*
X005431Y018410D01*
X005390Y018438D01*
X005351Y018470D01*
X005314Y018504D01*
X005281Y018541D01*
X005250Y018581D01*
X005222Y018622D01*
X005197Y018666D01*
X005176Y018711D01*
X005158Y018758D01*
X005143Y018806D01*
X005133Y018855D01*
X005126Y018904D01*
X005122Y018954D01*
X005123Y019004D01*
X005127Y019054D01*
X005135Y019104D01*
X002000Y021860D02*
X002002Y021908D01*
X002008Y021956D01*
X002018Y022003D01*
X002031Y022049D01*
X002049Y022094D01*
X002069Y022138D01*
X002094Y022180D01*
X002122Y022219D01*
X002152Y022256D01*
X002186Y022290D01*
X002223Y022322D01*
X002261Y022351D01*
X002302Y022376D01*
X002345Y022398D01*
X002390Y022416D01*
X002436Y022430D01*
X002483Y022441D01*
X002531Y022448D01*
X002579Y022451D01*
X002627Y022450D01*
X002675Y022445D01*
X002723Y022436D01*
X002769Y022424D01*
X002814Y022407D01*
X002858Y022387D01*
X002900Y022364D01*
X002940Y022337D01*
X002978Y022307D01*
X003013Y022274D01*
X003045Y022238D01*
X003075Y022200D01*
X003101Y022159D01*
X003123Y022116D01*
X003143Y022072D01*
X003158Y022027D01*
X003170Y021980D01*
X003178Y021932D01*
X003182Y021884D01*
X003182Y021836D01*
X003178Y021788D01*
X003170Y021740D01*
X003158Y021693D01*
X003143Y021648D01*
X003123Y021604D01*
X003101Y021561D01*
X003075Y021520D01*
X003045Y021482D01*
X003013Y021446D01*
X002978Y021413D01*
X002940Y021383D01*
X002900Y021356D01*
X002858Y021333D01*
X002814Y021313D01*
X002769Y021296D01*
X002723Y021284D01*
X002675Y021275D01*
X002627Y021270D01*
X002579Y021269D01*
X002531Y021272D01*
X002483Y021279D01*
X002436Y021290D01*
X002390Y021304D01*
X002345Y021322D01*
X002302Y021344D01*
X002261Y021369D01*
X002223Y021398D01*
X002186Y021430D01*
X002152Y021464D01*
X002122Y021501D01*
X002094Y021540D01*
X002069Y021582D01*
X002049Y021626D01*
X002031Y021671D01*
X002018Y021717D01*
X002008Y021764D01*
X002002Y021812D01*
X002000Y021860D01*
X002000Y034773D02*
X002002Y034821D01*
X002008Y034869D01*
X002018Y034916D01*
X002031Y034962D01*
X002049Y035007D01*
X002069Y035051D01*
X002094Y035093D01*
X002122Y035132D01*
X002152Y035169D01*
X002186Y035203D01*
X002223Y035235D01*
X002261Y035264D01*
X002302Y035289D01*
X002345Y035311D01*
X002390Y035329D01*
X002436Y035343D01*
X002483Y035354D01*
X002531Y035361D01*
X002579Y035364D01*
X002627Y035363D01*
X002675Y035358D01*
X002723Y035349D01*
X002769Y035337D01*
X002814Y035320D01*
X002858Y035300D01*
X002900Y035277D01*
X002940Y035250D01*
X002978Y035220D01*
X003013Y035187D01*
X003045Y035151D01*
X003075Y035113D01*
X003101Y035072D01*
X003123Y035029D01*
X003143Y034985D01*
X003158Y034940D01*
X003170Y034893D01*
X003178Y034845D01*
X003182Y034797D01*
X003182Y034749D01*
X003178Y034701D01*
X003170Y034653D01*
X003158Y034606D01*
X003143Y034561D01*
X003123Y034517D01*
X003101Y034474D01*
X003075Y034433D01*
X003045Y034395D01*
X003013Y034359D01*
X002978Y034326D01*
X002940Y034296D01*
X002900Y034269D01*
X002858Y034246D01*
X002814Y034226D01*
X002769Y034209D01*
X002723Y034197D01*
X002675Y034188D01*
X002627Y034183D01*
X002579Y034182D01*
X002531Y034185D01*
X002483Y034192D01*
X002436Y034203D01*
X002390Y034217D01*
X002345Y034235D01*
X002302Y034257D01*
X002261Y034282D01*
X002223Y034311D01*
X002186Y034343D01*
X002152Y034377D01*
X002122Y034414D01*
X002094Y034453D01*
X002069Y034495D01*
X002049Y034539D01*
X002031Y034584D01*
X002018Y034630D01*
X002008Y034677D01*
X002002Y034725D01*
X002000Y034773D01*
X021545Y019104D02*
X021553Y019055D01*
X021557Y019005D01*
X021558Y018954D01*
X021554Y018904D01*
X021547Y018855D01*
X021536Y018806D01*
X021522Y018758D01*
X021504Y018711D01*
X021482Y018665D01*
X021458Y018622D01*
X021430Y018580D01*
X021399Y018541D01*
X021365Y018504D01*
X021328Y018469D01*
X021289Y018438D01*
X021248Y018409D01*
X021205Y018384D01*
X021159Y018362D01*
X021113Y018343D01*
X021065Y018328D01*
X021016Y018317D01*
X023496Y021860D02*
X023498Y021908D01*
X023504Y021956D01*
X023514Y022003D01*
X023527Y022049D01*
X023545Y022094D01*
X023565Y022138D01*
X023590Y022180D01*
X023618Y022219D01*
X023648Y022256D01*
X023682Y022290D01*
X023719Y022322D01*
X023757Y022351D01*
X023798Y022376D01*
X023841Y022398D01*
X023886Y022416D01*
X023932Y022430D01*
X023979Y022441D01*
X024027Y022448D01*
X024075Y022451D01*
X024123Y022450D01*
X024171Y022445D01*
X024219Y022436D01*
X024265Y022424D01*
X024310Y022407D01*
X024354Y022387D01*
X024396Y022364D01*
X024436Y022337D01*
X024474Y022307D01*
X024509Y022274D01*
X024541Y022238D01*
X024571Y022200D01*
X024597Y022159D01*
X024619Y022116D01*
X024639Y022072D01*
X024654Y022027D01*
X024666Y021980D01*
X024674Y021932D01*
X024678Y021884D01*
X024678Y021836D01*
X024674Y021788D01*
X024666Y021740D01*
X024654Y021693D01*
X024639Y021648D01*
X024619Y021604D01*
X024597Y021561D01*
X024571Y021520D01*
X024541Y021482D01*
X024509Y021446D01*
X024474Y021413D01*
X024436Y021383D01*
X024396Y021356D01*
X024354Y021333D01*
X024310Y021313D01*
X024265Y021296D01*
X024219Y021284D01*
X024171Y021275D01*
X024123Y021270D01*
X024075Y021269D01*
X024027Y021272D01*
X023979Y021279D01*
X023932Y021290D01*
X023886Y021304D01*
X023841Y021322D01*
X023798Y021344D01*
X023757Y021369D01*
X023719Y021398D01*
X023682Y021430D01*
X023648Y021464D01*
X023618Y021501D01*
X023590Y021540D01*
X023565Y021582D01*
X023545Y021626D01*
X023527Y021671D01*
X023514Y021717D01*
X023504Y021764D01*
X023498Y021812D01*
X023496Y021860D01*
X023496Y034773D02*
X023498Y034821D01*
X023504Y034869D01*
X023514Y034916D01*
X023527Y034962D01*
X023545Y035007D01*
X023565Y035051D01*
X023590Y035093D01*
X023618Y035132D01*
X023648Y035169D01*
X023682Y035203D01*
X023719Y035235D01*
X023757Y035264D01*
X023798Y035289D01*
X023841Y035311D01*
X023886Y035329D01*
X023932Y035343D01*
X023979Y035354D01*
X024027Y035361D01*
X024075Y035364D01*
X024123Y035363D01*
X024171Y035358D01*
X024219Y035349D01*
X024265Y035337D01*
X024310Y035320D01*
X024354Y035300D01*
X024396Y035277D01*
X024436Y035250D01*
X024474Y035220D01*
X024509Y035187D01*
X024541Y035151D01*
X024571Y035113D01*
X024597Y035072D01*
X024619Y035029D01*
X024639Y034985D01*
X024654Y034940D01*
X024666Y034893D01*
X024674Y034845D01*
X024678Y034797D01*
X024678Y034749D01*
X024674Y034701D01*
X024666Y034653D01*
X024654Y034606D01*
X024639Y034561D01*
X024619Y034517D01*
X024597Y034474D01*
X024571Y034433D01*
X024541Y034395D01*
X024509Y034359D01*
X024474Y034326D01*
X024436Y034296D01*
X024396Y034269D01*
X024354Y034246D01*
X024310Y034226D01*
X024265Y034209D01*
X024219Y034197D01*
X024171Y034188D01*
X024123Y034183D01*
X024075Y034182D01*
X024027Y034185D01*
X023979Y034192D01*
X023932Y034203D01*
X023886Y034217D01*
X023841Y034235D01*
X023798Y034257D01*
X023757Y034282D01*
X023719Y034311D01*
X023682Y034343D01*
X023648Y034377D01*
X023618Y034414D01*
X023590Y034453D01*
X023565Y034495D01*
X023545Y034539D01*
X023527Y034584D01*
X023514Y034630D01*
X023504Y034677D01*
X023498Y034725D01*
X023496Y034773D01*
X023496Y001466D02*
X023498Y001514D01*
X023504Y001562D01*
X023514Y001609D01*
X023527Y001655D01*
X023545Y001700D01*
X023565Y001744D01*
X023590Y001786D01*
X023618Y001825D01*
X023648Y001862D01*
X023682Y001896D01*
X023719Y001928D01*
X023757Y001957D01*
X023798Y001982D01*
X023841Y002004D01*
X023886Y002022D01*
X023932Y002036D01*
X023979Y002047D01*
X024027Y002054D01*
X024075Y002057D01*
X024123Y002056D01*
X024171Y002051D01*
X024219Y002042D01*
X024265Y002030D01*
X024310Y002013D01*
X024354Y001993D01*
X024396Y001970D01*
X024436Y001943D01*
X024474Y001913D01*
X024509Y001880D01*
X024541Y001844D01*
X024571Y001806D01*
X024597Y001765D01*
X024619Y001722D01*
X024639Y001678D01*
X024654Y001633D01*
X024666Y001586D01*
X024674Y001538D01*
X024678Y001490D01*
X024678Y001442D01*
X024674Y001394D01*
X024666Y001346D01*
X024654Y001299D01*
X024639Y001254D01*
X024619Y001210D01*
X024597Y001167D01*
X024571Y001126D01*
X024541Y001088D01*
X024509Y001052D01*
X024474Y001019D01*
X024436Y000989D01*
X024396Y000962D01*
X024354Y000939D01*
X024310Y000919D01*
X024265Y000902D01*
X024219Y000890D01*
X024171Y000881D01*
X024123Y000876D01*
X024075Y000875D01*
X024027Y000878D01*
X023979Y000885D01*
X023932Y000896D01*
X023886Y000910D01*
X023841Y000928D01*
X023798Y000950D01*
X023757Y000975D01*
X023719Y001004D01*
X023682Y001036D01*
X023648Y001070D01*
X023618Y001107D01*
X023590Y001146D01*
X023565Y001188D01*
X023545Y001232D01*
X023527Y001277D01*
X023514Y001323D01*
X023504Y001370D01*
X023498Y001418D01*
X023496Y001466D01*
D11*
X022040Y002856D02*
X022040Y010856D01*
X025160Y010856D01*
X022591Y012628D02*
X019638Y012628D01*
X019638Y012923D01*
X019638Y015679D02*
X019638Y015974D01*
X022591Y015974D01*
X022280Y014301D02*
X022282Y014336D01*
X022288Y014370D01*
X022297Y014404D01*
X022311Y014436D01*
X022328Y014466D01*
X022348Y014495D01*
X022371Y014521D01*
X022397Y014544D01*
X022426Y014564D01*
X022456Y014581D01*
X022488Y014595D01*
X022522Y014604D01*
X022556Y014610D01*
X022591Y014612D01*
X022626Y014610D01*
X022660Y014604D01*
X022694Y014595D01*
X022726Y014581D01*
X022756Y014564D01*
X022785Y014544D01*
X022811Y014521D01*
X022834Y014495D01*
X022854Y014466D01*
X022871Y014436D01*
X022885Y014404D01*
X022894Y014370D01*
X022900Y014336D01*
X022902Y014301D01*
X022900Y014266D01*
X022894Y014232D01*
X022885Y014198D01*
X022871Y014166D01*
X022854Y014136D01*
X022834Y014107D01*
X022811Y014081D01*
X022785Y014058D01*
X022756Y014038D01*
X022726Y014021D01*
X022694Y014007D01*
X022660Y013998D01*
X022626Y013992D01*
X022591Y013990D01*
X022556Y013992D01*
X022522Y013998D01*
X022488Y014007D01*
X022456Y014021D01*
X022426Y014038D01*
X022397Y014058D01*
X022371Y014081D01*
X022348Y014107D01*
X022328Y014136D01*
X022311Y014166D01*
X022297Y014198D01*
X022288Y014232D01*
X022282Y014266D01*
X022280Y014301D01*
X022591Y012628D02*
X022672Y012630D01*
X022752Y012636D01*
X022833Y012646D01*
X022912Y012659D01*
X022991Y012677D01*
X023069Y012698D01*
X023146Y012723D01*
X023222Y012752D01*
X023296Y012784D01*
X023368Y012820D01*
X023439Y012859D01*
X023508Y012902D01*
X023574Y012948D01*
X023639Y012997D01*
X023700Y013049D01*
X023760Y013104D01*
X023816Y013162D01*
X023870Y013222D01*
X023920Y013285D01*
X023968Y013351D01*
X024012Y013418D01*
X024053Y013488D01*
X024091Y013560D01*
X024125Y013633D01*
X024155Y013708D01*
X024182Y013784D01*
X024205Y013861D01*
X024225Y013940D01*
X024240Y014019D01*
X024252Y014099D01*
X024260Y014180D01*
X024264Y014261D01*
X024264Y014341D01*
X024260Y014422D01*
X024252Y014503D01*
X024240Y014583D01*
X024225Y014662D01*
X024205Y014741D01*
X024182Y014818D01*
X024155Y014894D01*
X024125Y014969D01*
X024091Y015042D01*
X024053Y015114D01*
X024012Y015184D01*
X023968Y015251D01*
X023920Y015317D01*
X023870Y015380D01*
X023816Y015440D01*
X023760Y015498D01*
X023700Y015553D01*
X023639Y015605D01*
X023574Y015654D01*
X023508Y015700D01*
X023439Y015743D01*
X023368Y015782D01*
X023296Y015818D01*
X023222Y015850D01*
X023146Y015879D01*
X023069Y015904D01*
X022991Y015925D01*
X022912Y015943D01*
X022833Y015956D01*
X022752Y015966D01*
X022672Y015972D01*
X022591Y015974D01*
X023815Y018502D02*
X023815Y019683D01*
X024603Y020470D02*
X025193Y020470D01*
X025193Y017714D01*
X024603Y017714D01*
X015150Y013592D02*
X015150Y000600D01*
X008142Y000600D01*
X008142Y013592D01*
X015150Y013592D01*
X022040Y002856D02*
X025160Y002856D01*
X018768Y001285D02*
X018768Y000695D01*
X016012Y000695D01*
X016012Y001285D01*
X016800Y002073D02*
X017981Y002073D01*
X006941Y003218D02*
X006941Y000325D01*
X006941Y003218D02*
X004638Y003218D01*
X004619Y003218D02*
X004619Y000325D01*
X002330Y004221D02*
X001880Y004522D01*
X001880Y004221D02*
X002330Y004522D01*
X001955Y007611D02*
X002105Y007761D01*
X002330Y007761D01*
X002105Y007761D02*
X001955Y007911D01*
X001880Y007911D01*
X001880Y007611D02*
X001955Y007611D01*
X001880Y010961D02*
X001880Y011262D01*
X001955Y011262D01*
X002255Y010961D01*
X002330Y010961D01*
X002330Y011262D01*
X004087Y012411D02*
X004089Y012490D01*
X004095Y012569D01*
X004105Y012648D01*
X004119Y012726D01*
X004136Y012803D01*
X004158Y012879D01*
X004183Y012954D01*
X004213Y013027D01*
X004245Y013099D01*
X004282Y013170D01*
X004322Y013238D01*
X004365Y013304D01*
X004411Y013368D01*
X004461Y013430D01*
X004514Y013489D01*
X004569Y013545D01*
X004628Y013599D01*
X004689Y013649D01*
X004752Y013697D01*
X004818Y013741D01*
X004886Y013782D01*
X004956Y013819D01*
X005027Y013853D01*
X005101Y013883D01*
X005175Y013909D01*
X005251Y013931D01*
X005328Y013950D01*
X005406Y013965D01*
X005484Y013976D01*
X005563Y013983D01*
X005642Y013986D01*
X005721Y013985D01*
X005800Y013980D01*
X005879Y013971D01*
X005957Y013958D01*
X006034Y013941D01*
X006111Y013921D01*
X006186Y013896D01*
X006260Y013868D01*
X006333Y013836D01*
X006403Y013801D01*
X006472Y013762D01*
X006539Y013719D01*
X006604Y013673D01*
X006666Y013625D01*
X006726Y013573D01*
X006783Y013518D01*
X006837Y013460D01*
X006888Y013400D01*
X006936Y013337D01*
X006981Y013272D01*
X007023Y013204D01*
X007061Y013135D01*
X007095Y013064D01*
X007126Y012991D01*
X007154Y012916D01*
X007177Y012841D01*
X007197Y012764D01*
X007213Y012687D01*
X007225Y012608D01*
X007233Y012530D01*
X007237Y012451D01*
X007237Y012371D01*
X007233Y012292D01*
X007225Y012214D01*
X007213Y012135D01*
X007197Y012058D01*
X007177Y011981D01*
X007154Y011906D01*
X007126Y011831D01*
X007095Y011758D01*
X007061Y011687D01*
X007023Y011618D01*
X006981Y011550D01*
X006936Y011485D01*
X006888Y011422D01*
X006837Y011362D01*
X006783Y011304D01*
X006726Y011249D01*
X006666Y011197D01*
X006604Y011149D01*
X006539Y011103D01*
X006472Y011060D01*
X006403Y011021D01*
X006333Y010986D01*
X006260Y010954D01*
X006186Y010926D01*
X006111Y010901D01*
X006034Y010881D01*
X005957Y010864D01*
X005879Y010851D01*
X005800Y010842D01*
X005721Y010837D01*
X005642Y010836D01*
X005563Y010839D01*
X005484Y010846D01*
X005406Y010857D01*
X005328Y010872D01*
X005251Y010891D01*
X005175Y010913D01*
X005101Y010939D01*
X005027Y010969D01*
X004956Y011003D01*
X004886Y011040D01*
X004818Y011081D01*
X004752Y011125D01*
X004689Y011173D01*
X004628Y011223D01*
X004569Y011277D01*
X004514Y011333D01*
X004461Y011392D01*
X004411Y011454D01*
X004365Y011518D01*
X004322Y011584D01*
X004282Y011652D01*
X004245Y011723D01*
X004213Y011795D01*
X004183Y011868D01*
X004158Y011943D01*
X004136Y012019D01*
X004119Y012096D01*
X004105Y012174D01*
X004095Y012253D01*
X004089Y012332D01*
X004087Y012411D01*
X004087Y008868D02*
X004089Y008947D01*
X004095Y009026D01*
X004105Y009105D01*
X004119Y009183D01*
X004136Y009260D01*
X004158Y009336D01*
X004183Y009411D01*
X004213Y009484D01*
X004245Y009556D01*
X004282Y009627D01*
X004322Y009695D01*
X004365Y009761D01*
X004411Y009825D01*
X004461Y009887D01*
X004514Y009946D01*
X004569Y010002D01*
X004628Y010056D01*
X004689Y010106D01*
X004752Y010154D01*
X004818Y010198D01*
X004886Y010239D01*
X004956Y010276D01*
X005027Y010310D01*
X005101Y010340D01*
X005175Y010366D01*
X005251Y010388D01*
X005328Y010407D01*
X005406Y010422D01*
X005484Y010433D01*
X005563Y010440D01*
X005642Y010443D01*
X005721Y010442D01*
X005800Y010437D01*
X005879Y010428D01*
X005957Y010415D01*
X006034Y010398D01*
X006111Y010378D01*
X006186Y010353D01*
X006260Y010325D01*
X006333Y010293D01*
X006403Y010258D01*
X006472Y010219D01*
X006539Y010176D01*
X006604Y010130D01*
X006666Y010082D01*
X006726Y010030D01*
X006783Y009975D01*
X006837Y009917D01*
X006888Y009857D01*
X006936Y009794D01*
X006981Y009729D01*
X007023Y009661D01*
X007061Y009592D01*
X007095Y009521D01*
X007126Y009448D01*
X007154Y009373D01*
X007177Y009298D01*
X007197Y009221D01*
X007213Y009144D01*
X007225Y009065D01*
X007233Y008987D01*
X007237Y008908D01*
X007237Y008828D01*
X007233Y008749D01*
X007225Y008671D01*
X007213Y008592D01*
X007197Y008515D01*
X007177Y008438D01*
X007154Y008363D01*
X007126Y008288D01*
X007095Y008215D01*
X007061Y008144D01*
X007023Y008075D01*
X006981Y008007D01*
X006936Y007942D01*
X006888Y007879D01*
X006837Y007819D01*
X006783Y007761D01*
X006726Y007706D01*
X006666Y007654D01*
X006604Y007606D01*
X006539Y007560D01*
X006472Y007517D01*
X006403Y007478D01*
X006333Y007443D01*
X006260Y007411D01*
X006186Y007383D01*
X006111Y007358D01*
X006034Y007338D01*
X005957Y007321D01*
X005879Y007308D01*
X005800Y007299D01*
X005721Y007294D01*
X005642Y007293D01*
X005563Y007296D01*
X005484Y007303D01*
X005406Y007314D01*
X005328Y007329D01*
X005251Y007348D01*
X005175Y007370D01*
X005101Y007396D01*
X005027Y007426D01*
X004956Y007460D01*
X004886Y007497D01*
X004818Y007538D01*
X004752Y007582D01*
X004689Y007630D01*
X004628Y007680D01*
X004569Y007734D01*
X004514Y007790D01*
X004461Y007849D01*
X004411Y007911D01*
X004365Y007975D01*
X004322Y008041D01*
X004282Y008109D01*
X004245Y008180D01*
X004213Y008252D01*
X004183Y008325D01*
X004158Y008400D01*
X004136Y008476D01*
X004119Y008553D01*
X004105Y008631D01*
X004095Y008710D01*
X004089Y008789D01*
X004087Y008868D01*
X004087Y005325D02*
X004089Y005404D01*
X004095Y005483D01*
X004105Y005562D01*
X004119Y005640D01*
X004136Y005717D01*
X004158Y005793D01*
X004183Y005868D01*
X004213Y005941D01*
X004245Y006013D01*
X004282Y006084D01*
X004322Y006152D01*
X004365Y006218D01*
X004411Y006282D01*
X004461Y006344D01*
X004514Y006403D01*
X004569Y006459D01*
X004628Y006513D01*
X004689Y006563D01*
X004752Y006611D01*
X004818Y006655D01*
X004886Y006696D01*
X004956Y006733D01*
X005027Y006767D01*
X005101Y006797D01*
X005175Y006823D01*
X005251Y006845D01*
X005328Y006864D01*
X005406Y006879D01*
X005484Y006890D01*
X005563Y006897D01*
X005642Y006900D01*
X005721Y006899D01*
X005800Y006894D01*
X005879Y006885D01*
X005957Y006872D01*
X006034Y006855D01*
X006111Y006835D01*
X006186Y006810D01*
X006260Y006782D01*
X006333Y006750D01*
X006403Y006715D01*
X006472Y006676D01*
X006539Y006633D01*
X006604Y006587D01*
X006666Y006539D01*
X006726Y006487D01*
X006783Y006432D01*
X006837Y006374D01*
X006888Y006314D01*
X006936Y006251D01*
X006981Y006186D01*
X007023Y006118D01*
X007061Y006049D01*
X007095Y005978D01*
X007126Y005905D01*
X007154Y005830D01*
X007177Y005755D01*
X007197Y005678D01*
X007213Y005601D01*
X007225Y005522D01*
X007233Y005444D01*
X007237Y005365D01*
X007237Y005285D01*
X007233Y005206D01*
X007225Y005128D01*
X007213Y005049D01*
X007197Y004972D01*
X007177Y004895D01*
X007154Y004820D01*
X007126Y004745D01*
X007095Y004672D01*
X007061Y004601D01*
X007023Y004532D01*
X006981Y004464D01*
X006936Y004399D01*
X006888Y004336D01*
X006837Y004276D01*
X006783Y004218D01*
X006726Y004163D01*
X006666Y004111D01*
X006604Y004063D01*
X006539Y004017D01*
X006472Y003974D01*
X006403Y003935D01*
X006333Y003900D01*
X006260Y003868D01*
X006186Y003840D01*
X006111Y003815D01*
X006034Y003795D01*
X005957Y003778D01*
X005879Y003765D01*
X005800Y003756D01*
X005721Y003751D01*
X005642Y003750D01*
X005563Y003753D01*
X005484Y003760D01*
X005406Y003771D01*
X005328Y003786D01*
X005251Y003805D01*
X005175Y003827D01*
X005101Y003853D01*
X005027Y003883D01*
X004956Y003917D01*
X004886Y003954D01*
X004818Y003995D01*
X004752Y004039D01*
X004689Y004087D01*
X004628Y004137D01*
X004569Y004191D01*
X004514Y004247D01*
X004461Y004306D01*
X004411Y004368D01*
X004365Y004432D01*
X004322Y004498D01*
X004282Y004566D01*
X004245Y004637D01*
X004213Y004709D01*
X004183Y004782D01*
X004158Y004857D01*
X004136Y004933D01*
X004119Y005010D01*
X004105Y005088D01*
X004095Y005167D01*
X004089Y005246D01*
X004087Y005325D01*
D12*
X004375Y005252D02*
X004682Y005252D01*
X004528Y005405D02*
X004528Y005099D01*
X004528Y008642D02*
X004528Y008949D01*
X004375Y008795D02*
X004682Y008795D01*
X004528Y012185D02*
X004528Y012492D01*
X004375Y012339D02*
X004682Y012339D01*
X008706Y013695D02*
X008706Y014002D01*
X008859Y014155D01*
X009013Y014002D01*
X009013Y013695D01*
X009166Y013695D02*
X009473Y013695D01*
X009320Y013695D02*
X009320Y014155D01*
X009166Y014002D01*
X009013Y013925D02*
X008706Y013925D01*
X013170Y011172D02*
X013246Y011248D01*
X013553Y011248D01*
X013630Y011172D01*
X013630Y011018D01*
X013553Y010941D01*
X013246Y010941D01*
X013170Y011018D01*
X013170Y011172D01*
X013246Y010788D02*
X013170Y010711D01*
X013170Y010481D01*
X013630Y010481D01*
X013477Y010481D02*
X013477Y010711D01*
X013400Y010788D01*
X013246Y010788D01*
X013477Y010634D02*
X013630Y010788D01*
X013553Y010327D02*
X013630Y010251D01*
X013630Y010097D01*
X013553Y010021D01*
X013246Y010021D01*
X013170Y010097D01*
X013170Y010251D01*
X013246Y010327D01*
X013170Y009867D02*
X013170Y009714D01*
X013170Y009790D02*
X013630Y009790D01*
X013630Y009714D02*
X013630Y009867D01*
X013630Y009560D02*
X013170Y009560D01*
X013323Y009407D01*
X013170Y009253D01*
X013630Y009253D01*
X013707Y009100D02*
X013707Y008793D01*
X013553Y008639D02*
X013246Y008639D01*
X013170Y008563D01*
X013170Y008409D01*
X013246Y008332D01*
X013553Y008332D01*
X013630Y008409D01*
X013630Y008563D01*
X013553Y008639D01*
X013630Y008179D02*
X013477Y008026D01*
X013477Y008102D02*
X013477Y007872D01*
X013630Y007872D02*
X013170Y007872D01*
X013170Y008102D01*
X013246Y008179D01*
X013400Y008179D01*
X013477Y008102D01*
X013400Y007719D02*
X013477Y007642D01*
X013477Y007412D01*
X013630Y007412D02*
X013170Y007412D01*
X013170Y007642D01*
X013246Y007719D01*
X013400Y007719D01*
X013707Y007258D02*
X013707Y006951D01*
X013553Y006798D02*
X013246Y006798D01*
X013170Y006721D01*
X013170Y006568D01*
X013246Y006491D01*
X013553Y006491D01*
X013630Y006568D01*
X013630Y006721D01*
X013553Y006798D01*
X013630Y006337D02*
X013170Y006337D01*
X013170Y006030D02*
X013630Y006337D01*
X013630Y006030D02*
X013170Y006030D01*
X013170Y005877D02*
X013170Y005724D01*
X013170Y005800D02*
X013630Y005800D01*
X013630Y005724D02*
X013630Y005877D01*
X013553Y005570D02*
X013170Y005570D01*
X013170Y005263D02*
X013553Y005263D01*
X013630Y005340D01*
X013630Y005493D01*
X013553Y005570D01*
X013553Y005110D02*
X013246Y005110D01*
X013170Y005033D01*
X013170Y004803D01*
X013630Y004803D01*
X013630Y005033D01*
X013553Y005110D01*
X013630Y004649D02*
X013477Y004496D01*
X013477Y004573D02*
X013477Y004342D01*
X013630Y004342D02*
X013170Y004342D01*
X013170Y004573D01*
X013246Y004649D01*
X013400Y004649D01*
X013477Y004573D01*
X013400Y004189D02*
X013400Y003882D01*
X013323Y003882D02*
X013170Y004035D01*
X013323Y004189D01*
X013630Y004189D01*
X013630Y003882D02*
X013323Y003882D01*
X016971Y003067D02*
X016971Y002990D01*
X017048Y002913D01*
X017201Y002913D01*
X017278Y002837D01*
X017278Y002760D01*
X017201Y002683D01*
X017048Y002683D01*
X016971Y002760D01*
X016971Y003067D02*
X017048Y003144D01*
X017201Y003144D01*
X017278Y003067D01*
X017432Y003067D02*
X017508Y003144D01*
X017662Y003144D01*
X017739Y003067D01*
X017739Y002990D01*
X017432Y002683D01*
X017739Y002683D01*
X022009Y002512D02*
X022009Y002051D01*
X022009Y002282D02*
X022316Y002282D01*
X022469Y002358D02*
X022623Y002512D01*
X022623Y002051D01*
X022776Y002051D02*
X022469Y002051D01*
X022316Y002051D02*
X022316Y002512D01*
X020303Y016896D02*
X019997Y016896D01*
X020150Y016896D02*
X020150Y017356D01*
X019997Y017203D01*
X019843Y017280D02*
X019843Y017126D01*
X019766Y017049D01*
X019536Y017049D01*
X019536Y016896D02*
X019536Y017356D01*
X019766Y017356D01*
X019843Y017280D01*
X022005Y019150D02*
X022082Y019073D01*
X022235Y019073D01*
X022312Y019150D01*
X022312Y019226D01*
X022235Y019303D01*
X022082Y019303D01*
X022005Y019380D01*
X022005Y019457D01*
X022082Y019533D01*
X022235Y019533D01*
X022312Y019457D01*
X022466Y019380D02*
X022619Y019533D01*
X022619Y019073D01*
X022466Y019073D02*
X022772Y019073D01*
D13*
X001213Y012535D02*
X001213Y012035D01*
X000963Y011785D01*
X001213Y011535D01*
X001213Y011035D01*
X000963Y010785D01*
X001213Y010535D01*
X001213Y010035D01*
X000963Y009785D01*
X000463Y009785D01*
X000213Y010035D01*
X000213Y010535D01*
X000463Y010785D01*
X000213Y011035D01*
X000213Y011535D01*
X000463Y011785D01*
X000213Y012035D01*
X000213Y012535D01*
X000463Y012785D01*
X000963Y012785D01*
X001213Y012535D01*
X000963Y009435D02*
X000463Y009435D01*
X000213Y009185D01*
X000213Y008685D01*
X000463Y008435D01*
X000213Y008185D01*
X000213Y007685D01*
X000463Y007435D01*
X000213Y007185D01*
X000213Y006685D01*
X000463Y006435D01*
X000963Y006435D01*
X001213Y006685D01*
X001213Y007185D01*
X000963Y007435D01*
X001213Y007685D01*
X001213Y008185D01*
X000963Y008435D01*
X001213Y008685D01*
X001213Y009185D01*
X000963Y009435D01*
X000963Y006045D02*
X000463Y006045D01*
X000213Y005795D01*
X000213Y005295D01*
X000463Y005045D01*
X000213Y004795D01*
X000213Y004295D01*
X000463Y004045D01*
X000213Y003795D01*
X000213Y003295D01*
X000463Y003045D01*
X000963Y003045D01*
X001213Y003295D01*
X001213Y003795D01*
X000963Y004045D01*
X001213Y004295D01*
X001213Y004795D01*
X000963Y005045D01*
X001213Y005295D01*
X001213Y005795D01*
X000963Y006045D01*
D14*
X004158Y000897D02*
X004158Y000470D01*
X003945Y000684D02*
X004372Y000684D01*
X007193Y000684D02*
X007620Y000684D01*
D15*
X006728Y000857D02*
X006728Y001104D01*
X006728Y000857D02*
X006604Y000733D01*
X006481Y000857D01*
X006481Y001104D01*
X006359Y001104D02*
X006236Y001042D01*
X006112Y000919D01*
X006298Y000919D01*
X006359Y000857D01*
X006359Y000795D01*
X006298Y000733D01*
X006174Y000733D01*
X006112Y000795D01*
X006112Y000919D01*
X005991Y000919D02*
X005744Y000919D01*
X005623Y000857D02*
X005623Y001104D01*
X005376Y001104D02*
X005376Y000857D01*
X005499Y000733D01*
X005623Y000857D01*
X005254Y000919D02*
X005254Y000795D01*
X005193Y000733D01*
X005069Y000733D01*
X005008Y000795D01*
X005008Y000919D02*
X005131Y000980D01*
X005193Y000980D01*
X005254Y000919D01*
X005254Y001104D02*
X005008Y001104D01*
X005008Y000919D01*
X004956Y001411D02*
X005158Y001411D01*
X005225Y001478D01*
X005225Y001747D01*
X005158Y001814D01*
X004956Y001814D01*
X004956Y001411D01*
X005355Y001478D02*
X005422Y001411D01*
X005557Y001411D01*
X005624Y001478D01*
X005754Y001343D02*
X006023Y001343D01*
X006153Y001411D02*
X006287Y001411D01*
X006220Y001411D02*
X006220Y001814D01*
X006153Y001814D02*
X006287Y001814D01*
X006418Y001814D02*
X006687Y001411D01*
X006687Y001814D01*
X006418Y001814D02*
X006418Y001411D01*
X005624Y001747D02*
X005557Y001814D01*
X005422Y001814D01*
X005355Y001747D01*
X005355Y001478D01*
X004017Y006121D02*
X003894Y006121D01*
X003832Y006182D01*
X003711Y006182D02*
X003649Y006121D01*
X003526Y006121D01*
X003464Y006182D01*
X003464Y006429D01*
X003526Y006491D01*
X003649Y006491D01*
X003711Y006429D01*
X003832Y006429D02*
X003894Y006491D01*
X004017Y006491D01*
X004079Y006429D01*
X004079Y006368D01*
X004017Y006306D01*
X004079Y006244D01*
X004079Y006182D01*
X004017Y006121D01*
X004017Y006306D02*
X003956Y006306D01*
X004079Y010058D02*
X003832Y010058D01*
X004079Y010305D01*
X004079Y010366D01*
X004017Y010428D01*
X003894Y010428D01*
X003832Y010366D01*
X003711Y010366D02*
X003649Y010428D01*
X003526Y010428D01*
X003464Y010366D01*
X003464Y010120D01*
X003526Y010058D01*
X003649Y010058D01*
X003711Y010120D01*
X005026Y014101D02*
X005149Y014101D01*
X005211Y014163D01*
X005332Y014101D02*
X005579Y014101D01*
X005456Y014101D02*
X005456Y014471D01*
X005332Y014348D01*
X005211Y014410D02*
X005149Y014471D01*
X005026Y014471D01*
X004964Y014410D01*
X004964Y014163D01*
X005026Y014101D01*
M02*
