%
M48
M72
T01C0.0236
T02C0.0240
T03C0.0276
T04C0.0394
T05C0.0400
T06C0.0402
T07C0.0512
T08C0.1181
%
T01
X6154Y8868
X5170Y8868
X6154Y5325
X5170Y5325
X6154Y12411
X5170Y12411
T02
X6831Y17207
X10331Y15207
X3831Y11707
X6331Y14207
X1831Y5207
X9831Y3707
X8331Y13707
X10831Y7207
X12831Y12207
X10831Y1707
X15331Y1707
X11831Y6707
X8831Y1207
T03
X6174Y2687
X5386Y2687
T04
X24209Y20077
X24209Y18108
X18374Y1679
X16406Y1679
X19678Y15285
X19678Y14301
X19678Y13317
X23575Y14301
T05
X14650Y2100
X14650Y3100
X14650Y4100
X14650Y5100
X14650Y6100
X14650Y7100
X14650Y8100
X14650Y9100
X14650Y10100
X14650Y11100
X14650Y12100
X14650Y13100
X8650Y13100
X8650Y12100
X8650Y11100
X8650Y10100
X8650Y9100
X8650Y8100
X8650Y7100
X8650Y6100
X8650Y5100
X8650Y4100
X8650Y3100
X8650Y2100
X713Y10285
X713Y11285
X713Y12285
X713Y6935
X713Y7935
X713Y8935
X713Y3545
X713Y4545
X713Y5545
T06
X20410Y3356
X21410Y3356
X20410Y4356
X21410Y4356
X20410Y5356
X21410Y5356
X20410Y6356
X21410Y6356
X20410Y7356
X21410Y7356
X20410Y8356
X21410Y8356
X20410Y9356
X21410Y9356
X20410Y10356
X21410Y10356
T07
X23225Y17714
X23225Y20470
X16012Y2663
X18768Y2663
T08
X2591Y34773
X2591Y21860
X2591Y1466
X24087Y1466
X24087Y21860
X24087Y34773
M30
