G75*
G70*
%OFA0B0*%
%FSLAX24Y24*%
%IPPOS*%
%LPD*%
%AMOC8*
5,1,8,0,0,1.08239X$1,22.5*
%
%ADD10C,0.0000*%
%ADD11C,0.1221*%
%ADD12C,0.0780*%
%ADD13C,0.0808*%
%ADD14C,0.0634*%
%ADD15C,0.0610*%
%ADD16C,0.0642*%
%ADD17C,0.0476*%
D10*
X000150Y000994D02*
X000150Y014117D01*
X000307Y014590D02*
X001174Y015745D01*
X001331Y016217D02*
X001331Y035246D01*
X001332Y035246D02*
X001334Y035300D01*
X001339Y035353D01*
X001348Y035406D01*
X001361Y035458D01*
X001377Y035510D01*
X001397Y035560D01*
X001420Y035608D01*
X001447Y035655D01*
X001476Y035700D01*
X001509Y035743D01*
X001544Y035783D01*
X001582Y035821D01*
X001622Y035856D01*
X001665Y035889D01*
X001710Y035918D01*
X001757Y035945D01*
X001805Y035968D01*
X001855Y035988D01*
X001907Y036004D01*
X001959Y036017D01*
X002012Y036026D01*
X002065Y036031D01*
X002119Y036033D01*
X024559Y036033D01*
X024613Y036031D01*
X024666Y036026D01*
X024719Y036017D01*
X024771Y036004D01*
X024823Y035988D01*
X024873Y035968D01*
X024921Y035945D01*
X024968Y035918D01*
X025013Y035889D01*
X025056Y035856D01*
X025096Y035821D01*
X025134Y035783D01*
X025169Y035743D01*
X025202Y035700D01*
X025231Y035655D01*
X025258Y035608D01*
X025281Y035560D01*
X025301Y035510D01*
X025317Y035458D01*
X025330Y035406D01*
X025339Y035353D01*
X025344Y035300D01*
X025346Y035246D01*
X025347Y035246D02*
X025347Y001494D01*
X025348Y001425D01*
X025345Y001356D01*
X025338Y001287D01*
X025328Y001218D01*
X025313Y001150D01*
X025295Y001084D01*
X025273Y001018D01*
X025248Y000954D01*
X025219Y000891D01*
X025186Y000830D01*
X025150Y000770D01*
X025111Y000713D01*
X025068Y000658D01*
X025023Y000606D01*
X024975Y000556D01*
X024924Y000509D01*
X024870Y000465D01*
X024814Y000425D01*
X024756Y000387D01*
X024696Y000352D01*
X024634Y000321D01*
X024571Y000294D01*
X024506Y000270D01*
X024439Y000250D01*
X024372Y000233D01*
X024304Y000221D01*
X024235Y000212D01*
X024166Y000207D01*
X000937Y000207D01*
X000883Y000209D01*
X000830Y000214D01*
X000777Y000223D01*
X000725Y000236D01*
X000673Y000252D01*
X000623Y000272D01*
X000575Y000295D01*
X000528Y000322D01*
X000483Y000351D01*
X000440Y000384D01*
X000400Y000419D01*
X000362Y000457D01*
X000327Y000497D01*
X000294Y000540D01*
X000265Y000585D01*
X000238Y000632D01*
X000215Y000680D01*
X000195Y000730D01*
X000179Y000782D01*
X000166Y000834D01*
X000157Y000887D01*
X000152Y000940D01*
X000150Y000994D01*
X002000Y001466D02*
X002002Y001514D01*
X002008Y001562D01*
X002018Y001609D01*
X002031Y001655D01*
X002049Y001700D01*
X002069Y001744D01*
X002094Y001786D01*
X002122Y001825D01*
X002152Y001862D01*
X002186Y001896D01*
X002223Y001928D01*
X002261Y001957D01*
X002302Y001982D01*
X002345Y002004D01*
X002390Y002022D01*
X002436Y002036D01*
X002483Y002047D01*
X002531Y002054D01*
X002579Y002057D01*
X002627Y002056D01*
X002675Y002051D01*
X002723Y002042D01*
X002769Y002030D01*
X002814Y002013D01*
X002858Y001993D01*
X002900Y001970D01*
X002940Y001943D01*
X002978Y001913D01*
X003013Y001880D01*
X003045Y001844D01*
X003075Y001806D01*
X003101Y001765D01*
X003123Y001722D01*
X003143Y001678D01*
X003158Y001633D01*
X003170Y001586D01*
X003178Y001538D01*
X003182Y001490D01*
X003182Y001442D01*
X003178Y001394D01*
X003170Y001346D01*
X003158Y001299D01*
X003143Y001254D01*
X003123Y001210D01*
X003101Y001167D01*
X003075Y001126D01*
X003045Y001088D01*
X003013Y001052D01*
X002978Y001019D01*
X002940Y000989D01*
X002900Y000962D01*
X002858Y000939D01*
X002814Y000919D01*
X002769Y000902D01*
X002723Y000890D01*
X002675Y000881D01*
X002627Y000876D01*
X002579Y000875D01*
X002531Y000878D01*
X002483Y000885D01*
X002436Y000896D01*
X002390Y000910D01*
X002345Y000928D01*
X002302Y000950D01*
X002261Y000975D01*
X002223Y001004D01*
X002186Y001036D01*
X002152Y001070D01*
X002122Y001107D01*
X002094Y001146D01*
X002069Y001188D01*
X002049Y001232D01*
X002031Y001277D01*
X002018Y001323D01*
X002008Y001370D01*
X002002Y001418D01*
X002000Y001466D01*
X000150Y014117D02*
X000152Y014168D01*
X000157Y014218D01*
X000165Y014268D01*
X000176Y014317D01*
X000190Y014366D01*
X000208Y014413D01*
X000229Y014460D01*
X000252Y014504D01*
X000278Y014548D01*
X000307Y014589D01*
X001174Y015745D02*
X001203Y015786D01*
X001229Y015830D01*
X001252Y015874D01*
X001273Y015921D01*
X001291Y015968D01*
X001305Y016017D01*
X001316Y016066D01*
X001324Y016116D01*
X001329Y016166D01*
X001331Y016217D01*
X005134Y019104D02*
X005134Y031703D01*
X005135Y031702D02*
X005137Y031746D01*
X005142Y031789D01*
X005151Y031832D01*
X005163Y031874D01*
X005179Y031914D01*
X005198Y031954D01*
X005221Y031991D01*
X005246Y032027D01*
X005274Y032060D01*
X005305Y032091D01*
X005338Y032119D01*
X005374Y032145D01*
X005411Y032167D01*
X005450Y032186D01*
X005491Y032202D01*
X005533Y032215D01*
X005575Y032224D01*
X005619Y032229D01*
X005662Y032231D01*
X005662Y032232D02*
X021016Y032232D01*
X021060Y032230D01*
X021103Y032225D01*
X021146Y032216D01*
X021188Y032203D01*
X021228Y032187D01*
X021268Y032168D01*
X021305Y032146D01*
X021341Y032120D01*
X021374Y032092D01*
X021405Y032061D01*
X021433Y032028D01*
X021459Y031992D01*
X021481Y031955D01*
X021500Y031915D01*
X021516Y031875D01*
X021529Y031833D01*
X021538Y031790D01*
X021543Y031747D01*
X021545Y031703D01*
X021545Y019104D01*
X021016Y018317D02*
X005662Y018317D01*
X005613Y018328D01*
X005566Y018343D01*
X005519Y018362D01*
X005474Y018384D01*
X005431Y018410D01*
X005390Y018438D01*
X005351Y018470D01*
X005314Y018504D01*
X005281Y018541D01*
X005250Y018581D01*
X005222Y018622D01*
X005197Y018666D01*
X005176Y018711D01*
X005158Y018758D01*
X005143Y018806D01*
X005133Y018855D01*
X005126Y018904D01*
X005122Y018954D01*
X005123Y019004D01*
X005127Y019054D01*
X005135Y019104D01*
X002000Y021860D02*
X002002Y021908D01*
X002008Y021956D01*
X002018Y022003D01*
X002031Y022049D01*
X002049Y022094D01*
X002069Y022138D01*
X002094Y022180D01*
X002122Y022219D01*
X002152Y022256D01*
X002186Y022290D01*
X002223Y022322D01*
X002261Y022351D01*
X002302Y022376D01*
X002345Y022398D01*
X002390Y022416D01*
X002436Y022430D01*
X002483Y022441D01*
X002531Y022448D01*
X002579Y022451D01*
X002627Y022450D01*
X002675Y022445D01*
X002723Y022436D01*
X002769Y022424D01*
X002814Y022407D01*
X002858Y022387D01*
X002900Y022364D01*
X002940Y022337D01*
X002978Y022307D01*
X003013Y022274D01*
X003045Y022238D01*
X003075Y022200D01*
X003101Y022159D01*
X003123Y022116D01*
X003143Y022072D01*
X003158Y022027D01*
X003170Y021980D01*
X003178Y021932D01*
X003182Y021884D01*
X003182Y021836D01*
X003178Y021788D01*
X003170Y021740D01*
X003158Y021693D01*
X003143Y021648D01*
X003123Y021604D01*
X003101Y021561D01*
X003075Y021520D01*
X003045Y021482D01*
X003013Y021446D01*
X002978Y021413D01*
X002940Y021383D01*
X002900Y021356D01*
X002858Y021333D01*
X002814Y021313D01*
X002769Y021296D01*
X002723Y021284D01*
X002675Y021275D01*
X002627Y021270D01*
X002579Y021269D01*
X002531Y021272D01*
X002483Y021279D01*
X002436Y021290D01*
X002390Y021304D01*
X002345Y021322D01*
X002302Y021344D01*
X002261Y021369D01*
X002223Y021398D01*
X002186Y021430D01*
X002152Y021464D01*
X002122Y021501D01*
X002094Y021540D01*
X002069Y021582D01*
X002049Y021626D01*
X002031Y021671D01*
X002018Y021717D01*
X002008Y021764D01*
X002002Y021812D01*
X002000Y021860D01*
X002000Y034773D02*
X002002Y034821D01*
X002008Y034869D01*
X002018Y034916D01*
X002031Y034962D01*
X002049Y035007D01*
X002069Y035051D01*
X002094Y035093D01*
X002122Y035132D01*
X002152Y035169D01*
X002186Y035203D01*
X002223Y035235D01*
X002261Y035264D01*
X002302Y035289D01*
X002345Y035311D01*
X002390Y035329D01*
X002436Y035343D01*
X002483Y035354D01*
X002531Y035361D01*
X002579Y035364D01*
X002627Y035363D01*
X002675Y035358D01*
X002723Y035349D01*
X002769Y035337D01*
X002814Y035320D01*
X002858Y035300D01*
X002900Y035277D01*
X002940Y035250D01*
X002978Y035220D01*
X003013Y035187D01*
X003045Y035151D01*
X003075Y035113D01*
X003101Y035072D01*
X003123Y035029D01*
X003143Y034985D01*
X003158Y034940D01*
X003170Y034893D01*
X003178Y034845D01*
X003182Y034797D01*
X003182Y034749D01*
X003178Y034701D01*
X003170Y034653D01*
X003158Y034606D01*
X003143Y034561D01*
X003123Y034517D01*
X003101Y034474D01*
X003075Y034433D01*
X003045Y034395D01*
X003013Y034359D01*
X002978Y034326D01*
X002940Y034296D01*
X002900Y034269D01*
X002858Y034246D01*
X002814Y034226D01*
X002769Y034209D01*
X002723Y034197D01*
X002675Y034188D01*
X002627Y034183D01*
X002579Y034182D01*
X002531Y034185D01*
X002483Y034192D01*
X002436Y034203D01*
X002390Y034217D01*
X002345Y034235D01*
X002302Y034257D01*
X002261Y034282D01*
X002223Y034311D01*
X002186Y034343D01*
X002152Y034377D01*
X002122Y034414D01*
X002094Y034453D01*
X002069Y034495D01*
X002049Y034539D01*
X002031Y034584D01*
X002018Y034630D01*
X002008Y034677D01*
X002002Y034725D01*
X002000Y034773D01*
X021545Y019104D02*
X021553Y019055D01*
X021557Y019005D01*
X021558Y018954D01*
X021554Y018904D01*
X021547Y018855D01*
X021536Y018806D01*
X021522Y018758D01*
X021504Y018711D01*
X021482Y018665D01*
X021458Y018622D01*
X021430Y018580D01*
X021399Y018541D01*
X021365Y018504D01*
X021328Y018469D01*
X021289Y018438D01*
X021248Y018409D01*
X021205Y018384D01*
X021159Y018362D01*
X021113Y018343D01*
X021065Y018328D01*
X021016Y018317D01*
X023496Y021860D02*
X023498Y021908D01*
X023504Y021956D01*
X023514Y022003D01*
X023527Y022049D01*
X023545Y022094D01*
X023565Y022138D01*
X023590Y022180D01*
X023618Y022219D01*
X023648Y022256D01*
X023682Y022290D01*
X023719Y022322D01*
X023757Y022351D01*
X023798Y022376D01*
X023841Y022398D01*
X023886Y022416D01*
X023932Y022430D01*
X023979Y022441D01*
X024027Y022448D01*
X024075Y022451D01*
X024123Y022450D01*
X024171Y022445D01*
X024219Y022436D01*
X024265Y022424D01*
X024310Y022407D01*
X024354Y022387D01*
X024396Y022364D01*
X024436Y022337D01*
X024474Y022307D01*
X024509Y022274D01*
X024541Y022238D01*
X024571Y022200D01*
X024597Y022159D01*
X024619Y022116D01*
X024639Y022072D01*
X024654Y022027D01*
X024666Y021980D01*
X024674Y021932D01*
X024678Y021884D01*
X024678Y021836D01*
X024674Y021788D01*
X024666Y021740D01*
X024654Y021693D01*
X024639Y021648D01*
X024619Y021604D01*
X024597Y021561D01*
X024571Y021520D01*
X024541Y021482D01*
X024509Y021446D01*
X024474Y021413D01*
X024436Y021383D01*
X024396Y021356D01*
X024354Y021333D01*
X024310Y021313D01*
X024265Y021296D01*
X024219Y021284D01*
X024171Y021275D01*
X024123Y021270D01*
X024075Y021269D01*
X024027Y021272D01*
X023979Y021279D01*
X023932Y021290D01*
X023886Y021304D01*
X023841Y021322D01*
X023798Y021344D01*
X023757Y021369D01*
X023719Y021398D01*
X023682Y021430D01*
X023648Y021464D01*
X023618Y021501D01*
X023590Y021540D01*
X023565Y021582D01*
X023545Y021626D01*
X023527Y021671D01*
X023514Y021717D01*
X023504Y021764D01*
X023498Y021812D01*
X023496Y021860D01*
X023496Y034773D02*
X023498Y034821D01*
X023504Y034869D01*
X023514Y034916D01*
X023527Y034962D01*
X023545Y035007D01*
X023565Y035051D01*
X023590Y035093D01*
X023618Y035132D01*
X023648Y035169D01*
X023682Y035203D01*
X023719Y035235D01*
X023757Y035264D01*
X023798Y035289D01*
X023841Y035311D01*
X023886Y035329D01*
X023932Y035343D01*
X023979Y035354D01*
X024027Y035361D01*
X024075Y035364D01*
X024123Y035363D01*
X024171Y035358D01*
X024219Y035349D01*
X024265Y035337D01*
X024310Y035320D01*
X024354Y035300D01*
X024396Y035277D01*
X024436Y035250D01*
X024474Y035220D01*
X024509Y035187D01*
X024541Y035151D01*
X024571Y035113D01*
X024597Y035072D01*
X024619Y035029D01*
X024639Y034985D01*
X024654Y034940D01*
X024666Y034893D01*
X024674Y034845D01*
X024678Y034797D01*
X024678Y034749D01*
X024674Y034701D01*
X024666Y034653D01*
X024654Y034606D01*
X024639Y034561D01*
X024619Y034517D01*
X024597Y034474D01*
X024571Y034433D01*
X024541Y034395D01*
X024509Y034359D01*
X024474Y034326D01*
X024436Y034296D01*
X024396Y034269D01*
X024354Y034246D01*
X024310Y034226D01*
X024265Y034209D01*
X024219Y034197D01*
X024171Y034188D01*
X024123Y034183D01*
X024075Y034182D01*
X024027Y034185D01*
X023979Y034192D01*
X023932Y034203D01*
X023886Y034217D01*
X023841Y034235D01*
X023798Y034257D01*
X023757Y034282D01*
X023719Y034311D01*
X023682Y034343D01*
X023648Y034377D01*
X023618Y034414D01*
X023590Y034453D01*
X023565Y034495D01*
X023545Y034539D01*
X023527Y034584D01*
X023514Y034630D01*
X023504Y034677D01*
X023498Y034725D01*
X023496Y034773D01*
X023496Y001466D02*
X023498Y001514D01*
X023504Y001562D01*
X023514Y001609D01*
X023527Y001655D01*
X023545Y001700D01*
X023565Y001744D01*
X023590Y001786D01*
X023618Y001825D01*
X023648Y001862D01*
X023682Y001896D01*
X023719Y001928D01*
X023757Y001957D01*
X023798Y001982D01*
X023841Y002004D01*
X023886Y002022D01*
X023932Y002036D01*
X023979Y002047D01*
X024027Y002054D01*
X024075Y002057D01*
X024123Y002056D01*
X024171Y002051D01*
X024219Y002042D01*
X024265Y002030D01*
X024310Y002013D01*
X024354Y001993D01*
X024396Y001970D01*
X024436Y001943D01*
X024474Y001913D01*
X024509Y001880D01*
X024541Y001844D01*
X024571Y001806D01*
X024597Y001765D01*
X024619Y001722D01*
X024639Y001678D01*
X024654Y001633D01*
X024666Y001586D01*
X024674Y001538D01*
X024678Y001490D01*
X024678Y001442D01*
X024674Y001394D01*
X024666Y001346D01*
X024654Y001299D01*
X024639Y001254D01*
X024619Y001210D01*
X024597Y001167D01*
X024571Y001126D01*
X024541Y001088D01*
X024509Y001052D01*
X024474Y001019D01*
X024436Y000989D01*
X024396Y000962D01*
X024354Y000939D01*
X024310Y000919D01*
X024265Y000902D01*
X024219Y000890D01*
X024171Y000881D01*
X024123Y000876D01*
X024075Y000875D01*
X024027Y000878D01*
X023979Y000885D01*
X023932Y000896D01*
X023886Y000910D01*
X023841Y000928D01*
X023798Y000950D01*
X023757Y000975D01*
X023719Y001004D01*
X023682Y001036D01*
X023648Y001070D01*
X023618Y001107D01*
X023590Y001146D01*
X023565Y001188D01*
X023545Y001232D01*
X023527Y001277D01*
X023514Y001323D01*
X023504Y001370D01*
X023498Y001418D01*
X023496Y001466D01*
D11*
X024087Y001466D03*
X024087Y021860D03*
X024087Y034773D03*
X002591Y034773D03*
X002591Y021860D03*
X002591Y001466D03*
D12*
X000713Y003545D03*
X000713Y004545D03*
X000713Y005545D03*
X000713Y006935D03*
X000713Y007935D03*
X000713Y008935D03*
X000713Y010285D03*
X000713Y011285D03*
X000713Y012285D03*
X008650Y012100D03*
X008650Y011100D03*
X008650Y010100D03*
X008650Y009100D03*
X008650Y008100D03*
X008650Y007100D03*
X008650Y006100D03*
X008650Y005100D03*
X008650Y004100D03*
X008650Y003100D03*
X008650Y002100D03*
X014650Y002100D03*
X014650Y003100D03*
X014650Y004100D03*
X014650Y005100D03*
X014650Y006100D03*
X014650Y007100D03*
X014650Y008100D03*
X014650Y009100D03*
X014650Y010100D03*
X014650Y011100D03*
X014650Y012100D03*
X014650Y013100D03*
X008650Y013100D03*
D13*
X016012Y002663D03*
X018768Y002663D03*
X023225Y017714D03*
X023225Y020470D03*
D14*
X024209Y020077D03*
X024209Y018108D03*
X023575Y014301D03*
X019678Y014301D03*
X019678Y013317D03*
X019678Y015285D03*
X018374Y001679D03*
X016406Y001679D03*
D15*
X006174Y002687D03*
X005386Y002687D03*
D16*
X020410Y003356D03*
X020410Y004356D03*
X020410Y005356D03*
X020410Y006356D03*
X020410Y007356D03*
X020410Y008356D03*
X020410Y009356D03*
X020410Y010356D03*
X021410Y010356D03*
X021410Y009356D03*
X021410Y008356D03*
X021410Y007356D03*
X021410Y006356D03*
X021410Y005356D03*
X021410Y004356D03*
X021410Y003356D03*
D17*
X006154Y005325D03*
X005170Y005325D03*
X005170Y008868D03*
X006154Y008868D03*
X006154Y012411D03*
X005170Y012411D03*
M02*
