<?xml version="1.0" encoding="utf-8"?>
<!-- Generator: Adobe Illustrator 15.1.0, SVG Export Plug-In . SVG Version: 6.00 Build 0)  -->
<!DOCTYPE svg PUBLIC "-//W3C//DTD SVG 1.1//EN" "http://www.w3.org/Graphics/SVG/1.1/DTD/svg11.dtd">
<svg version="1.1" id="Layer_1" xmlns="http://www.w3.org/2000/svg" xmlns:xlink="http://www.w3.org/1999/xlink" x="0px" y="0px"
	 width="300px" height="300px" viewBox="0 0 300 300" enable-background="new 0 0 300 300" xml:space="preserve">
<line fill="none" stroke="#000000" stroke-miterlimit="10" x1="0" y1="0.5" x2="300" y2="0.5"/>
<line fill="none" stroke="#000000" stroke-miterlimit="10" x1="0" y1="5.5" x2="300" y2="5.5"/>
<line fill="none" stroke="#000000" stroke-miterlimit="10" x1="0" y1="19.5" x2="300" y2="19.5"/>
<line fill="none" stroke="#000000" stroke-miterlimit="10" x1="0" y1="30.5" x2="300" y2="30.5"/>
<line fill="none" stroke="#000000" stroke-miterlimit="10" x1="0" y1="40.5" x2="300" y2="40.5"/>
<line fill="none" stroke="#000000" stroke-miterlimit="10" x1="0" y1="48.5" x2="300" y2="48.5"/>
<line fill="none" stroke="#000000" stroke-miterlimit="10" x1="0" y1="56.5" x2="300" y2="56.5"/>
<line fill="none" stroke="#000000" stroke-miterlimit="10" x1="0" y1="64.5" x2="300" y2="64.5"/>
<line fill="none" stroke="#000000" stroke-miterlimit="10" x1="0" y1="78.5" x2="300" y2="78.5"/>
<line fill="none" stroke="#000000" stroke-miterlimit="10" x1="0" y1="94.5" x2="300" y2="94.5"/>
<line fill="none" stroke="#000000" stroke-miterlimit="10" x1="0" y1="102.5" x2="300" y2="102.5"/>
<line fill="none" stroke="#000000" stroke-miterlimit="10" x1="0" y1="126.5" x2="300" y2="126.5"/>
<line fill="none" stroke="#000000" stroke-miterlimit="10" x1="0" y1="148.5" x2="300" y2="148.5"/>
<line fill="none" stroke="#000000" stroke-miterlimit="10" x1="0" y1="161.5" x2="300" y2="161.5"/>
<line fill="none" stroke="#000000" stroke-miterlimit="10" x1="0" y1="8.5" x2="300" y2="8.5"/>
<line fill="none" stroke="#000000" stroke-miterlimit="10" x1="0" y1="16.5" x2="300" y2="16.5"/>
<line fill="none" stroke="#000000" stroke-miterlimit="10" x1="0" y1="27.5" x2="300" y2="27.5"/>
<line fill="none" stroke="#000000" stroke-miterlimit="10" x1="0" y1="38.5" x2="300" y2="38.5"/>
<line fill="none" stroke="#000000" stroke-miterlimit="10" x1="0" y1="51.5" x2="300" y2="51.5"/>
<line fill="none" stroke="#000000" stroke-miterlimit="10" x1="0" y1="62.5" x2="300" y2="62.5"/>
<line fill="none" stroke="#000000" stroke-miterlimit="10" x1="0" y1="72.5" x2="300" y2="72.5"/>
<line fill="none" stroke="#000000" stroke-miterlimit="10" x1="0" y1="81.5" x2="300" y2="81.5"/>
<line fill="none" stroke="#000000" stroke-miterlimit="10" x1="0" y1="91.5" x2="300" y2="91.5"/>
<line fill="none" stroke="#000000" stroke-miterlimit="10" x1="0" y1="107.5" x2="300" y2="107.5"/>
<line fill="none" stroke="#000000" stroke-miterlimit="10" x1="0" y1="121.5" x2="300" y2="121.5"/>
<line fill="none" stroke="#000000" stroke-miterlimit="10" x1="0" y1="145.5" x2="300" y2="145.5"/>
<line fill="none" stroke="#000000" stroke-miterlimit="10" x1="0" y1="169.5" x2="300" y2="169.5"/>
<line fill="none" stroke="#000000" stroke-miterlimit="10" x1="0" y1="180.5" x2="300" y2="180.5"/>
<line fill="none" stroke="#000000" stroke-miterlimit="10" x1="0" y1="3.5" x2="300" y2="3.5"/>
<line fill="none" stroke="#000000" stroke-miterlimit="10" x1="0" y1="11.5" x2="300" y2="11.5"/>
<line fill="none" stroke="#000000" stroke-miterlimit="10" x1="0" y1="24.5" x2="300" y2="24.5"/>
<line fill="none" stroke="#000000" stroke-miterlimit="10" x1="0" y1="35.5" x2="300" y2="35.5"/>
<line fill="none" stroke="#000000" stroke-miterlimit="10" x1="0" y1="46.5" x2="300" y2="46.5"/>
<line fill="none" stroke="#000000" stroke-miterlimit="10" x1="0" y1="54.5" x2="300" y2="54.5"/>
<line fill="none" stroke="#000000" stroke-miterlimit="10" x1="0" y1="67.5" x2="300" y2="67.5"/>
<line fill="none" stroke="#000000" stroke-miterlimit="10" x1="0" y1="75.5" x2="300" y2="75.5"/>
<line fill="none" stroke="#000000" stroke-miterlimit="10" x1="0" y1="86.5" x2="300" y2="86.5"/>
<line fill="none" stroke="#000000" stroke-miterlimit="10" x1="0" y1="99.5" x2="300" y2="99.5"/>
<line fill="none" stroke="#000000" stroke-miterlimit="10" x1="0" y1="110.5" x2="300" y2="110.5"/>
<line fill="none" stroke="#000000" stroke-miterlimit="10" x1="0" y1="137.5" x2="300" y2="137.5"/>
<line fill="none" stroke="#000000" stroke-miterlimit="10" x1="0" y1="164.5" x2="300" y2="164.5"/>
<line fill="none" stroke="#000000" stroke-miterlimit="10" x1="0" y1="175.5" x2="300" y2="175.5"/>
<line fill="none" stroke="#000000" stroke-miterlimit="10" x1="0" y1="13.5" x2="300" y2="13.5"/>
<line fill="none" stroke="#000000" stroke-miterlimit="10" x1="0" y1="21.5" x2="300" y2="21.5"/>
<line fill="none" stroke="#000000" stroke-miterlimit="10" x1="0" y1="32.5" x2="300" y2="32.5"/>
<line fill="none" stroke="#000000" stroke-miterlimit="10" x1="0" y1="43.5" x2="300" y2="43.5"/>
<line fill="none" stroke="#000000" stroke-miterlimit="10" x1="0" y1="59.5" x2="300" y2="59.5"/>
<line fill="none" stroke="#000000" stroke-miterlimit="10" x1="0" y1="70.5" x2="300" y2="70.5"/>
<line fill="none" stroke="#000000" stroke-miterlimit="10" x1="0" y1="83.5" x2="300" y2="83.5"/>
<line fill="none" stroke="#000000" stroke-miterlimit="10" x1="0" y1="89.5" x2="300" y2="89.5"/>
<line fill="none" stroke="#000000" stroke-miterlimit="10" x1="0" y1="97.5" x2="300" y2="97.5"/>
<line fill="none" stroke="#000000" stroke-miterlimit="10" x1="0" y1="115.5" x2="300" y2="115.5"/>
<line fill="none" stroke="#000000" stroke-miterlimit="10" x1="0" y1="132.5" x2="300" y2="132.5"/>
<line fill="none" stroke="#000000" stroke-miterlimit="10" x1="0" y1="156.5" x2="300" y2="156.5"/>
<line fill="none" stroke="#000000" stroke-miterlimit="10" x1="0" y1="183.5" x2="300" y2="183.5"/>
<line fill="none" stroke="#000000" stroke-miterlimit="10" x1="0" y1="191.5" x2="300" y2="191.5"/>
<line fill="none" stroke="#000000" stroke-miterlimit="10" x1="0" y1="105.5" x2="300" y2="105.5"/>
<line fill="none" stroke="#000000" stroke-miterlimit="10" x1="0" y1="118.5" x2="300" y2="118.5"/>
<line fill="none" stroke="#000000" stroke-miterlimit="10" x1="0" y1="142.5" x2="300" y2="142.5"/>
<line fill="none" stroke="#000000" stroke-miterlimit="10" x1="0" y1="166.5" x2="300" y2="166.5"/>
<line fill="none" stroke="#000000" stroke-miterlimit="10" x1="0" y1="188.5" x2="300" y2="188.5"/>
<line fill="none" stroke="#000000" stroke-miterlimit="10" x1="0" y1="199.5" x2="300" y2="199.5"/>
<line fill="none" stroke="#000000" stroke-miterlimit="10" x1="0" y1="207.5" x2="300" y2="207.5"/>
<line fill="none" stroke="#000000" stroke-miterlimit="10" x1="0" y1="215.5" x2="300" y2="215.5"/>
<line fill="none" stroke="#000000" stroke-miterlimit="10" x1="0" y1="228.5" x2="300" y2="228.5"/>
<line fill="none" stroke="#000000" stroke-miterlimit="10" x1="0" y1="244.5" x2="300" y2="244.5"/>
<line fill="none" stroke="#000000" stroke-miterlimit="10" x1="0" y1="252.5" x2="300" y2="252.5"/>
<line fill="none" stroke="#000000" stroke-miterlimit="10" x1="0" y1="266.5" x2="300" y2="266.5"/>
<line fill="none" stroke="#000000" stroke-miterlimit="10" x1="0" y1="277.5" x2="300" y2="277.5"/>
<line fill="none" stroke="#000000" stroke-miterlimit="10" x1="0" y1="282.5" x2="300" y2="282.5"/>
<line fill="none" stroke="#000000" stroke-miterlimit="10" x1="0" y1="123.5" x2="300" y2="123.5"/>
<line fill="none" stroke="#000000" stroke-miterlimit="10" x1="0" y1="140.5" x2="300" y2="140.5"/>
<line fill="none" stroke="#000000" stroke-miterlimit="10" x1="0" y1="158.5" x2="300" y2="158.5"/>
<line fill="none" stroke="#000000" stroke-miterlimit="10" x1="0" y1="185.5" x2="300" y2="185.5"/>
<line fill="none" stroke="#000000" stroke-miterlimit="10" x1="0" y1="201.5" x2="300" y2="201.5"/>
<line fill="none" stroke="#000000" stroke-miterlimit="10" x1="0" y1="212.5" x2="300" y2="212.5"/>
<line fill="none" stroke="#000000" stroke-miterlimit="10" x1="0" y1="223.5" x2="300" y2="223.5"/>
<line fill="none" stroke="#000000" stroke-miterlimit="10" x1="0" y1="231.5" x2="300" y2="231.5"/>
<line fill="none" stroke="#000000" stroke-miterlimit="10" x1="0" y1="242.5" x2="300" y2="242.5"/>
<line fill="none" stroke="#000000" stroke-miterlimit="10" x1="0" y1="255.5" x2="300" y2="255.5"/>
<line fill="none" stroke="#000000" stroke-miterlimit="10" x1="0" y1="263.5" x2="300" y2="263.5"/>
<line fill="none" stroke="#000000" stroke-miterlimit="10" x1="0" y1="274.5" x2="300" y2="274.5"/>
<line fill="none" stroke="#000000" stroke-miterlimit="10" x1="0" y1="287.5" x2="300" y2="287.5"/>
<line fill="none" stroke="#000000" stroke-miterlimit="10" x1="0" y1="293.5" x2="300" y2="293.5"/>
<line fill="none" stroke="#000000" stroke-miterlimit="10" x1="0" y1="113.5" x2="300" y2="113.5"/>
<line fill="none" stroke="#000000" stroke-miterlimit="10" x1="0" y1="129.5" x2="300" y2="129.5"/>
<line fill="none" stroke="#000000" stroke-miterlimit="10" x1="0" y1="153.5" x2="300" y2="153.5"/>
<line fill="none" stroke="#000000" stroke-miterlimit="10" x1="0" y1="177.5" x2="300" y2="177.5"/>
<line fill="none" stroke="#000000" stroke-miterlimit="10" x1="0" y1="196.5" x2="300" y2="196.5"/>
<line fill="none" stroke="#000000" stroke-miterlimit="10" x1="0" y1="204.5" x2="300" y2="204.5"/>
<line fill="none" stroke="#000000" stroke-miterlimit="10" x1="0" y1="217.5" x2="300" y2="217.5"/>
<line fill="none" stroke="#000000" stroke-miterlimit="10" x1="0" y1="226.5" x2="300" y2="226.5"/>
<line fill="none" stroke="#000000" stroke-miterlimit="10" x1="0" y1="236.5" x2="300" y2="236.5"/>
<line fill="none" stroke="#000000" stroke-miterlimit="10" x1="0" y1="250.5" x2="300" y2="250.5"/>
<line fill="none" stroke="#000000" stroke-miterlimit="10" x1="0" y1="258.5" x2="300" y2="258.5"/>
<line fill="none" stroke="#000000" stroke-miterlimit="10" x1="0" y1="271.5" x2="300" y2="271.5"/>
<line fill="none" stroke="#000000" stroke-miterlimit="10" x1="0" y1="285.5" x2="300" y2="285.5"/>
<line fill="none" stroke="#000000" stroke-miterlimit="10" x1="0" y1="290.5" x2="300" y2="290.5"/>
<line fill="none" stroke="#000000" stroke-miterlimit="10" x1="0" y1="134.5" x2="300" y2="134.5"/>
<line fill="none" stroke="#000000" stroke-miterlimit="10" x1="0" y1="150.5" x2="300" y2="150.5"/>
<line fill="none" stroke="#000000" stroke-miterlimit="10" x1="0" y1="172.5" x2="300" y2="172.5"/>
<line fill="none" stroke="#000000" stroke-miterlimit="10" x1="0" y1="193.5" x2="300" y2="193.5"/>
<line fill="none" stroke="#000000" stroke-miterlimit="10" x1="0" y1="209.5" x2="300" y2="209.5"/>
<line fill="none" stroke="#000000" stroke-miterlimit="10" x1="0" y1="220.5" x2="300" y2="220.5"/>
<line fill="none" stroke="#000000" stroke-miterlimit="10" x1="0" y1="234.5" x2="300" y2="234.5"/>
<line fill="none" stroke="#000000" stroke-miterlimit="10" x1="0" y1="239.5" x2="300" y2="239.5"/>
<line fill="none" stroke="#000000" stroke-miterlimit="10" x1="0" y1="247.5" x2="300" y2="247.5"/>
<line fill="none" stroke="#000000" stroke-miterlimit="10" x1="0" y1="260.5" x2="300" y2="260.5"/>
<line fill="none" stroke="#000000" stroke-miterlimit="10" x1="0" y1="268.5" x2="300" y2="268.5"/>
<line fill="none" stroke="#000000" stroke-miterlimit="10" x1="0" y1="279.5" x2="300" y2="279.5"/>
<line fill="none" stroke="#000000" stroke-miterlimit="10" x1="0" y1="295.5" x2="300" y2="295.5"/>
<line fill="none" stroke="#000000" stroke-miterlimit="10" x1="0" y1="298.5" x2="300" y2="298.5"/>
</svg>
