solid Default
  facet normal 0.000000e+00 7.448971e-16 1.000000e+00
    outer loop
      vertex -9.828427e+00 9.259714e+00 1.100000e+01
      vertex -1.400000e+01 9.259714e+00 1.100000e+01
      vertex -9.828427e+00 5.259714e+00 1.100000e+01
    endloop
  endfacet
  facet normal 0.000000e+00 7.448971e-16 1.000000e+00
    outer loop
      vertex -9.828427e+00 5.259714e+00 1.100000e+01
      vertex -1.400000e+01 9.259714e+00 1.100000e+01
      vertex -1.400000e+01 5.259714e+00 1.100000e+01
    endloop
  endfacet
  facet normal 7.071068e-01 5.267217e-16 7.071068e-01
    outer loop
      vertex -1.414213e+00 9.259714e+00 2.585788e+00
      vertex -9.828427e+00 9.259714e+00 1.100000e+01
      vertex -1.414213e+00 5.259714e+00 2.585788e+00
    endloop
  endfacet
  facet normal 7.071068e-01 5.267217e-16 7.071068e-01
    outer loop
      vertex -1.414213e+00 5.259714e+00 2.585788e+00
      vertex -9.828427e+00 9.259714e+00 1.100000e+01
      vertex -9.828427e+00 5.259714e+00 1.100000e+01
    endloop
  endfacet
  facet normal 6.648450e-01 5.564243e-16 7.469813e-01
    outer loop
      vertex -1.414213e+00 -5.259716e+00 2.585788e+00
      vertex -1.414213e+00 -9.259714e+00 2.585788e+00
      vertex -1.147152e+00 -9.259714e+00 2.361696e+00
    endloop
  endfacet
  facet normal 6.201839e-01 5.843393e-16 7.844564e-01
    outer loop
      vertex -1.414213e+00 -5.259716e+00 2.585788e+00
      vertex -1.147152e+00 -9.259714e+00 2.361696e+00
      vertex -1.147152e+00 -5.259716e+00 2.361696e+00
    endloop
  endfacet
  facet normal 5.250326e-01 6.339685e-16 8.510821e-01
    outer loop
      vertex -1.147152e+00 -5.259716e+00 2.361696e+00
      vertex -1.147152e+00 -9.259714e+00 2.361696e+00
      vertex -8.452358e-01 -9.259714e+00 2.187385e+00
    endloop
  endfacet
  facet normal 4.745424e-01 6.556826e-16 8.802326e-01
    outer loop
      vertex -1.147152e+00 -5.259716e+00 2.361696e+00
      vertex -8.452358e-01 -9.259714e+00 2.187385e+00
      vertex -8.452358e-01 -5.259716e+00 2.187385e+00
    endloop
  endfacet
  facet normal 3.692673e-01 6.922501e-16 9.293233e-01
    outer loop
      vertex -8.452358e-01 -5.259716e+00 2.187385e+00
      vertex -8.452358e-01 -9.259714e+00 2.187385e+00
      vertex -5.176392e-01 -9.259714e+00 2.068149e+00
    endloop
  endfacet
  facet normal 3.144823e-01 7.071034e-16 9.492633e-01
    outer loop
      vertex -8.452358e-01 -5.259716e+00 2.187385e+00
      vertex -5.176392e-01 -9.259714e+00 2.068149e+00
      vertex -5.176392e-01 -5.259716e+00 2.068149e+00
    endloop
  endfacet
  facet normal 2.022820e-01 7.294981e-16 9.793273e-01
    outer loop
      vertex -5.176392e-01 -5.259716e+00 2.068149e+00
      vertex -5.176392e-01 -9.259714e+00 2.068149e+00
      vertex -1.743126e-01 -9.259714e+00 2.007611e+00
    endloop
  endfacet
  facet normal 1.448667e-01 7.370393e-16 9.894512e-01
    outer loop
      vertex -5.176392e-01 -5.259716e+00 2.068149e+00
      vertex -1.743126e-01 -9.259714e+00 2.007611e+00
      vertex -1.743126e-01 -5.259716e+00 2.007611e+00
    endloop
  endfacet
  facet normal 5.815303e-02 7.436364e-16 9.983077e-01
    outer loop
      vertex -1.743126e-01 -5.259716e+00 2.007611e+00
      vertex -1.743126e-01 -9.259714e+00 2.007611e+00
      vertex 0.000000e+00 -5.259716e+00 2.000000e+00
    endloop
  endfacet
  facet normal 0.000000e+00 7.448970e-16 1.000000e+00
    outer loop
      vertex 0.000000e+00 -5.259716e+00 2.000000e+00
      vertex -1.743126e-01 -9.259714e+00 2.007611e+00
      vertex 1.743126e-01 -9.259714e+00 2.007611e+00
    endloop
  endfacet
  facet normal -5.815303e-02 7.436364e-16 9.983077e-01
    outer loop
      vertex 0.000000e+00 -5.259716e+00 2.000000e+00
      vertex 1.743126e-01 -9.259714e+00 2.007611e+00
      vertex 1.743126e-01 -5.259716e+00 2.007611e+00
    endloop
  endfacet
  facet normal -1.448667e-01 7.370392e-16 9.894512e-01
    outer loop
      vertex 1.743126e-01 -5.259716e+00 2.007611e+00
      vertex 1.743126e-01 -9.259714e+00 2.007611e+00
      vertex 5.176392e-01 -9.259714e+00 2.068149e+00
    endloop
  endfacet
  facet normal -2.022820e-01 7.294981e-16 9.793273e-01
    outer loop
      vertex 1.743126e-01 -5.259716e+00 2.007611e+00
      vertex 5.176392e-01 -9.259714e+00 2.068149e+00
      vertex 5.176392e-01 -5.259716e+00 2.068149e+00
    endloop
  endfacet
  facet normal -3.144823e-01 7.071034e-16 9.492633e-01
    outer loop
      vertex 5.176392e-01 -5.259716e+00 2.068149e+00
      vertex 5.176392e-01 -9.259714e+00 2.068149e+00
      vertex 8.452358e-01 -9.259714e+00 2.187385e+00
    endloop
  endfacet
  facet normal -3.692673e-01 6.922501e-16 9.293233e-01
    outer loop
      vertex 5.176392e-01 -5.259716e+00 2.068149e+00
      vertex 8.452358e-01 -9.259714e+00 2.187385e+00
      vertex 8.452358e-01 -5.259716e+00 2.187385e+00
    endloop
  endfacet
  facet normal -4.745424e-01 6.556826e-16 8.802326e-01
    outer loop
      vertex 8.452358e-01 -5.259716e+00 2.187385e+00
      vertex 8.452358e-01 -9.259714e+00 2.187385e+00
      vertex 1.147152e+00 -9.259714e+00 2.361696e+00
    endloop
  endfacet
  facet normal -5.250326e-01 6.339685e-16 8.510821e-01
    outer loop
      vertex 8.452358e-01 -5.259716e+00 2.187385e+00
      vertex 1.147152e+00 -9.259714e+00 2.361696e+00
      vertex 1.147152e+00 -5.259716e+00 2.361696e+00
    endloop
  endfacet
  facet normal -6.201839e-01 5.843393e-16 7.844564e-01
    outer loop
      vertex 1.147152e+00 -5.259716e+00 2.361696e+00
      vertex 1.147152e+00 -9.259714e+00 2.361696e+00
      vertex 1.414213e+00 -9.259714e+00 2.585788e+00
    endloop
  endfacet
  facet normal -6.648450e-01 5.564243e-16 7.469813e-01
    outer loop
      vertex 1.147152e+00 -5.259716e+00 2.361696e+00
      vertex 1.414213e+00 -9.259714e+00 2.585788e+00
      vertex 1.414213e+00 -5.259716e+00 2.585788e+00
    endloop
  endfacet
  facet normal -7.071068e-01 5.267217e-16 7.071068e-01
    outer loop
      vertex 9.828426e+00 9.259714e+00 1.100000e+01
      vertex 1.414213e+00 9.259714e+00 2.585788e+00
      vertex 9.828426e+00 5.259714e+00 1.100000e+01
    endloop
  endfacet
  facet normal -7.071068e-01 5.267217e-16 7.071068e-01
    outer loop
      vertex 9.828426e+00 5.259714e+00 1.100000e+01
      vertex 1.414213e+00 9.259714e+00 2.585788e+00
      vertex 1.414213e+00 5.259714e+00 2.585788e+00
    endloop
  endfacet
  facet normal 0.000000e+00 7.448971e-16 1.000000e+00
    outer loop
      vertex 1.400000e+01 9.259714e+00 1.100000e+01
      vertex 9.828426e+00 9.259714e+00 1.100000e+01
      vertex 1.400000e+01 5.259714e+00 1.100000e+01
    endloop
  endfacet
  facet normal 0.000000e+00 7.448971e-16 1.000000e+00
    outer loop
      vertex 1.400000e+01 5.259714e+00 1.100000e+01
      vertex 9.828426e+00 9.259714e+00 1.100000e+01
      vertex 9.828426e+00 5.259714e+00 1.100000e+01
    endloop
  endfacet
  facet normal -1.000000e+00 -4.212972e-31 -0.000000e+00
    outer loop
      vertex -1.400000e+01 5.259714e+00 1.100000e+01
      vertex -1.400000e+01 9.259714e+00 1.100000e+01
      vertex -1.400000e+01 5.259714e+00 2.000000e+00
    endloop
  endfacet
  facet normal -1.000000e+00 -4.212972e-31 -0.000000e+00
    outer loop
      vertex -1.400000e+01 5.259714e+00 2.000000e+00
      vertex -1.400000e+01 9.259714e+00 1.100000e+01
      vertex -1.400000e+01 9.259714e+00 1.776357e-15
    endloop
  endfacet
  facet normal -1.000000e+00 -4.212972e-31 -0.000000e+00
    outer loop
      vertex -1.400000e+01 5.259714e+00 2.000000e+00
      vertex -1.400000e+01 9.259714e+00 1.776357e-15
      vertex -1.400000e+01 -5.259716e+00 2.000000e+00
    endloop
  endfacet
  facet normal -1.000000e+00 -4.212972e-31 -0.000000e+00
    outer loop
      vertex -1.400000e+01 -5.259716e+00 2.000000e+00
      vertex -1.400000e+01 9.259714e+00 1.776357e-15
      vertex -1.400000e+01 -9.259714e+00 0.000000e+00
    endloop
  endfacet
  facet normal -1.000000e+00 -4.212972e-31 -0.000000e+00
    outer loop
      vertex -1.400000e+01 -5.259716e+00 2.000000e+00
      vertex -1.400000e+01 -9.259714e+00 0.000000e+00
      vertex -1.400000e+01 -5.259716e+00 1.100000e+01
    endloop
  endfacet
  facet normal -1.000000e+00 -4.212972e-31 -0.000000e+00
    outer loop
      vertex -1.400000e+01 -5.259716e+00 1.100000e+01
      vertex -1.400000e+01 -9.259714e+00 0.000000e+00
      vertex -1.400000e+01 -9.259714e+00 1.100000e+01
    endloop
  endfacet
  facet normal 0.000000e+00 7.448971e-16 1.000000e+00
    outer loop
      vertex -1.400000e+01 -9.259714e+00 1.100000e+01
      vertex -9.828427e+00 -9.259714e+00 1.100000e+01
      vertex -1.400000e+01 -5.259716e+00 1.100000e+01
    endloop
  endfacet
  facet normal 0.000000e+00 7.448971e-16 1.000000e+00
    outer loop
      vertex -1.400000e+01 -5.259716e+00 1.100000e+01
      vertex -9.828427e+00 -9.259714e+00 1.100000e+01
      vertex -9.828427e+00 -5.259716e+00 1.100000e+01
    endloop
  endfacet
  facet normal 7.071068e-01 5.267217e-16 7.071068e-01
    outer loop
      vertex -9.828427e+00 -9.259714e+00 1.100000e+01
      vertex -1.414213e+00 -9.259714e+00 2.585788e+00
      vertex -9.828427e+00 -5.259716e+00 1.100000e+01
    endloop
  endfacet
  facet normal 7.071068e-01 5.267217e-16 7.071068e-01
    outer loop
      vertex -9.828427e+00 -5.259716e+00 1.100000e+01
      vertex -1.414213e+00 -9.259714e+00 2.585788e+00
      vertex -1.414213e+00 -5.259716e+00 2.585788e+00
    endloop
  endfacet
  facet normal 6.648450e-01 5.564243e-16 7.469813e-01
    outer loop
      vertex -1.414213e+00 9.259714e+00 2.585788e+00
      vertex -1.414213e+00 5.259714e+00 2.585788e+00
      vertex -1.147152e+00 5.259714e+00 2.361696e+00
    endloop
  endfacet
  facet normal 6.201839e-01 5.843393e-16 7.844564e-01
    outer loop
      vertex -1.414213e+00 9.259714e+00 2.585788e+00
      vertex -1.147152e+00 5.259714e+00 2.361696e+00
      vertex -1.147152e+00 9.259714e+00 2.361696e+00
    endloop
  endfacet
  facet normal 5.250326e-01 6.339685e-16 8.510821e-01
    outer loop
      vertex -1.147152e+00 9.259714e+00 2.361696e+00
      vertex -1.147152e+00 5.259714e+00 2.361696e+00
      vertex -8.452358e-01 5.259714e+00 2.187385e+00
    endloop
  endfacet
  facet normal 4.745424e-01 6.556826e-16 8.802326e-01
    outer loop
      vertex -1.147152e+00 9.259714e+00 2.361696e+00
      vertex -8.452358e-01 5.259714e+00 2.187385e+00
      vertex -8.452358e-01 9.259714e+00 2.187385e+00
    endloop
  endfacet
  facet normal 3.692673e-01 6.922501e-16 9.293233e-01
    outer loop
      vertex -8.452358e-01 9.259714e+00 2.187385e+00
      vertex -8.452358e-01 5.259714e+00 2.187385e+00
      vertex -5.176392e-01 5.259714e+00 2.068149e+00
    endloop
  endfacet
  facet normal 3.144823e-01 7.071034e-16 9.492633e-01
    outer loop
      vertex -8.452358e-01 9.259714e+00 2.187385e+00
      vertex -5.176392e-01 5.259714e+00 2.068149e+00
      vertex -5.176392e-01 9.259714e+00 2.068149e+00
    endloop
  endfacet
  facet normal 2.022820e-01 7.294981e-16 9.793273e-01
    outer loop
      vertex -5.176392e-01 9.259714e+00 2.068149e+00
      vertex -5.176392e-01 5.259714e+00 2.068149e+00
      vertex -1.743126e-01 5.259714e+00 2.007611e+00
    endloop
  endfacet
  facet normal 1.448667e-01 7.370393e-16 9.894512e-01
    outer loop
      vertex -5.176392e-01 9.259714e+00 2.068149e+00
      vertex -1.743126e-01 5.259714e+00 2.007611e+00
      vertex -1.743126e-01 9.259714e+00 2.007611e+00
    endloop
  endfacet
  facet normal 5.815303e-02 7.436364e-16 9.983077e-01
    outer loop
      vertex -1.743126e-01 9.259714e+00 2.007611e+00
      vertex -1.743126e-01 5.259714e+00 2.007611e+00
      vertex 0.000000e+00 5.259714e+00 2.000000e+00
    endloop
  endfacet
  facet normal 0.000000e+00 7.448970e-16 1.000000e+00
    outer loop
      vertex -1.743126e-01 9.259714e+00 2.007611e+00
      vertex 0.000000e+00 5.259714e+00 2.000000e+00
      vertex 1.743126e-01 9.259714e+00 2.007611e+00
    endloop
  endfacet
  facet normal -5.815303e-02 7.436364e-16 9.983077e-01
    outer loop
      vertex 0.000000e+00 5.259714e+00 2.000000e+00
      vertex 1.743126e-01 5.259714e+00 2.007611e+00
      vertex 1.743126e-01 9.259714e+00 2.007611e+00
    endloop
  endfacet
  facet normal -1.448667e-01 7.370392e-16 9.894512e-01
    outer loop
      vertex 1.743126e-01 9.259714e+00 2.007611e+00
      vertex 1.743126e-01 5.259714e+00 2.007611e+00
      vertex 5.176392e-01 5.259714e+00 2.068149e+00
    endloop
  endfacet
  facet normal -2.022820e-01 7.294981e-16 9.793273e-01
    outer loop
      vertex 1.743126e-01 9.259714e+00 2.007611e+00
      vertex 5.176392e-01 5.259714e+00 2.068149e+00
      vertex 5.176392e-01 9.259714e+00 2.068149e+00
    endloop
  endfacet
  facet normal -3.144823e-01 7.071034e-16 9.492633e-01
    outer loop
      vertex 5.176392e-01 9.259714e+00 2.068149e+00
      vertex 5.176392e-01 5.259714e+00 2.068149e+00
      vertex 8.452358e-01 5.259714e+00 2.187385e+00
    endloop
  endfacet
  facet normal -3.692673e-01 6.922501e-16 9.293233e-01
    outer loop
      vertex 5.176392e-01 9.259714e+00 2.068149e+00
      vertex 8.452358e-01 5.259714e+00 2.187385e+00
      vertex 8.452358e-01 9.259714e+00 2.187385e+00
    endloop
  endfacet
  facet normal -4.745424e-01 6.556826e-16 8.802326e-01
    outer loop
      vertex 8.452358e-01 9.259714e+00 2.187385e+00
      vertex 8.452358e-01 5.259714e+00 2.187385e+00
      vertex 1.147152e+00 5.259714e+00 2.361696e+00
    endloop
  endfacet
  facet normal -5.250326e-01 6.339685e-16 8.510821e-01
    outer loop
      vertex 8.452358e-01 9.259714e+00 2.187385e+00
      vertex 1.147152e+00 5.259714e+00 2.361696e+00
      vertex 1.147152e+00 9.259714e+00 2.361696e+00
    endloop
  endfacet
  facet normal -6.201839e-01 5.843393e-16 7.844564e-01
    outer loop
      vertex 1.147152e+00 9.259714e+00 2.361696e+00
      vertex 1.147152e+00 5.259714e+00 2.361696e+00
      vertex 1.414213e+00 5.259714e+00 2.585788e+00
    endloop
  endfacet
  facet normal -6.648450e-01 5.564243e-16 7.469813e-01
    outer loop
      vertex 1.147152e+00 9.259714e+00 2.361696e+00
      vertex 1.414213e+00 5.259714e+00 2.585788e+00
      vertex 1.414213e+00 9.259714e+00 2.585788e+00
    endloop
  endfacet
  facet normal -7.071068e-01 5.267217e-16 7.071068e-01
    outer loop
      vertex 1.414213e+00 -9.259714e+00 2.585788e+00
      vertex 9.828426e+00 -9.259714e+00 1.100000e+01
      vertex 1.414213e+00 -5.259716e+00 2.585788e+00
    endloop
  endfacet
  facet normal -7.071068e-01 5.267217e-16 7.071068e-01
    outer loop
      vertex 1.414213e+00 -5.259716e+00 2.585788e+00
      vertex 9.828426e+00 -9.259714e+00 1.100000e+01
      vertex 9.828426e+00 -5.259716e+00 1.100000e+01
    endloop
  endfacet
  facet normal 0.000000e+00 7.448971e-16 1.000000e+00
    outer loop
      vertex 9.828426e+00 -9.259714e+00 1.100000e+01
      vertex 1.400000e+01 -9.259714e+00 1.100000e+01
      vertex 9.828426e+00 -5.259716e+00 1.100000e+01
    endloop
  endfacet
  facet normal 0.000000e+00 7.448971e-16 1.000000e+00
    outer loop
      vertex 9.828426e+00 -5.259716e+00 1.100000e+01
      vertex 1.400000e+01 -9.259714e+00 1.100000e+01
      vertex 1.400000e+01 -5.259716e+00 1.100000e+01
    endloop
  endfacet
  facet normal 1.000000e+00 4.212972e-31 0.000000e+00
    outer loop
      vertex 1.400000e+01 -5.259716e+00 1.100000e+01
      vertex 1.400000e+01 -9.259714e+00 1.100000e+01
      vertex 1.400000e+01 -5.259716e+00 2.000000e+00
    endloop
  endfacet
  facet normal 1.000000e+00 4.212972e-31 0.000000e+00
    outer loop
      vertex 1.400000e+01 -5.259716e+00 2.000000e+00
      vertex 1.400000e+01 -9.259714e+00 1.100000e+01
      vertex 1.400000e+01 -9.259714e+00 0.000000e+00
    endloop
  endfacet
  facet normal 1.000000e+00 4.212972e-31 0.000000e+00
    outer loop
      vertex 1.400000e+01 -5.259716e+00 2.000000e+00
      vertex 1.400000e+01 -9.259714e+00 0.000000e+00
      vertex 1.400000e+01 5.259714e+00 2.000000e+00
    endloop
  endfacet
  facet normal 1.000000e+00 4.212972e-31 0.000000e+00
    outer loop
      vertex 1.400000e+01 5.259714e+00 2.000000e+00
      vertex 1.400000e+01 -9.259714e+00 0.000000e+00
      vertex 1.400000e+01 9.259714e+00 1.776357e-15
    endloop
  endfacet
  facet normal 1.000000e+00 4.212972e-31 0.000000e+00
    outer loop
      vertex 1.400000e+01 5.259714e+00 2.000000e+00
      vertex 1.400000e+01 9.259714e+00 1.776357e-15
      vertex 1.400000e+01 5.259714e+00 1.100000e+01
    endloop
  endfacet
  facet normal 1.000000e+00 4.212972e-31 0.000000e+00
    outer loop
      vertex 1.400000e+01 5.259714e+00 1.100000e+01
      vertex 1.400000e+01 9.259714e+00 1.776357e-15
      vertex 1.400000e+01 9.259714e+00 1.100000e+01
    endloop
  endfacet
  facet normal 0.000000e+00 -7.448971e-16 -1.000000e+00
    outer loop
      vertex 9.425976e+00 1.385820e+00 0.000000e+00
      vertex -1.400000e+01 9.259714e+00 1.776357e-15
      vertex 9.707367e+00 1.471178e+00 0.000000e+00
    endloop
  endfacet
  facet normal 0.000000e+00 -7.448971e-16 -1.000000e+00
    outer loop
      vertex 9.707367e+00 1.471178e+00 0.000000e+00
      vertex -1.400000e+01 9.259714e+00 1.776357e-15
      vertex 1.400000e+01 9.259714e+00 1.776357e-15
    endloop
  endfacet
  facet normal 0.000000e+00 -7.448971e-16 -1.000000e+00
    outer loop
      vertex -1.147118e+01 -2.926364e-01 0.000000e+00
      vertex -1.138582e+01 -5.740247e-01 0.000000e+00
      vertex -1.400000e+01 -9.259714e+00 0.000000e+00
    endloop
  endfacet
  facet normal 0.000000e+00 -7.448971e-16 -1.000000e+00
    outer loop
      vertex -1.138582e+01 -5.740247e-01 0.000000e+00
      vertex -1.124720e+01 -8.333554e-01 0.000000e+00
      vertex -1.400000e+01 -9.259714e+00 0.000000e+00
    endloop
  endfacet
  facet normal 0.000000e+00 -7.448971e-16 -1.000000e+00
    outer loop
      vertex -1.400000e+01 -9.259714e+00 0.000000e+00
      vertex -1.124720e+01 -8.333554e-01 0.000000e+00
      vertex -1.106066e+01 -1.060661e+00 0.000000e+00
    endloop
  endfacet
  facet normal 0.000000e+00 -7.448971e-16 -1.000000e+00
    outer loop
      vertex -1.400000e+01 -9.259714e+00 0.000000e+00
      vertex -1.106066e+01 -1.060661e+00 0.000000e+00
      vertex -1.083336e+01 -1.247204e+00 0.000000e+00
    endloop
  endfacet
  facet normal 0.000000e+00 -7.448971e-16 -1.000000e+00
    outer loop
      vertex 1.106066e+01 -1.060661e+00 0.000000e+00
      vertex 1.124720e+01 -8.333554e-01 0.000000e+00
      vertex 1.400000e+01 -9.259714e+00 0.000000e+00
    endloop
  endfacet
  facet normal 0.000000e+00 -7.448971e-16 -1.000000e+00
    outer loop
      vertex -9.425976e+00 -1.385820e+00 0.000000e+00
      vertex 9.166641e+00 1.247204e+00 0.000000e+00
      vertex 8.939342e+00 1.060660e+00 0.000000e+00
    endloop
  endfacet
  facet normal 0.000000e+00 -7.448971e-16 -1.000000e+00
    outer loop
      vertex 9.425976e+00 1.385820e+00 0.000000e+00
      vertex -9.166645e+00 1.247204e+00 0.000000e+00
      vertex -1.400000e+01 9.259714e+00 1.776357e-15
    endloop
  endfacet
  facet normal 0.000000e+00 -7.448971e-16 -1.000000e+00
    outer loop
      vertex -1.400000e+01 9.259714e+00 1.776357e-15
      vertex -9.166645e+00 1.247204e+00 0.000000e+00
      vertex -9.425976e+00 1.385820e+00 0.000000e+00
    endloop
  endfacet
  facet normal 0.000000e+00 -7.448971e-16 -1.000000e+00
    outer loop
      vertex -1.400000e+01 9.259714e+00 1.776357e-15
      vertex -9.425976e+00 1.385820e+00 0.000000e+00
      vertex -9.707365e+00 1.471178e+00 0.000000e+00
    endloop
  endfacet
  facet normal 0.000000e+00 -7.448971e-16 -1.000000e+00
    outer loop
      vertex -9.707365e+00 1.471178e+00 0.000000e+00
      vertex -1.000000e+01 1.500000e+00 0.000000e+00
      vertex -1.400000e+01 9.259714e+00 1.776357e-15
    endloop
  endfacet
  facet normal 0.000000e+00 -7.448971e-16 -1.000000e+00
    outer loop
      vertex -1.400000e+01 9.259714e+00 1.776357e-15
      vertex -1.000000e+01 1.500000e+00 0.000000e+00
      vertex -1.029263e+01 1.471178e+00 0.000000e+00
    endloop
  endfacet
  facet normal 0.000000e+00 -7.448971e-16 -1.000000e+00
    outer loop
      vertex -1.400000e+01 9.259714e+00 1.776357e-15
      vertex -1.029263e+01 1.471178e+00 0.000000e+00
      vertex -1.057403e+01 1.385820e+00 0.000000e+00
    endloop
  endfacet
  facet normal 0.000000e+00 -7.448971e-16 -1.000000e+00
    outer loop
      vertex -1.057403e+01 1.385820e+00 0.000000e+00
      vertex -1.083336e+01 1.247204e+00 0.000000e+00
      vertex -1.400000e+01 9.259714e+00 1.776357e-15
    endloop
  endfacet
  facet normal 0.000000e+00 -7.448971e-16 -1.000000e+00
    outer loop
      vertex -1.400000e+01 9.259714e+00 1.776357e-15
      vertex -1.083336e+01 1.247204e+00 0.000000e+00
      vertex -1.106066e+01 1.060660e+00 0.000000e+00
    endloop
  endfacet
  facet normal 0.000000e+00 -7.448971e-16 -1.000000e+00
    outer loop
      vertex -1.400000e+01 9.259714e+00 1.776357e-15
      vertex -1.106066e+01 1.060660e+00 0.000000e+00
      vertex -1.124720e+01 8.333554e-01 0.000000e+00
    endloop
  endfacet
  facet normal 0.000000e+00 -7.448971e-16 -1.000000e+00
    outer loop
      vertex -1.083336e+01 -1.247204e+00 0.000000e+00
      vertex -1.057403e+01 -1.385820e+00 0.000000e+00
      vertex -1.400000e+01 -9.259714e+00 0.000000e+00
    endloop
  endfacet
  facet normal 0.000000e+00 -7.448971e-16 -1.000000e+00
    outer loop
      vertex -1.400000e+01 -9.259714e+00 0.000000e+00
      vertex -1.057403e+01 -1.385820e+00 0.000000e+00
      vertex -1.029263e+01 -1.471179e+00 0.000000e+00
    endloop
  endfacet
  facet normal 0.000000e+00 -7.448971e-16 -1.000000e+00
    outer loop
      vertex -1.400000e+01 -9.259714e+00 0.000000e+00
      vertex -1.029263e+01 -1.471179e+00 0.000000e+00
      vertex -1.000000e+01 -1.500000e+00 0.000000e+00
    endloop
  endfacet
  facet normal 0.000000e+00 -7.448971e-16 -1.000000e+00
    outer loop
      vertex -8.939341e+00 -1.060661e+00 0.000000e+00
      vertex -8.752794e+00 -8.333554e-01 0.000000e+00
      vertex 9.425976e+00 1.385820e+00 0.000000e+00
    endloop
  endfacet
  facet normal 0.000000e+00 -7.448971e-16 -1.000000e+00
    outer loop
      vertex 9.425976e+00 1.385820e+00 0.000000e+00
      vertex -8.752794e+00 -8.333554e-01 0.000000e+00
      vertex -8.614182e+00 -5.740247e-01 0.000000e+00
    endloop
  endfacet
  facet normal 0.000000e+00 -7.448971e-16 -1.000000e+00
    outer loop
      vertex -8.528824e+00 2.926345e-01 0.000000e+00
      vertex -8.614182e+00 5.740247e-01 0.000000e+00
      vertex 9.425976e+00 1.385820e+00 0.000000e+00
    endloop
  endfacet
  facet normal 0.000000e+00 -7.448971e-16 -1.000000e+00
    outer loop
      vertex -8.614182e+00 5.740247e-01 0.000000e+00
      vertex -8.752794e+00 8.333554e-01 0.000000e+00
      vertex 9.425976e+00 1.385820e+00 0.000000e+00
    endloop
  endfacet
  facet normal 0.000000e+00 -7.448971e-16 -1.000000e+00
    outer loop
      vertex 9.425976e+00 1.385820e+00 0.000000e+00
      vertex -8.752794e+00 8.333554e-01 0.000000e+00
      vertex -8.939341e+00 1.060660e+00 0.000000e+00
    endloop
  endfacet
  facet normal 0.000000e+00 -7.448971e-16 -1.000000e+00
    outer loop
      vertex 9.425976e+00 1.385820e+00 0.000000e+00
      vertex -8.939341e+00 1.060660e+00 0.000000e+00
      vertex -9.166645e+00 1.247204e+00 0.000000e+00
    endloop
  endfacet
  facet normal 0.000000e+00 -7.448971e-16 -1.000000e+00
    outer loop
      vertex -1.124720e+01 8.333554e-01 0.000000e+00
      vertex -1.138582e+01 5.740247e-01 0.000000e+00
      vertex -1.400000e+01 9.259714e+00 1.776357e-15
    endloop
  endfacet
  facet normal 0.000000e+00 -7.448971e-16 -1.000000e+00
    outer loop
      vertex -1.400000e+01 9.259714e+00 1.776357e-15
      vertex -1.138582e+01 5.740247e-01 0.000000e+00
      vertex -1.147118e+01 2.926345e-01 0.000000e+00
    endloop
  endfacet
  facet normal 0.000000e+00 -7.448971e-16 -1.000000e+00
    outer loop
      vertex -1.400000e+01 9.259714e+00 1.776357e-15
      vertex -1.147118e+01 2.926345e-01 0.000000e+00
      vertex -1.400000e+01 -9.259714e+00 0.000000e+00
    endloop
  endfacet
  facet normal 0.000000e+00 -7.448971e-16 -1.000000e+00
    outer loop
      vertex -1.400000e+01 -9.259714e+00 0.000000e+00
      vertex -1.147118e+01 2.926345e-01 0.000000e+00
      vertex -1.150000e+01 -4.768372e-07 0.000000e+00
    endloop
  endfacet
  facet normal 0.000000e+00 -7.448971e-16 -1.000000e+00
    outer loop
      vertex -1.400000e+01 -9.259714e+00 0.000000e+00
      vertex -1.150000e+01 -4.768372e-07 0.000000e+00
      vertex -1.147118e+01 -2.926364e-01 0.000000e+00
    endloop
  endfacet
  facet normal 0.000000e+00 -7.448971e-16 -1.000000e+00
    outer loop
      vertex -9.425976e+00 -1.385820e+00 0.000000e+00
      vertex 8.939342e+00 1.060660e+00 0.000000e+00
      vertex -9.707365e+00 -1.471179e+00 0.000000e+00
    endloop
  endfacet
  facet normal 0.000000e+00 -7.448971e-16 -1.000000e+00
    outer loop
      vertex -9.707365e+00 -1.471179e+00 0.000000e+00
      vertex 8.939342e+00 1.060660e+00 0.000000e+00
      vertex 8.752796e+00 8.333554e-01 0.000000e+00
    endloop
  endfacet
  facet normal 0.000000e+00 -7.448971e-16 -1.000000e+00
    outer loop
      vertex -9.707365e+00 -1.471179e+00 0.000000e+00
      vertex 8.752796e+00 8.333554e-01 0.000000e+00
      vertex 8.614182e+00 5.740247e-01 0.000000e+00
    endloop
  endfacet
  facet normal 0.000000e+00 -7.448971e-16 -1.000000e+00
    outer loop
      vertex 9.166641e+00 1.247204e+00 0.000000e+00
      vertex -9.425976e+00 -1.385820e+00 0.000000e+00
      vertex 9.425976e+00 1.385820e+00 0.000000e+00
    endloop
  endfacet
  facet normal 0.000000e+00 -7.448971e-16 -1.000000e+00
    outer loop
      vertex 9.425976e+00 1.385820e+00 0.000000e+00
      vertex -9.425976e+00 -1.385820e+00 0.000000e+00
      vertex -9.166645e+00 -1.247204e+00 0.000000e+00
    endloop
  endfacet
  facet normal 0.000000e+00 -7.448971e-16 -1.000000e+00
    outer loop
      vertex 9.425976e+00 1.385820e+00 0.000000e+00
      vertex -9.166645e+00 -1.247204e+00 0.000000e+00
      vertex -8.939341e+00 -1.060661e+00 0.000000e+00
    endloop
  endfacet
  facet normal 0.000000e+00 -7.448971e-16 -1.000000e+00
    outer loop
      vertex -8.614182e+00 -5.740247e-01 0.000000e+00
      vertex -8.528824e+00 -2.926364e-01 0.000000e+00
      vertex 9.425976e+00 1.385820e+00 0.000000e+00
    endloop
  endfacet
  facet normal 0.000000e+00 -7.448971e-16 -1.000000e+00
    outer loop
      vertex 9.425976e+00 1.385820e+00 0.000000e+00
      vertex -8.528824e+00 -2.926364e-01 0.000000e+00
      vertex -8.500000e+00 -4.768372e-07 0.000000e+00
    endloop
  endfacet
  facet normal 0.000000e+00 -7.448971e-16 -1.000000e+00
    outer loop
      vertex 9.425976e+00 1.385820e+00 0.000000e+00
      vertex -8.500000e+00 -4.768372e-07 0.000000e+00
      vertex -8.528824e+00 2.926345e-01 0.000000e+00
    endloop
  endfacet
  facet normal 0.000000e+00 -7.448971e-16 -1.000000e+00
    outer loop
      vertex -1.400000e+01 -9.259714e+00 0.000000e+00
      vertex 8.752796e+00 -8.333554e-01 0.000000e+00
      vertex 8.939342e+00 -1.060661e+00 0.000000e+00
    endloop
  endfacet
  facet normal 0.000000e+00 -7.448971e-16 -1.000000e+00
    outer loop
      vertex 1.400000e+01 -9.259714e+00 0.000000e+00
      vertex 1.000000e+01 -1.500000e+00 0.000000e+00
      vertex 1.029263e+01 -1.471179e+00 0.000000e+00
    endloop
  endfacet
  facet normal 0.000000e+00 -7.448971e-16 -1.000000e+00
    outer loop
      vertex 8.614182e+00 5.740247e-01 0.000000e+00
      vertex 8.528820e+00 2.926345e-01 0.000000e+00
      vertex -9.707365e+00 -1.471179e+00 0.000000e+00
    endloop
  endfacet
  facet normal 0.000000e+00 -7.448971e-16 -1.000000e+00
    outer loop
      vertex -9.707365e+00 -1.471179e+00 0.000000e+00
      vertex 8.528820e+00 2.926345e-01 0.000000e+00
      vertex 8.500000e+00 -4.768372e-07 0.000000e+00
    endloop
  endfacet
  facet normal 0.000000e+00 -7.448971e-16 -1.000000e+00
    outer loop
      vertex -9.707365e+00 -1.471179e+00 0.000000e+00
      vertex 8.500000e+00 -4.768372e-07 0.000000e+00
      vertex -1.000000e+01 -1.500000e+00 0.000000e+00
    endloop
  endfacet
  facet normal 0.000000e+00 -7.448971e-16 -1.000000e+00
    outer loop
      vertex -1.000000e+01 -1.500000e+00 0.000000e+00
      vertex 8.500000e+00 -4.768372e-07 0.000000e+00
      vertex 8.528820e+00 -2.926364e-01 0.000000e+00
    endloop
  endfacet
  facet normal 0.000000e+00 -7.448971e-16 -1.000000e+00
    outer loop
      vertex -1.000000e+01 -1.500000e+00 0.000000e+00
      vertex 8.528820e+00 -2.926364e-01 0.000000e+00
      vertex -1.400000e+01 -9.259714e+00 0.000000e+00
    endloop
  endfacet
  facet normal 0.000000e+00 -7.448971e-16 -1.000000e+00
    outer loop
      vertex -1.400000e+01 -9.259714e+00 0.000000e+00
      vertex 8.528820e+00 -2.926364e-01 0.000000e+00
      vertex 8.614182e+00 -5.740247e-01 0.000000e+00
    endloop
  endfacet
  facet normal 0.000000e+00 -7.448971e-16 -1.000000e+00
    outer loop
      vertex -1.400000e+01 -9.259714e+00 0.000000e+00
      vertex 8.614182e+00 -5.740247e-01 0.000000e+00
      vertex 8.752796e+00 -8.333554e-01 0.000000e+00
    endloop
  endfacet
  facet normal 0.000000e+00 -7.448971e-16 -1.000000e+00
    outer loop
      vertex 8.939342e+00 -1.060661e+00 0.000000e+00
      vertex 9.166641e+00 -1.247204e+00 0.000000e+00
      vertex -1.400000e+01 -9.259714e+00 0.000000e+00
    endloop
  endfacet
  facet normal 0.000000e+00 -7.448971e-16 -1.000000e+00
    outer loop
      vertex -1.400000e+01 -9.259714e+00 0.000000e+00
      vertex 9.166641e+00 -1.247204e+00 0.000000e+00
      vertex 9.425976e+00 -1.385820e+00 0.000000e+00
    endloop
  endfacet
  facet normal 0.000000e+00 -7.448971e-16 -1.000000e+00
    outer loop
      vertex -1.400000e+01 -9.259714e+00 0.000000e+00
      vertex 9.425976e+00 -1.385820e+00 0.000000e+00
      vertex 1.400000e+01 -9.259714e+00 0.000000e+00
    endloop
  endfacet
  facet normal 0.000000e+00 -7.448971e-16 -1.000000e+00
    outer loop
      vertex 1.400000e+01 -9.259714e+00 0.000000e+00
      vertex 9.425976e+00 -1.385820e+00 0.000000e+00
      vertex 9.707367e+00 -1.471179e+00 0.000000e+00
    endloop
  endfacet
  facet normal 0.000000e+00 -7.448971e-16 -1.000000e+00
    outer loop
      vertex 1.400000e+01 -9.259714e+00 0.000000e+00
      vertex 9.707367e+00 -1.471179e+00 0.000000e+00
      vertex 1.000000e+01 -1.500000e+00 0.000000e+00
    endloop
  endfacet
  facet normal 0.000000e+00 -7.448971e-16 -1.000000e+00
    outer loop
      vertex 1.029263e+01 -1.471179e+00 0.000000e+00
      vertex 1.057402e+01 -1.385820e+00 0.000000e+00
      vertex 1.400000e+01 -9.259714e+00 0.000000e+00
    endloop
  endfacet
  facet normal 0.000000e+00 -7.448971e-16 -1.000000e+00
    outer loop
      vertex 1.400000e+01 -9.259714e+00 0.000000e+00
      vertex 1.057402e+01 -1.385820e+00 0.000000e+00
      vertex 1.083335e+01 -1.247204e+00 0.000000e+00
    endloop
  endfacet
  facet normal 0.000000e+00 -7.448971e-16 -1.000000e+00
    outer loop
      vertex 1.400000e+01 -9.259714e+00 0.000000e+00
      vertex 1.083335e+01 -1.247204e+00 0.000000e+00
      vertex 1.106066e+01 -1.060661e+00 0.000000e+00
    endloop
  endfacet
  facet normal 0.000000e+00 -7.448971e-16 -1.000000e+00
    outer loop
      vertex 1.150000e+01 -4.768372e-07 0.000000e+00
      vertex 1.400000e+01 9.259714e+00 1.776357e-15
      vertex 1.147118e+01 -2.926364e-01 0.000000e+00
    endloop
  endfacet
  facet normal 0.000000e+00 -7.448971e-16 -1.000000e+00
    outer loop
      vertex 1.147118e+01 -2.926364e-01 0.000000e+00
      vertex 1.400000e+01 9.259714e+00 1.776357e-15
      vertex 1.400000e+01 -9.259714e+00 0.000000e+00
    endloop
  endfacet
  facet normal 0.000000e+00 -7.448971e-16 -1.000000e+00
    outer loop
      vertex 1.147118e+01 -2.926364e-01 0.000000e+00
      vertex 1.400000e+01 -9.259714e+00 0.000000e+00
      vertex 1.138582e+01 -5.740247e-01 0.000000e+00
    endloop
  endfacet
  facet normal 0.000000e+00 -7.448971e-16 -1.000000e+00
    outer loop
      vertex 1.138582e+01 -5.740247e-01 0.000000e+00
      vertex 1.400000e+01 -9.259714e+00 0.000000e+00
      vertex 1.124720e+01 -8.333554e-01 0.000000e+00
    endloop
  endfacet
  facet normal 0.000000e+00 -7.448971e-16 -1.000000e+00
    outer loop
      vertex 1.150000e+01 -4.768372e-07 0.000000e+00
      vertex 1.147118e+01 2.926345e-01 0.000000e+00
      vertex 1.400000e+01 9.259714e+00 1.776357e-15
    endloop
  endfacet
  facet normal 0.000000e+00 -7.448971e-16 -1.000000e+00
    outer loop
      vertex 1.400000e+01 9.259714e+00 1.776357e-15
      vertex 1.147118e+01 2.926345e-01 0.000000e+00
      vertex 1.138582e+01 5.740247e-01 0.000000e+00
    endloop
  endfacet
  facet normal 0.000000e+00 -7.448971e-16 -1.000000e+00
    outer loop
      vertex 1.400000e+01 9.259714e+00 1.776357e-15
      vertex 1.138582e+01 5.740247e-01 0.000000e+00
      vertex 1.124720e+01 8.333554e-01 0.000000e+00
    endloop
  endfacet
  facet normal 0.000000e+00 -7.448971e-16 -1.000000e+00
    outer loop
      vertex 1.124720e+01 8.333554e-01 0.000000e+00
      vertex 1.106066e+01 1.060660e+00 0.000000e+00
      vertex 1.400000e+01 9.259714e+00 1.776357e-15
    endloop
  endfacet
  facet normal 0.000000e+00 -7.448971e-16 -1.000000e+00
    outer loop
      vertex 1.400000e+01 9.259714e+00 1.776357e-15
      vertex 1.106066e+01 1.060660e+00 0.000000e+00
      vertex 1.083335e+01 1.247204e+00 0.000000e+00
    endloop
  endfacet
  facet normal 0.000000e+00 -7.448971e-16 -1.000000e+00
    outer loop
      vertex 1.400000e+01 9.259714e+00 1.776357e-15
      vertex 1.083335e+01 1.247204e+00 0.000000e+00
      vertex 1.057402e+01 1.385820e+00 0.000000e+00
    endloop
  endfacet
  facet normal 0.000000e+00 -7.448971e-16 -1.000000e+00
    outer loop
      vertex 1.057402e+01 1.385820e+00 0.000000e+00
      vertex 1.029263e+01 1.471178e+00 0.000000e+00
      vertex 1.400000e+01 9.259714e+00 1.776357e-15
    endloop
  endfacet
  facet normal 0.000000e+00 -7.448971e-16 -1.000000e+00
    outer loop
      vertex 1.400000e+01 9.259714e+00 1.776357e-15
      vertex 1.029263e+01 1.471178e+00 0.000000e+00
      vertex 1.000000e+01 1.500000e+00 0.000000e+00
    endloop
  endfacet
  facet normal 0.000000e+00 -7.448971e-16 -1.000000e+00
    outer loop
      vertex 1.400000e+01 9.259714e+00 1.776357e-15
      vertex 1.000000e+01 1.500000e+00 0.000000e+00
      vertex 9.707367e+00 1.471178e+00 0.000000e+00
    endloop
  endfacet
  facet normal -4.212972e-31 1.000000e+00 -7.448971e-16
    outer loop
      vertex 5.176392e-01 9.259714e+00 2.068149e+00
      vertex 8.452358e-01 9.259714e+00 2.187385e+00
      vertex 1.400000e+01 9.259714e+00 1.776357e-15
    endloop
  endfacet
  facet normal -4.212972e-31 1.000000e+00 -7.448971e-16
    outer loop
      vertex -1.400000e+01 9.259714e+00 1.776357e-15
      vertex -1.400000e+01 9.259714e+00 1.100000e+01
      vertex -9.828427e+00 9.259714e+00 1.100000e+01
    endloop
  endfacet
  facet normal -4.212972e-31 1.000000e+00 -7.448971e-16
    outer loop
      vertex -9.828427e+00 9.259714e+00 1.100000e+01
      vertex -1.414213e+00 9.259714e+00 2.585788e+00
      vertex -1.400000e+01 9.259714e+00 1.776357e-15
    endloop
  endfacet
  facet normal -4.212972e-31 1.000000e+00 -7.448971e-16
    outer loop
      vertex -1.400000e+01 9.259714e+00 1.776357e-15
      vertex -1.414213e+00 9.259714e+00 2.585788e+00
      vertex -1.147152e+00 9.259714e+00 2.361696e+00
    endloop
  endfacet
  facet normal -4.212972e-31 1.000000e+00 -7.448971e-16
    outer loop
      vertex -1.400000e+01 9.259714e+00 1.776357e-15
      vertex -1.147152e+00 9.259714e+00 2.361696e+00
      vertex -8.452358e-01 9.259714e+00 2.187385e+00
    endloop
  endfacet
  facet normal -4.212972e-31 1.000000e+00 -7.448971e-16
    outer loop
      vertex 9.828426e+00 9.259714e+00 1.100000e+01
      vertex 1.400000e+01 9.259714e+00 1.100000e+01
      vertex 1.414213e+00 9.259714e+00 2.585788e+00
    endloop
  endfacet
  facet normal -4.212972e-31 1.000000e+00 -7.448971e-16
    outer loop
      vertex 1.414213e+00 9.259714e+00 2.585788e+00
      vertex 1.400000e+01 9.259714e+00 1.100000e+01
      vertex 1.400000e+01 9.259714e+00 1.776357e-15
    endloop
  endfacet
  facet normal -4.212972e-31 1.000000e+00 -7.448971e-16
    outer loop
      vertex 1.414213e+00 9.259714e+00 2.585788e+00
      vertex 1.400000e+01 9.259714e+00 1.776357e-15
      vertex 1.147152e+00 9.259714e+00 2.361696e+00
    endloop
  endfacet
  facet normal -4.212972e-31 1.000000e+00 -7.448971e-16
    outer loop
      vertex 1.147152e+00 9.259714e+00 2.361696e+00
      vertex 1.400000e+01 9.259714e+00 1.776357e-15
      vertex 8.452358e-01 9.259714e+00 2.187385e+00
    endloop
  endfacet
  facet normal -4.212972e-31 1.000000e+00 -7.448971e-16
    outer loop
      vertex -8.452358e-01 9.259714e+00 2.187385e+00
      vertex -5.176392e-01 9.259714e+00 2.068149e+00
      vertex -1.400000e+01 9.259714e+00 1.776357e-15
    endloop
  endfacet
  facet normal -4.212972e-31 1.000000e+00 -7.448971e-16
    outer loop
      vertex -1.400000e+01 9.259714e+00 1.776357e-15
      vertex -5.176392e-01 9.259714e+00 2.068149e+00
      vertex -1.743126e-01 9.259714e+00 2.007611e+00
    endloop
  endfacet
  facet normal -4.212972e-31 1.000000e+00 -7.448971e-16
    outer loop
      vertex -1.400000e+01 9.259714e+00 1.776357e-15
      vertex -1.743126e-01 9.259714e+00 2.007611e+00
      vertex 1.400000e+01 9.259714e+00 1.776357e-15
    endloop
  endfacet
  facet normal -4.212972e-31 1.000000e+00 -7.448971e-16
    outer loop
      vertex 1.400000e+01 9.259714e+00 1.776357e-15
      vertex -1.743126e-01 9.259714e+00 2.007611e+00
      vertex 1.743126e-01 9.259714e+00 2.007611e+00
    endloop
  endfacet
  facet normal -4.212972e-31 1.000000e+00 -7.448971e-16
    outer loop
      vertex 1.400000e+01 9.259714e+00 1.776357e-15
      vertex 1.743126e-01 9.259714e+00 2.007611e+00
      vertex 5.176392e-01 9.259714e+00 2.068149e+00
    endloop
  endfacet
  facet normal 4.212972e-31 -1.000000e+00 7.448971e-16
    outer loop
      vertex 1.147152e+00 -9.259714e+00 2.361696e+00
      vertex 8.452358e-01 -9.259714e+00 2.187385e+00
      vertex 1.400000e+01 -9.259714e+00 0.000000e+00
    endloop
  endfacet
  facet normal 4.212972e-31 -1.000000e+00 7.448971e-16
    outer loop
      vertex -1.400000e+01 -9.259714e+00 0.000000e+00
      vertex -5.176392e-01 -9.259714e+00 2.068149e+00
      vertex -8.452358e-01 -9.259714e+00 2.187385e+00
    endloop
  endfacet
  facet normal 4.212972e-31 -1.000000e+00 7.448971e-16
    outer loop
      vertex 1.400000e+01 -9.259714e+00 1.100000e+01
      vertex 9.828426e+00 -9.259714e+00 1.100000e+01
      vertex 1.400000e+01 -9.259714e+00 0.000000e+00
    endloop
  endfacet
  facet normal 4.212972e-31 -1.000000e+00 7.448971e-16
    outer loop
      vertex 1.400000e+01 -9.259714e+00 0.000000e+00
      vertex 9.828426e+00 -9.259714e+00 1.100000e+01
      vertex 1.414213e+00 -9.259714e+00 2.585788e+00
    endloop
  endfacet
  facet normal 4.212972e-31 -1.000000e+00 7.448971e-16
    outer loop
      vertex 1.400000e+01 -9.259714e+00 0.000000e+00
      vertex 1.414213e+00 -9.259714e+00 2.585788e+00
      vertex 1.147152e+00 -9.259714e+00 2.361696e+00
    endloop
  endfacet
  facet normal 4.212972e-31 -1.000000e+00 7.448971e-16
    outer loop
      vertex 8.452358e-01 -9.259714e+00 2.187385e+00
      vertex 5.176392e-01 -9.259714e+00 2.068149e+00
      vertex 1.400000e+01 -9.259714e+00 0.000000e+00
    endloop
  endfacet
  facet normal 4.212972e-31 -1.000000e+00 7.448971e-16
    outer loop
      vertex 1.400000e+01 -9.259714e+00 0.000000e+00
      vertex 5.176392e-01 -9.259714e+00 2.068149e+00
      vertex 1.743126e-01 -9.259714e+00 2.007611e+00
    endloop
  endfacet
  facet normal 4.212972e-31 -1.000000e+00 7.448971e-16
    outer loop
      vertex 1.400000e+01 -9.259714e+00 0.000000e+00
      vertex 1.743126e-01 -9.259714e+00 2.007611e+00
      vertex -1.400000e+01 -9.259714e+00 0.000000e+00
    endloop
  endfacet
  facet normal 4.212972e-31 -1.000000e+00 7.448971e-16
    outer loop
      vertex -1.400000e+01 -9.259714e+00 0.000000e+00
      vertex 1.743126e-01 -9.259714e+00 2.007611e+00
      vertex -1.743126e-01 -9.259714e+00 2.007611e+00
    endloop
  endfacet
  facet normal 4.212972e-31 -1.000000e+00 7.448971e-16
    outer loop
      vertex -1.400000e+01 -9.259714e+00 0.000000e+00
      vertex -1.743126e-01 -9.259714e+00 2.007611e+00
      vertex -5.176392e-01 -9.259714e+00 2.068149e+00
    endloop
  endfacet
  facet normal 4.212972e-31 -1.000000e+00 7.448971e-16
    outer loop
      vertex -9.828427e+00 -9.259714e+00 1.100000e+01
      vertex -1.400000e+01 -9.259714e+00 1.100000e+01
      vertex -1.414213e+00 -9.259714e+00 2.585788e+00
    endloop
  endfacet
  facet normal 4.212972e-31 -1.000000e+00 7.448971e-16
    outer loop
      vertex -1.414213e+00 -9.259714e+00 2.585788e+00
      vertex -1.400000e+01 -9.259714e+00 1.100000e+01
      vertex -1.400000e+01 -9.259714e+00 0.000000e+00
    endloop
  endfacet
  facet normal 4.212972e-31 -1.000000e+00 7.448971e-16
    outer loop
      vertex -1.414213e+00 -9.259714e+00 2.585788e+00
      vertex -1.400000e+01 -9.259714e+00 0.000000e+00
      vertex -1.147152e+00 -9.259714e+00 2.361696e+00
    endloop
  endfacet
  facet normal 4.212972e-31 -1.000000e+00 7.448971e-16
    outer loop
      vertex -1.147152e+00 -9.259714e+00 2.361696e+00
      vertex -1.400000e+01 -9.259714e+00 0.000000e+00
      vertex -8.452358e-01 -9.259714e+00 2.187385e+00
    endloop
  endfacet
  facet normal 0.000000e+00 -1.000000e+00 7.448971e-16
    outer loop
      vertex 0.000000e+00 5.259714e+00 2.000000e+00
      vertex -1.743126e-01 5.259714e+00 2.007611e+00
      vertex -1.400000e+01 5.259714e+00 2.000000e+00
    endloop
  endfacet
  facet normal 0.000000e+00 -1.000000e+00 7.448971e-16
    outer loop
      vertex -1.400000e+01 5.259714e+00 2.000000e+00
      vertex -1.743126e-01 5.259714e+00 2.007611e+00
      vertex -5.176392e-01 5.259714e+00 2.068149e+00
    endloop
  endfacet
  facet normal 0.000000e+00 -1.000000e+00 7.448971e-16
    outer loop
      vertex -1.400000e+01 5.259714e+00 2.000000e+00
      vertex -5.176392e-01 5.259714e+00 2.068149e+00
      vertex -8.452358e-01 5.259714e+00 2.187385e+00
    endloop
  endfacet
  facet normal 0.000000e+00 -1.000000e+00 7.448971e-16
    outer loop
      vertex -9.828427e+00 5.259714e+00 1.100000e+01
      vertex -1.400000e+01 5.259714e+00 1.100000e+01
      vertex -1.414213e+00 5.259714e+00 2.585788e+00
    endloop
  endfacet
  facet normal 0.000000e+00 -1.000000e+00 7.448971e-16
    outer loop
      vertex -1.414213e+00 5.259714e+00 2.585788e+00
      vertex -1.400000e+01 5.259714e+00 1.100000e+01
      vertex -1.400000e+01 5.259714e+00 2.000000e+00
    endloop
  endfacet
  facet normal 0.000000e+00 -1.000000e+00 7.448971e-16
    outer loop
      vertex -1.414213e+00 5.259714e+00 2.585788e+00
      vertex -1.400000e+01 5.259714e+00 2.000000e+00
      vertex -1.147152e+00 5.259714e+00 2.361696e+00
    endloop
  endfacet
  facet normal 0.000000e+00 -1.000000e+00 7.448971e-16
    outer loop
      vertex -1.147152e+00 5.259714e+00 2.361696e+00
      vertex -1.400000e+01 5.259714e+00 2.000000e+00
      vertex -8.452358e-01 5.259714e+00 2.187385e+00
    endloop
  endfacet
  facet normal 0.000000e+00 1.000000e+00 -7.448971e-16
    outer loop
      vertex -1.147152e+00 -5.259716e+00 2.361696e+00
      vertex -8.452358e-01 -5.259716e+00 2.187385e+00
      vertex -1.400000e+01 -5.259716e+00 2.000000e+00
    endloop
  endfacet
  facet normal 0.000000e+00 1.000000e+00 -7.448971e-16
    outer loop
      vertex -8.452358e-01 -5.259716e+00 2.187385e+00
      vertex -5.176392e-01 -5.259716e+00 2.068149e+00
      vertex -1.400000e+01 -5.259716e+00 2.000000e+00
    endloop
  endfacet
  facet normal 0.000000e+00 1.000000e+00 -7.448971e-16
    outer loop
      vertex -1.400000e+01 -5.259716e+00 2.000000e+00
      vertex -5.176392e-01 -5.259716e+00 2.068149e+00
      vertex -1.743126e-01 -5.259716e+00 2.007611e+00
    endloop
  endfacet
  facet normal 0.000000e+00 1.000000e+00 -7.448971e-16
    outer loop
      vertex -1.400000e+01 -5.259716e+00 2.000000e+00
      vertex -1.743126e-01 -5.259716e+00 2.007611e+00
      vertex 0.000000e+00 -5.259716e+00 2.000000e+00
    endloop
  endfacet
  facet normal 0.000000e+00 1.000000e+00 -7.448971e-16
    outer loop
      vertex -1.400000e+01 -5.259716e+00 1.100000e+01
      vertex -9.828427e+00 -5.259716e+00 1.100000e+01
      vertex -1.400000e+01 -5.259716e+00 2.000000e+00
    endloop
  endfacet
  facet normal 0.000000e+00 1.000000e+00 -7.448971e-16
    outer loop
      vertex -1.400000e+01 -5.259716e+00 2.000000e+00
      vertex -9.828427e+00 -5.259716e+00 1.100000e+01
      vertex -1.414213e+00 -5.259716e+00 2.585788e+00
    endloop
  endfacet
  facet normal 0.000000e+00 1.000000e+00 -7.448971e-16
    outer loop
      vertex -1.400000e+01 -5.259716e+00 2.000000e+00
      vertex -1.414213e+00 -5.259716e+00 2.585788e+00
      vertex -1.147152e+00 -5.259716e+00 2.361696e+00
    endloop
  endfacet
  facet normal 0.000000e+00 5.371619e-16 1.000000e+00
    outer loop
      vertex 1.138582e+01 -5.740247e-01 2.000000e+00
      vertex 1.124720e+01 -8.333554e-01 2.000000e+00
      vertex 1.400000e+01 -5.259716e+00 2.000000e+00
    endloop
  endfacet
  facet normal 0.000000e+00 5.371619e-16 1.000000e+00
    outer loop
      vertex 1.124720e+01 -8.333554e-01 2.000000e+00
      vertex 1.106066e+01 -1.060661e+00 2.000000e+00
      vertex 1.400000e+01 -5.259716e+00 2.000000e+00
    endloop
  endfacet
  facet normal 0.000000e+00 5.371619e-16 1.000000e+00
    outer loop
      vertex 1.400000e+01 -5.259716e+00 2.000000e+00
      vertex 1.106066e+01 -1.060661e+00 2.000000e+00
      vertex 1.083335e+01 -1.247204e+00 2.000000e+00
    endloop
  endfacet
  facet normal 0.000000e+00 5.371619e-16 1.000000e+00
    outer loop
      vertex 1.400000e+01 -5.259716e+00 2.000000e+00
      vertex 1.083335e+01 -1.247204e+00 2.000000e+00
      vertex 1.057402e+01 -1.385820e+00 2.000000e+00
    endloop
  endfacet
  facet normal 0.000000e+00 5.371619e-16 1.000000e+00
    outer loop
      vertex 9.425976e+00 -1.385820e+00 2.000000e+00
      vertex 9.166641e+00 -1.247204e+00 2.000000e+00
      vertex 0.000000e+00 -5.259716e+00 2.000000e+00
    endloop
  endfacet
  facet normal 0.000000e+00 5.371619e-16 1.000000e+00
    outer loop
      vertex 0.000000e+00 -5.259716e+00 2.000000e+00
      vertex 9.166641e+00 -1.247204e+00 2.000000e+00
      vertex 8.939342e+00 -1.060661e+00 2.000000e+00
    endloop
  endfacet
  facet normal 0.000000e+00 5.371619e-16 1.000000e+00
    outer loop
      vertex 0.000000e+00 -5.259716e+00 2.000000e+00
      vertex 8.939342e+00 -1.060661e+00 2.000000e+00
      vertex 8.752796e+00 -8.333554e-01 2.000000e+00
    endloop
  endfacet
  facet normal 0.000000e+00 5.371619e-16 1.000000e+00
    outer loop
      vertex -1.400000e+01 5.259714e+00 2.000000e+00
      vertex -1.138582e+01 5.740247e-01 2.000000e+00
      vertex -1.124720e+01 8.333554e-01 2.000000e+00
    endloop
  endfacet
  facet normal 0.000000e+00 5.371619e-16 1.000000e+00
    outer loop
      vertex 1.400000e+01 5.259714e+00 2.000000e+00
      vertex 1.124720e+01 8.333554e-01 2.000000e+00
      vertex 1.138582e+01 5.740247e-01 2.000000e+00
    endloop
  endfacet
  facet normal 0.000000e+00 5.371619e-16 1.000000e+00
    outer loop
      vertex 1.057402e+01 -1.385820e+00 2.000000e+00
      vertex 1.029263e+01 -1.471179e+00 2.000000e+00
      vertex 1.400000e+01 -5.259716e+00 2.000000e+00
    endloop
  endfacet
  facet normal 0.000000e+00 5.371619e-16 1.000000e+00
    outer loop
      vertex 1.400000e+01 -5.259716e+00 2.000000e+00
      vertex 1.029263e+01 -1.471179e+00 2.000000e+00
      vertex 1.000000e+01 -1.500000e+00 2.000000e+00
    endloop
  endfacet
  facet normal 0.000000e+00 5.371619e-16 1.000000e+00
    outer loop
      vertex 1.400000e+01 -5.259716e+00 2.000000e+00
      vertex 1.000000e+01 -1.500000e+00 2.000000e+00
      vertex 0.000000e+00 -5.259716e+00 2.000000e+00
    endloop
  endfacet
  facet normal 0.000000e+00 5.371619e-16 1.000000e+00
    outer loop
      vertex 0.000000e+00 -5.259716e+00 2.000000e+00
      vertex 1.000000e+01 -1.500000e+00 2.000000e+00
      vertex 9.707367e+00 -1.471179e+00 2.000000e+00
    endloop
  endfacet
  facet normal 0.000000e+00 5.371619e-16 1.000000e+00
    outer loop
      vertex 0.000000e+00 -5.259716e+00 2.000000e+00
      vertex 9.707367e+00 -1.471179e+00 2.000000e+00
      vertex 9.425976e+00 -1.385820e+00 2.000000e+00
    endloop
  endfacet
  facet normal 0.000000e+00 5.371619e-16 1.000000e+00
    outer loop
      vertex -1.029263e+01 -1.471179e+00 2.000000e+00
      vertex -1.057403e+01 -1.385820e+00 2.000000e+00
      vertex -1.400000e+01 -5.259716e+00 2.000000e+00
    endloop
  endfacet
  facet normal 0.000000e+00 5.371619e-16 1.000000e+00
    outer loop
      vertex -1.400000e+01 -5.259716e+00 2.000000e+00
      vertex -1.057403e+01 -1.385820e+00 2.000000e+00
      vertex -1.083336e+01 -1.247204e+00 2.000000e+00
    endloop
  endfacet
  facet normal 0.000000e+00 5.371619e-16 1.000000e+00
    outer loop
      vertex 8.752796e+00 8.333554e-01 2.000000e+00
      vertex 8.939342e+00 1.060660e+00 2.000000e+00
      vertex 0.000000e+00 5.259714e+00 2.000000e+00
    endloop
  endfacet
  facet normal 0.000000e+00 5.371619e-16 1.000000e+00
    outer loop
      vertex 0.000000e+00 5.259714e+00 2.000000e+00
      vertex 8.939342e+00 1.060660e+00 2.000000e+00
      vertex 9.166641e+00 1.247204e+00 2.000000e+00
    endloop
  endfacet
  facet normal 0.000000e+00 5.371619e-16 1.000000e+00
    outer loop
      vertex 1.138582e+01 5.740247e-01 2.000000e+00
      vertex 1.147118e+01 2.926345e-01 2.000000e+00
      vertex 1.400000e+01 5.259714e+00 2.000000e+00
    endloop
  endfacet
  facet normal 0.000000e+00 5.371619e-16 1.000000e+00
    outer loop
      vertex 1.400000e+01 5.259714e+00 2.000000e+00
      vertex 1.147118e+01 2.926345e-01 2.000000e+00
      vertex 1.150000e+01 -4.768372e-07 2.000000e+00
    endloop
  endfacet
  facet normal 0.000000e+00 5.371619e-16 1.000000e+00
    outer loop
      vertex 1.400000e+01 5.259714e+00 2.000000e+00
      vertex 1.150000e+01 -4.768372e-07 2.000000e+00
      vertex 1.400000e+01 -5.259716e+00 2.000000e+00
    endloop
  endfacet
  facet normal 0.000000e+00 5.371619e-16 1.000000e+00
    outer loop
      vertex 1.400000e+01 -5.259716e+00 2.000000e+00
      vertex 1.150000e+01 -4.768372e-07 2.000000e+00
      vertex 1.147118e+01 -2.926364e-01 2.000000e+00
    endloop
  endfacet
  facet normal 0.000000e+00 5.371619e-16 1.000000e+00
    outer loop
      vertex 1.400000e+01 -5.259716e+00 2.000000e+00
      vertex 1.147118e+01 -2.926364e-01 2.000000e+00
      vertex 1.138582e+01 -5.740247e-01 2.000000e+00
    endloop
  endfacet
  facet normal 0.000000e+00 5.371619e-16 1.000000e+00
    outer loop
      vertex -1.083336e+01 -1.247204e+00 2.000000e+00
      vertex -1.106066e+01 -1.060661e+00 2.000000e+00
      vertex -1.400000e+01 -5.259716e+00 2.000000e+00
    endloop
  endfacet
  facet normal 0.000000e+00 5.371619e-16 1.000000e+00
    outer loop
      vertex -1.400000e+01 -5.259716e+00 2.000000e+00
      vertex -1.106066e+01 -1.060661e+00 2.000000e+00
      vertex -1.124720e+01 -8.333554e-01 2.000000e+00
    endloop
  endfacet
  facet normal 0.000000e+00 5.371619e-16 1.000000e+00
    outer loop
      vertex -1.400000e+01 -5.259716e+00 2.000000e+00
      vertex -1.124720e+01 -8.333554e-01 2.000000e+00
      vertex -1.138582e+01 -5.740247e-01 2.000000e+00
    endloop
  endfacet
  facet normal 0.000000e+00 5.371619e-16 1.000000e+00
    outer loop
      vertex -1.124720e+01 8.333554e-01 2.000000e+00
      vertex -1.106066e+01 1.060660e+00 2.000000e+00
      vertex -1.400000e+01 5.259714e+00 2.000000e+00
    endloop
  endfacet
  facet normal 0.000000e+00 5.371619e-16 1.000000e+00
    outer loop
      vertex -1.400000e+01 5.259714e+00 2.000000e+00
      vertex -1.106066e+01 1.060660e+00 2.000000e+00
      vertex -1.083336e+01 1.247204e+00 2.000000e+00
    endloop
  endfacet
  facet normal 0.000000e+00 5.371619e-16 1.000000e+00
    outer loop
      vertex -1.400000e+01 5.259714e+00 2.000000e+00
      vertex -1.083336e+01 1.247204e+00 2.000000e+00
      vertex -1.057403e+01 1.385820e+00 2.000000e+00
    endloop
  endfacet
  facet normal 0.000000e+00 5.371619e-16 1.000000e+00
    outer loop
      vertex 1.400000e+01 5.259714e+00 2.000000e+00
      vertex 1.029263e+01 1.471178e+00 2.000000e+00
      vertex 1.057402e+01 1.385820e+00 2.000000e+00
    endloop
  endfacet
  facet normal 0.000000e+00 5.371619e-16 1.000000e+00
    outer loop
      vertex -1.138582e+01 -5.740247e-01 2.000000e+00
      vertex -1.147118e+01 -2.926364e-01 2.000000e+00
      vertex -1.400000e+01 -5.259716e+00 2.000000e+00
    endloop
  endfacet
  facet normal 0.000000e+00 5.371619e-16 1.000000e+00
    outer loop
      vertex -1.400000e+01 -5.259716e+00 2.000000e+00
      vertex -1.147118e+01 -2.926364e-01 2.000000e+00
      vertex -1.150000e+01 -4.768372e-07 2.000000e+00
    endloop
  endfacet
  facet normal 0.000000e+00 5.371619e-16 1.000000e+00
    outer loop
      vertex -1.400000e+01 -5.259716e+00 2.000000e+00
      vertex -1.150000e+01 -4.768372e-07 2.000000e+00
      vertex -1.400000e+01 5.259714e+00 2.000000e+00
    endloop
  endfacet
  facet normal 0.000000e+00 5.371619e-16 1.000000e+00
    outer loop
      vertex -1.400000e+01 5.259714e+00 2.000000e+00
      vertex -1.150000e+01 -4.768372e-07 2.000000e+00
      vertex -1.147118e+01 2.926345e-01 2.000000e+00
    endloop
  endfacet
  facet normal 0.000000e+00 5.371619e-16 1.000000e+00
    outer loop
      vertex -1.400000e+01 5.259714e+00 2.000000e+00
      vertex -1.147118e+01 2.926345e-01 2.000000e+00
      vertex -1.138582e+01 5.740247e-01 2.000000e+00
    endloop
  endfacet
  facet normal 0.000000e+00 5.371619e-16 1.000000e+00
    outer loop
      vertex 9.166641e+00 1.247204e+00 2.000000e+00
      vertex 9.425976e+00 1.385820e+00 2.000000e+00
      vertex 0.000000e+00 5.259714e+00 2.000000e+00
    endloop
  endfacet
  facet normal 0.000000e+00 5.371619e-16 1.000000e+00
    outer loop
      vertex 0.000000e+00 5.259714e+00 2.000000e+00
      vertex 9.425976e+00 1.385820e+00 2.000000e+00
      vertex 9.707367e+00 1.471178e+00 2.000000e+00
    endloop
  endfacet
  facet normal 0.000000e+00 5.371619e-16 1.000000e+00
    outer loop
      vertex 0.000000e+00 5.259714e+00 2.000000e+00
      vertex 9.707367e+00 1.471178e+00 2.000000e+00
      vertex 1.400000e+01 5.259714e+00 2.000000e+00
    endloop
  endfacet
  facet normal 0.000000e+00 5.371619e-16 1.000000e+00
    outer loop
      vertex 1.400000e+01 5.259714e+00 2.000000e+00
      vertex 9.707367e+00 1.471178e+00 2.000000e+00
      vertex 1.000000e+01 1.500000e+00 2.000000e+00
    endloop
  endfacet
  facet normal 0.000000e+00 5.371619e-16 1.000000e+00
    outer loop
      vertex 1.400000e+01 5.259714e+00 2.000000e+00
      vertex 1.000000e+01 1.500000e+00 2.000000e+00
      vertex 1.029263e+01 1.471178e+00 2.000000e+00
    endloop
  endfacet
  facet normal 0.000000e+00 5.371619e-16 1.000000e+00
    outer loop
      vertex 1.057402e+01 1.385820e+00 2.000000e+00
      vertex 1.083335e+01 1.247204e+00 2.000000e+00
      vertex 1.400000e+01 5.259714e+00 2.000000e+00
    endloop
  endfacet
  facet normal 0.000000e+00 5.371619e-16 1.000000e+00
    outer loop
      vertex 1.400000e+01 5.259714e+00 2.000000e+00
      vertex 1.083335e+01 1.247204e+00 2.000000e+00
      vertex 1.106066e+01 1.060660e+00 2.000000e+00
    endloop
  endfacet
  facet normal 0.000000e+00 5.371619e-16 1.000000e+00
    outer loop
      vertex 1.400000e+01 5.259714e+00 2.000000e+00
      vertex 1.106066e+01 1.060660e+00 2.000000e+00
      vertex 1.124720e+01 8.333554e-01 2.000000e+00
    endloop
  endfacet
  facet normal 0.000000e+00 5.371619e-16 1.000000e+00
    outer loop
      vertex -1.057403e+01 1.385820e+00 2.000000e+00
      vertex -1.029263e+01 1.471178e+00 2.000000e+00
      vertex -1.400000e+01 5.259714e+00 2.000000e+00
    endloop
  endfacet
  facet normal 0.000000e+00 5.371619e-16 1.000000e+00
    outer loop
      vertex -1.400000e+01 5.259714e+00 2.000000e+00
      vertex -1.029263e+01 1.471178e+00 2.000000e+00
      vertex -1.000000e+01 1.500000e+00 2.000000e+00
    endloop
  endfacet
  facet normal 0.000000e+00 5.371619e-16 1.000000e+00
    outer loop
      vertex -1.400000e+01 5.259714e+00 2.000000e+00
      vertex -1.000000e+01 1.500000e+00 2.000000e+00
      vertex 0.000000e+00 5.259714e+00 2.000000e+00
    endloop
  endfacet
  facet normal 0.000000e+00 5.371619e-16 1.000000e+00
    outer loop
      vertex 0.000000e+00 5.259714e+00 2.000000e+00
      vertex -1.000000e+01 1.500000e+00 2.000000e+00
      vertex -9.707365e+00 1.471178e+00 2.000000e+00
    endloop
  endfacet
  facet normal 0.000000e+00 5.371619e-16 1.000000e+00
    outer loop
      vertex -9.707365e+00 1.471178e+00 2.000000e+00
      vertex -9.425976e+00 1.385820e+00 2.000000e+00
      vertex 0.000000e+00 5.259714e+00 2.000000e+00
    endloop
  endfacet
  facet normal 0.000000e+00 5.371619e-16 1.000000e+00
    outer loop
      vertex 0.000000e+00 5.259714e+00 2.000000e+00
      vertex -9.425976e+00 1.385820e+00 2.000000e+00
      vertex -9.166645e+00 1.247204e+00 2.000000e+00
    endloop
  endfacet
  facet normal 0.000000e+00 5.371619e-16 1.000000e+00
    outer loop
      vertex 0.000000e+00 5.259714e+00 2.000000e+00
      vertex -9.166645e+00 1.247204e+00 2.000000e+00
      vertex -8.939341e+00 1.060660e+00 2.000000e+00
    endloop
  endfacet
  facet normal 0.000000e+00 5.371619e-16 1.000000e+00
    outer loop
      vertex -8.939341e+00 1.060660e+00 2.000000e+00
      vertex -8.752794e+00 8.333554e-01 2.000000e+00
      vertex 0.000000e+00 5.259714e+00 2.000000e+00
    endloop
  endfacet
  facet normal 0.000000e+00 5.371619e-16 1.000000e+00
    outer loop
      vertex 0.000000e+00 5.259714e+00 2.000000e+00
      vertex -8.752794e+00 8.333554e-01 2.000000e+00
      vertex -8.614182e+00 5.740247e-01 2.000000e+00
    endloop
  endfacet
  facet normal 0.000000e+00 5.371619e-16 1.000000e+00
    outer loop
      vertex 0.000000e+00 5.259714e+00 2.000000e+00
      vertex -8.614182e+00 5.740247e-01 2.000000e+00
      vertex 8.752796e+00 8.333554e-01 2.000000e+00
    endloop
  endfacet
  facet normal 0.000000e+00 5.371619e-16 1.000000e+00
    outer loop
      vertex 8.752796e+00 8.333554e-01 2.000000e+00
      vertex -8.614182e+00 5.740247e-01 2.000000e+00
      vertex -8.528824e+00 2.926345e-01 2.000000e+00
    endloop
  endfacet
  facet normal 0.000000e+00 5.371619e-16 1.000000e+00
    outer loop
      vertex 8.752796e+00 8.333554e-01 2.000000e+00
      vertex -8.528824e+00 2.926345e-01 2.000000e+00
      vertex 8.614182e+00 5.740247e-01 2.000000e+00
    endloop
  endfacet
  facet normal 0.000000e+00 5.371619e-16 1.000000e+00
    outer loop
      vertex 0.000000e+00 -5.259716e+00 2.000000e+00
      vertex -8.752794e+00 -8.333554e-01 2.000000e+00
      vertex -8.939341e+00 -1.060661e+00 2.000000e+00
    endloop
  endfacet
  facet normal 0.000000e+00 5.371619e-16 1.000000e+00
    outer loop
      vertex 0.000000e+00 -5.259716e+00 2.000000e+00
      vertex -9.707365e+00 -1.471179e+00 2.000000e+00
      vertex -1.400000e+01 -5.259716e+00 2.000000e+00
    endloop
  endfacet
  facet normal 0.000000e+00 5.371619e-16 1.000000e+00
    outer loop
      vertex -1.400000e+01 -5.259716e+00 2.000000e+00
      vertex -9.707365e+00 -1.471179e+00 2.000000e+00
      vertex -1.000000e+01 -1.500000e+00 2.000000e+00
    endloop
  endfacet
  facet normal 0.000000e+00 5.371619e-16 1.000000e+00
    outer loop
      vertex -1.400000e+01 -5.259716e+00 2.000000e+00
      vertex -1.000000e+01 -1.500000e+00 2.000000e+00
      vertex -1.029263e+01 -1.471179e+00 2.000000e+00
    endloop
  endfacet
  facet normal 0.000000e+00 5.371619e-16 1.000000e+00
    outer loop
      vertex -8.939341e+00 -1.060661e+00 2.000000e+00
      vertex -9.166645e+00 -1.247204e+00 2.000000e+00
      vertex 0.000000e+00 -5.259716e+00 2.000000e+00
    endloop
  endfacet
  facet normal 0.000000e+00 5.371619e-16 1.000000e+00
    outer loop
      vertex 0.000000e+00 -5.259716e+00 2.000000e+00
      vertex -9.166645e+00 -1.247204e+00 2.000000e+00
      vertex -9.425976e+00 -1.385820e+00 2.000000e+00
    endloop
  endfacet
  facet normal 0.000000e+00 5.371619e-16 1.000000e+00
    outer loop
      vertex 0.000000e+00 -5.259716e+00 2.000000e+00
      vertex -9.425976e+00 -1.385820e+00 2.000000e+00
      vertex -9.707365e+00 -1.471179e+00 2.000000e+00
    endloop
  endfacet
  facet normal 0.000000e+00 5.371619e-16 1.000000e+00
    outer loop
      vertex 8.752796e+00 -8.333554e-01 2.000000e+00
      vertex -8.528824e+00 -2.926364e-01 2.000000e+00
      vertex 0.000000e+00 -5.259716e+00 2.000000e+00
    endloop
  endfacet
  facet normal 0.000000e+00 5.371619e-16 1.000000e+00
    outer loop
      vertex 0.000000e+00 -5.259716e+00 2.000000e+00
      vertex -8.528824e+00 -2.926364e-01 2.000000e+00
      vertex -8.614182e+00 -5.740247e-01 2.000000e+00
    endloop
  endfacet
  facet normal 0.000000e+00 5.371619e-16 1.000000e+00
    outer loop
      vertex 0.000000e+00 -5.259716e+00 2.000000e+00
      vertex -8.614182e+00 -5.740247e-01 2.000000e+00
      vertex -8.752794e+00 -8.333554e-01 2.000000e+00
    endloop
  endfacet
  facet normal 0.000000e+00 5.371619e-16 1.000000e+00
    outer loop
      vertex 8.752796e+00 -8.333554e-01 2.000000e+00
      vertex 8.614182e+00 -5.740247e-01 2.000000e+00
      vertex -8.528824e+00 -2.926364e-01 2.000000e+00
    endloop
  endfacet
  facet normal 0.000000e+00 5.371619e-16 1.000000e+00
    outer loop
      vertex -8.528824e+00 -2.926364e-01 2.000000e+00
      vertex 8.614182e+00 -5.740247e-01 2.000000e+00
      vertex 8.528820e+00 -2.926364e-01 2.000000e+00
    endloop
  endfacet
  facet normal 0.000000e+00 5.371619e-16 1.000000e+00
    outer loop
      vertex -8.528824e+00 -2.926364e-01 2.000000e+00
      vertex 8.528820e+00 -2.926364e-01 2.000000e+00
      vertex -8.500000e+00 -4.768372e-07 2.000000e+00
    endloop
  endfacet
  facet normal 0.000000e+00 5.371619e-16 1.000000e+00
    outer loop
      vertex -8.500000e+00 -4.768372e-07 2.000000e+00
      vertex 8.528820e+00 -2.926364e-01 2.000000e+00
      vertex 8.500000e+00 -4.768372e-07 2.000000e+00
    endloop
  endfacet
  facet normal 0.000000e+00 5.371619e-16 1.000000e+00
    outer loop
      vertex -8.500000e+00 -4.768372e-07 2.000000e+00
      vertex 8.500000e+00 -4.768372e-07 2.000000e+00
      vertex -8.528824e+00 2.926345e-01 2.000000e+00
    endloop
  endfacet
  facet normal 0.000000e+00 5.371619e-16 1.000000e+00
    outer loop
      vertex -8.528824e+00 2.926345e-01 2.000000e+00
      vertex 8.500000e+00 -4.768372e-07 2.000000e+00
      vertex 8.528820e+00 2.926345e-01 2.000000e+00
    endloop
  endfacet
  facet normal 0.000000e+00 5.371619e-16 1.000000e+00
    outer loop
      vertex -8.528824e+00 2.926345e-01 2.000000e+00
      vertex 8.528820e+00 2.926345e-01 2.000000e+00
      vertex 8.614182e+00 5.740247e-01 2.000000e+00
    endloop
  endfacet
  facet normal 0.000000e+00 -1.000000e+00 7.448971e-16
    outer loop
      vertex 1.147152e+00 5.259714e+00 2.361696e+00
      vertex 8.452358e-01 5.259714e+00 2.187385e+00
      vertex 1.400000e+01 5.259714e+00 2.000000e+00
    endloop
  endfacet
  facet normal 0.000000e+00 -1.000000e+00 7.448971e-16
    outer loop
      vertex 8.452358e-01 5.259714e+00 2.187385e+00
      vertex 5.176392e-01 5.259714e+00 2.068149e+00
      vertex 1.400000e+01 5.259714e+00 2.000000e+00
    endloop
  endfacet
  facet normal 0.000000e+00 -1.000000e+00 7.448971e-16
    outer loop
      vertex 1.400000e+01 5.259714e+00 2.000000e+00
      vertex 5.176392e-01 5.259714e+00 2.068149e+00
      vertex 1.743126e-01 5.259714e+00 2.007611e+00
    endloop
  endfacet
  facet normal 0.000000e+00 -1.000000e+00 7.448971e-16
    outer loop
      vertex 1.400000e+01 5.259714e+00 2.000000e+00
      vertex 1.743126e-01 5.259714e+00 2.007611e+00
      vertex 0.000000e+00 5.259714e+00 2.000000e+00
    endloop
  endfacet
  facet normal 0.000000e+00 -1.000000e+00 7.448971e-16
    outer loop
      vertex 1.400000e+01 5.259714e+00 1.100000e+01
      vertex 9.828426e+00 5.259714e+00 1.100000e+01
      vertex 1.400000e+01 5.259714e+00 2.000000e+00
    endloop
  endfacet
  facet normal 0.000000e+00 -1.000000e+00 7.448971e-16
    outer loop
      vertex 1.400000e+01 5.259714e+00 2.000000e+00
      vertex 9.828426e+00 5.259714e+00 1.100000e+01
      vertex 1.414213e+00 5.259714e+00 2.585788e+00
    endloop
  endfacet
  facet normal 0.000000e+00 -1.000000e+00 7.448971e-16
    outer loop
      vertex 1.400000e+01 5.259714e+00 2.000000e+00
      vertex 1.414213e+00 5.259714e+00 2.585788e+00
      vertex 1.147152e+00 5.259714e+00 2.361696e+00
    endloop
  endfacet
  facet normal 0.000000e+00 1.000000e+00 -7.448971e-16
    outer loop
      vertex 0.000000e+00 -5.259716e+00 2.000000e+00
      vertex 1.743126e-01 -5.259716e+00 2.007611e+00
      vertex 1.400000e+01 -5.259716e+00 2.000000e+00
    endloop
  endfacet
  facet normal 0.000000e+00 1.000000e+00 -7.448971e-16
    outer loop
      vertex 1.400000e+01 -5.259716e+00 2.000000e+00
      vertex 1.743126e-01 -5.259716e+00 2.007611e+00
      vertex 5.176392e-01 -5.259716e+00 2.068149e+00
    endloop
  endfacet
  facet normal 0.000000e+00 1.000000e+00 -7.448971e-16
    outer loop
      vertex 1.400000e+01 -5.259716e+00 2.000000e+00
      vertex 5.176392e-01 -5.259716e+00 2.068149e+00
      vertex 8.452358e-01 -5.259716e+00 2.187385e+00
    endloop
  endfacet
  facet normal 0.000000e+00 1.000000e+00 -7.448971e-16
    outer loop
      vertex 9.828426e+00 -5.259716e+00 1.100000e+01
      vertex 1.400000e+01 -5.259716e+00 1.100000e+01
      vertex 1.414213e+00 -5.259716e+00 2.585788e+00
    endloop
  endfacet
  facet normal 0.000000e+00 1.000000e+00 -7.448971e-16
    outer loop
      vertex 1.414213e+00 -5.259716e+00 2.585788e+00
      vertex 1.400000e+01 -5.259716e+00 1.100000e+01
      vertex 1.400000e+01 -5.259716e+00 2.000000e+00
    endloop
  endfacet
  facet normal 0.000000e+00 1.000000e+00 -7.448971e-16
    outer loop
      vertex 1.414213e+00 -5.259716e+00 2.585788e+00
      vertex 1.400000e+01 -5.259716e+00 2.000000e+00
      vertex 1.147152e+00 -5.259716e+00 2.361696e+00
    endloop
  endfacet
  facet normal 0.000000e+00 1.000000e+00 -7.448971e-16
    outer loop
      vertex 1.147152e+00 -5.259716e+00 2.361696e+00
      vertex 1.400000e+01 -5.259716e+00 2.000000e+00
      vertex 8.452358e-01 -5.259716e+00 2.187385e+00
    endloop
  endfacet
  facet normal 6.530957e-02 9.978651e-01 -6.794401e-16
    outer loop
      vertex -1.029263e+01 -1.471179e+00 0.000000e+00
      vertex -1.000000e+01 -1.500000e+00 2.000000e+00
      vertex -1.000000e+01 -1.500000e+00 0.000000e+00
    endloop
  endfacet
  facet normal -6.530957e-02 9.978651e-01 -6.794401e-16
    outer loop
      vertex -1.000000e+01 -1.500000e+00 0.000000e+00
      vertex -1.000000e+01 -1.500000e+00 2.000000e+00
      vertex -9.707365e+00 -1.471179e+00 2.000000e+00
    endloop
  endfacet
  facet normal -1.306191e-01 9.914326e-01 -6.750603e-16
    outer loop
      vertex -1.000000e+01 -1.500000e+00 0.000000e+00
      vertex -9.707365e+00 -1.471179e+00 2.000000e+00
      vertex -9.707365e+00 -1.471179e+00 0.000000e+00
    endloop
  endfacet
  facet normal -2.587285e-01 9.659501e-01 -6.577095e-16
    outer loop
      vertex -9.707365e+00 -1.471179e+00 0.000000e+00
      vertex -9.707365e+00 -1.471179e+00 2.000000e+00
      vertex -9.425976e+00 -1.385820e+00 2.000000e+00
    endloop
  endfacet
  facet normal -3.215283e-01 9.469000e-01 -6.447384e-16
    outer loop
      vertex -9.707365e+00 -1.471179e+00 0.000000e+00
      vertex -9.425976e+00 -1.385820e+00 2.000000e+00
      vertex -9.425976e+00 -1.385820e+00 0.000000e+00
    endloop
  endfacet
  facet normal -4.422047e-01 8.969142e-01 -6.107033e-16
    outer loop
      vertex -9.425976e+00 -1.385820e+00 0.000000e+00
      vertex -9.425976e+00 -1.385820e+00 2.000000e+00
      vertex -9.166645e+00 -1.247204e+00 2.000000e+00
    endloop
  endfacet
  facet normal -5.000812e-01 8.659785e-01 -5.896394e-16
    outer loop
      vertex -9.425976e+00 -1.385820e+00 0.000000e+00
      vertex -9.166645e+00 -1.247204e+00 2.000000e+00
      vertex -9.166645e+00 -1.247204e+00 0.000000e+00
    endloop
  endfacet
  facet normal -6.086870e-01 7.934104e-01 -5.402282e-16
    outer loop
      vertex -9.166645e+00 -1.247204e+00 0.000000e+00
      vertex -9.166645e+00 -1.247204e+00 2.000000e+00
      vertex -8.939341e+00 -1.060661e+00 2.000000e+00
    endloop
  endfacet
  facet normal -6.594163e-01 7.517779e-01 -5.118810e-16
    outer loop
      vertex -9.166645e+00 -1.247204e+00 0.000000e+00
      vertex -8.939341e+00 -1.060661e+00 2.000000e+00
      vertex -8.939341e+00 -1.060661e+00 0.000000e+00
    endloop
  endfacet
  facet normal -7.517779e-01 6.594163e-01 -4.489924e-16
    outer loop
      vertex -8.939341e+00 -1.060661e+00 0.000000e+00
      vertex -8.939341e+00 -1.060661e+00 2.000000e+00
      vertex -8.752794e+00 -8.333554e-01 2.000000e+00
    endloop
  endfacet
  facet normal -7.934104e-01 6.086870e-01 -4.144513e-16
    outer loop
      vertex -8.939341e+00 -1.060661e+00 0.000000e+00
      vertex -8.752794e+00 -8.333554e-01 2.000000e+00
      vertex -8.752794e+00 -8.333554e-01 0.000000e+00
    endloop
  endfacet
  facet normal -8.659785e-01 5.000812e-01 -3.405022e-16
    outer loop
      vertex -8.752794e+00 -8.333554e-01 0.000000e+00
      vertex -8.752794e+00 -8.333554e-01 2.000000e+00
      vertex -8.614182e+00 -5.740247e-01 2.000000e+00
    endloop
  endfacet
  facet normal -8.969142e-01 4.422046e-01 -3.010944e-16
    outer loop
      vertex -8.752794e+00 -8.333554e-01 0.000000e+00
      vertex -8.614182e+00 -5.740247e-01 2.000000e+00
      vertex -8.614182e+00 -5.740247e-01 0.000000e+00
    endloop
  endfacet
  facet normal -9.469000e-01 3.215283e-01 -2.189266e-16
    outer loop
      vertex -8.614182e+00 -5.740247e-01 0.000000e+00
      vertex -8.614182e+00 -5.740247e-01 2.000000e+00
      vertex -8.528824e+00 -2.926364e-01 2.000000e+00
    endloop
  endfacet
  facet normal -9.659501e-01 2.587285e-01 -1.761666e-16
    outer loop
      vertex -8.614182e+00 -5.740247e-01 0.000000e+00
      vertex -8.528824e+00 -2.926364e-01 2.000000e+00
      vertex -8.528824e+00 -2.926364e-01 0.000000e+00
    endloop
  endfacet
  facet normal -9.914326e-01 1.306191e-01 -8.893776e-17
    outer loop
      vertex -8.528824e+00 -2.926364e-01 0.000000e+00
      vertex -8.528824e+00 -2.926364e-01 2.000000e+00
      vertex -8.500000e+00 -4.768372e-07 2.000000e+00
    endloop
  endfacet
  facet normal -9.978651e-01 6.530957e-02 -4.446888e-17
    outer loop
      vertex -8.528824e+00 -2.926364e-01 0.000000e+00
      vertex -8.500000e+00 -4.768372e-07 2.000000e+00
      vertex -8.500000e+00 -4.768372e-07 0.000000e+00
    endloop
  endfacet
  facet normal -9.978651e-01 -6.530957e-02 4.446888e-17
    outer loop
      vertex -8.500000e+00 -4.768372e-07 0.000000e+00
      vertex -8.500000e+00 -4.768372e-07 2.000000e+00
      vertex -8.528824e+00 2.926345e-01 2.000000e+00
    endloop
  endfacet
  facet normal -9.914326e-01 -1.306191e-01 8.893776e-17
    outer loop
      vertex -8.500000e+00 -4.768372e-07 0.000000e+00
      vertex -8.528824e+00 2.926345e-01 2.000000e+00
      vertex -8.528824e+00 2.926345e-01 0.000000e+00
    endloop
  endfacet
  facet normal -9.659501e-01 -2.587285e-01 1.761666e-16
    outer loop
      vertex -8.528824e+00 2.926345e-01 0.000000e+00
      vertex -8.528824e+00 2.926345e-01 2.000000e+00
      vertex -8.614182e+00 5.740247e-01 2.000000e+00
    endloop
  endfacet
  facet normal -9.469000e-01 -3.215283e-01 2.189266e-16
    outer loop
      vertex -8.528824e+00 2.926345e-01 0.000000e+00
      vertex -8.614182e+00 5.740247e-01 2.000000e+00
      vertex -8.614182e+00 5.740247e-01 0.000000e+00
    endloop
  endfacet
  facet normal -8.969142e-01 -4.422047e-01 3.010944e-16
    outer loop
      vertex -8.614182e+00 5.740247e-01 0.000000e+00
      vertex -8.614182e+00 5.740247e-01 2.000000e+00
      vertex -8.752794e+00 8.333554e-01 2.000000e+00
    endloop
  endfacet
  facet normal -8.659785e-01 -5.000812e-01 3.405022e-16
    outer loop
      vertex -8.614182e+00 5.740247e-01 0.000000e+00
      vertex -8.752794e+00 8.333554e-01 2.000000e+00
      vertex -8.752794e+00 8.333554e-01 0.000000e+00
    endloop
  endfacet
  facet normal -7.934104e-01 -6.086870e-01 4.144512e-16
    outer loop
      vertex -8.752794e+00 8.333554e-01 0.000000e+00
      vertex -8.752794e+00 8.333554e-01 2.000000e+00
      vertex -8.939341e+00 1.060660e+00 2.000000e+00
    endloop
  endfacet
  facet normal -7.517779e-01 -6.594163e-01 4.489924e-16
    outer loop
      vertex -8.752794e+00 8.333554e-01 0.000000e+00
      vertex -8.939341e+00 1.060660e+00 2.000000e+00
      vertex -8.939341e+00 1.060660e+00 0.000000e+00
    endloop
  endfacet
  facet normal -6.594163e-01 -7.517779e-01 5.118810e-16
    outer loop
      vertex -8.939341e+00 1.060660e+00 0.000000e+00
      vertex -8.939341e+00 1.060660e+00 2.000000e+00
      vertex -9.166645e+00 1.247204e+00 2.000000e+00
    endloop
  endfacet
  facet normal -6.086870e-01 -7.934104e-01 5.402283e-16
    outer loop
      vertex -8.939341e+00 1.060660e+00 0.000000e+00
      vertex -9.166645e+00 1.247204e+00 2.000000e+00
      vertex -9.166645e+00 1.247204e+00 0.000000e+00
    endloop
  endfacet
  facet normal -5.000812e-01 -8.659785e-01 5.896394e-16
    outer loop
      vertex -9.166645e+00 1.247204e+00 0.000000e+00
      vertex -9.166645e+00 1.247204e+00 2.000000e+00
      vertex -9.425976e+00 1.385820e+00 2.000000e+00
    endloop
  endfacet
  facet normal -4.422046e-01 -8.969142e-01 6.107033e-16
    outer loop
      vertex -9.166645e+00 1.247204e+00 0.000000e+00
      vertex -9.425976e+00 1.385820e+00 2.000000e+00
      vertex -9.425976e+00 1.385820e+00 0.000000e+00
    endloop
  endfacet
  facet normal -3.215283e-01 -9.469000e-01 6.447384e-16
    outer loop
      vertex -9.425976e+00 1.385820e+00 0.000000e+00
      vertex -9.425976e+00 1.385820e+00 2.000000e+00
      vertex -9.707365e+00 1.471178e+00 2.000000e+00
    endloop
  endfacet
  facet normal -2.587285e-01 -9.659501e-01 6.577095e-16
    outer loop
      vertex -9.425976e+00 1.385820e+00 0.000000e+00
      vertex -9.707365e+00 1.471178e+00 2.000000e+00
      vertex -9.707365e+00 1.471178e+00 0.000000e+00
    endloop
  endfacet
  facet normal -1.306191e-01 -9.914326e-01 6.750603e-16
    outer loop
      vertex -9.707365e+00 1.471178e+00 0.000000e+00
      vertex -9.707365e+00 1.471178e+00 2.000000e+00
      vertex -1.000000e+01 1.500000e+00 2.000000e+00
    endloop
  endfacet
  facet normal -6.530957e-02 -9.978651e-01 6.794401e-16
    outer loop
      vertex -9.707365e+00 1.471178e+00 0.000000e+00
      vertex -1.000000e+01 1.500000e+00 2.000000e+00
      vertex -1.000000e+01 1.500000e+00 0.000000e+00
    endloop
  endfacet
  facet normal 6.530957e-02 -9.978651e-01 6.794401e-16
    outer loop
      vertex -1.000000e+01 1.500000e+00 0.000000e+00
      vertex -1.000000e+01 1.500000e+00 2.000000e+00
      vertex -1.029263e+01 1.471178e+00 2.000000e+00
    endloop
  endfacet
  facet normal 1.306191e-01 -9.914326e-01 6.750603e-16
    outer loop
      vertex -1.000000e+01 1.500000e+00 0.000000e+00
      vertex -1.029263e+01 1.471178e+00 2.000000e+00
      vertex -1.029263e+01 1.471178e+00 0.000000e+00
    endloop
  endfacet
  facet normal 2.587285e-01 -9.659501e-01 6.577095e-16
    outer loop
      vertex -1.029263e+01 1.471178e+00 0.000000e+00
      vertex -1.029263e+01 1.471178e+00 2.000000e+00
      vertex -1.057403e+01 1.385820e+00 2.000000e+00
    endloop
  endfacet
  facet normal 3.215283e-01 -9.469000e-01 6.447384e-16
    outer loop
      vertex -1.029263e+01 1.471178e+00 0.000000e+00
      vertex -1.057403e+01 1.385820e+00 2.000000e+00
      vertex -1.057403e+01 1.385820e+00 0.000000e+00
    endloop
  endfacet
  facet normal 4.422047e-01 -8.969142e-01 6.107033e-16
    outer loop
      vertex -1.057403e+01 1.385820e+00 0.000000e+00
      vertex -1.057403e+01 1.385820e+00 2.000000e+00
      vertex -1.083336e+01 1.247204e+00 2.000000e+00
    endloop
  endfacet
  facet normal 5.000812e-01 -8.659785e-01 5.896394e-16
    outer loop
      vertex -1.057403e+01 1.385820e+00 0.000000e+00
      vertex -1.083336e+01 1.247204e+00 2.000000e+00
      vertex -1.083336e+01 1.247204e+00 0.000000e+00
    endloop
  endfacet
  facet normal 6.086870e-01 -7.934104e-01 5.402282e-16
    outer loop
      vertex -1.083336e+01 1.247204e+00 0.000000e+00
      vertex -1.083336e+01 1.247204e+00 2.000000e+00
      vertex -1.106066e+01 1.060660e+00 2.000000e+00
    endloop
  endfacet
  facet normal 6.594163e-01 -7.517779e-01 5.118810e-16
    outer loop
      vertex -1.083336e+01 1.247204e+00 0.000000e+00
      vertex -1.106066e+01 1.060660e+00 2.000000e+00
      vertex -1.106066e+01 1.060660e+00 0.000000e+00
    endloop
  endfacet
  facet normal 7.517779e-01 -6.594163e-01 4.489924e-16
    outer loop
      vertex -1.106066e+01 1.060660e+00 0.000000e+00
      vertex -1.106066e+01 1.060660e+00 2.000000e+00
      vertex -1.124720e+01 8.333554e-01 2.000000e+00
    endloop
  endfacet
  facet normal 7.934104e-01 -6.086870e-01 4.144513e-16
    outer loop
      vertex -1.106066e+01 1.060660e+00 0.000000e+00
      vertex -1.124720e+01 8.333554e-01 2.000000e+00
      vertex -1.124720e+01 8.333554e-01 0.000000e+00
    endloop
  endfacet
  facet normal 8.659785e-01 -5.000812e-01 3.405022e-16
    outer loop
      vertex -1.124720e+01 8.333554e-01 0.000000e+00
      vertex -1.124720e+01 8.333554e-01 2.000000e+00
      vertex -1.138582e+01 5.740247e-01 2.000000e+00
    endloop
  endfacet
  facet normal 8.969142e-01 -4.422046e-01 3.010944e-16
    outer loop
      vertex -1.124720e+01 8.333554e-01 0.000000e+00
      vertex -1.138582e+01 5.740247e-01 2.000000e+00
      vertex -1.138582e+01 5.740247e-01 0.000000e+00
    endloop
  endfacet
  facet normal 9.469000e-01 -3.215283e-01 2.189266e-16
    outer loop
      vertex -1.138582e+01 5.740247e-01 0.000000e+00
      vertex -1.138582e+01 5.740247e-01 2.000000e+00
      vertex -1.147118e+01 2.926345e-01 2.000000e+00
    endloop
  endfacet
  facet normal 9.659501e-01 -2.587285e-01 1.761666e-16
    outer loop
      vertex -1.138582e+01 5.740247e-01 0.000000e+00
      vertex -1.147118e+01 2.926345e-01 2.000000e+00
      vertex -1.147118e+01 2.926345e-01 0.000000e+00
    endloop
  endfacet
  facet normal 9.914326e-01 -1.306191e-01 8.893776e-17
    outer loop
      vertex -1.147118e+01 2.926345e-01 0.000000e+00
      vertex -1.147118e+01 2.926345e-01 2.000000e+00
      vertex -1.150000e+01 -4.768372e-07 2.000000e+00
    endloop
  endfacet
  facet normal 9.978651e-01 -6.530957e-02 4.446888e-17
    outer loop
      vertex -1.147118e+01 2.926345e-01 0.000000e+00
      vertex -1.150000e+01 -4.768372e-07 2.000000e+00
      vertex -1.150000e+01 -4.768372e-07 0.000000e+00
    endloop
  endfacet
  facet normal 9.978651e-01 6.530957e-02 -4.446888e-17
    outer loop
      vertex -1.150000e+01 -4.768372e-07 0.000000e+00
      vertex -1.150000e+01 -4.768372e-07 2.000000e+00
      vertex -1.147118e+01 -2.926364e-01 2.000000e+00
    endloop
  endfacet
  facet normal 9.914326e-01 1.306191e-01 -8.893776e-17
    outer loop
      vertex -1.150000e+01 -4.768372e-07 0.000000e+00
      vertex -1.147118e+01 -2.926364e-01 2.000000e+00
      vertex -1.147118e+01 -2.926364e-01 0.000000e+00
    endloop
  endfacet
  facet normal 9.659501e-01 2.587285e-01 -1.761666e-16
    outer loop
      vertex -1.147118e+01 -2.926364e-01 0.000000e+00
      vertex -1.147118e+01 -2.926364e-01 2.000000e+00
      vertex -1.138582e+01 -5.740247e-01 2.000000e+00
    endloop
  endfacet
  facet normal 9.469000e-01 3.215283e-01 -2.189266e-16
    outer loop
      vertex -1.147118e+01 -2.926364e-01 0.000000e+00
      vertex -1.138582e+01 -5.740247e-01 2.000000e+00
      vertex -1.138582e+01 -5.740247e-01 0.000000e+00
    endloop
  endfacet
  facet normal 8.969142e-01 4.422047e-01 -3.010944e-16
    outer loop
      vertex -1.138582e+01 -5.740247e-01 0.000000e+00
      vertex -1.138582e+01 -5.740247e-01 2.000000e+00
      vertex -1.124720e+01 -8.333554e-01 2.000000e+00
    endloop
  endfacet
  facet normal 8.659785e-01 5.000812e-01 -3.405022e-16
    outer loop
      vertex -1.138582e+01 -5.740247e-01 0.000000e+00
      vertex -1.124720e+01 -8.333554e-01 2.000000e+00
      vertex -1.124720e+01 -8.333554e-01 0.000000e+00
    endloop
  endfacet
  facet normal 7.934104e-01 6.086870e-01 -4.144512e-16
    outer loop
      vertex -1.124720e+01 -8.333554e-01 0.000000e+00
      vertex -1.124720e+01 -8.333554e-01 2.000000e+00
      vertex -1.106066e+01 -1.060661e+00 2.000000e+00
    endloop
  endfacet
  facet normal 7.517779e-01 6.594163e-01 -4.489924e-16
    outer loop
      vertex -1.124720e+01 -8.333554e-01 0.000000e+00
      vertex -1.106066e+01 -1.060661e+00 2.000000e+00
      vertex -1.106066e+01 -1.060661e+00 0.000000e+00
    endloop
  endfacet
  facet normal 6.594163e-01 7.517779e-01 -5.118810e-16
    outer loop
      vertex -1.106066e+01 -1.060661e+00 0.000000e+00
      vertex -1.106066e+01 -1.060661e+00 2.000000e+00
      vertex -1.083336e+01 -1.247204e+00 2.000000e+00
    endloop
  endfacet
  facet normal 6.086870e-01 7.934104e-01 -5.402283e-16
    outer loop
      vertex -1.106066e+01 -1.060661e+00 0.000000e+00
      vertex -1.083336e+01 -1.247204e+00 2.000000e+00
      vertex -1.083336e+01 -1.247204e+00 0.000000e+00
    endloop
  endfacet
  facet normal 5.000812e-01 8.659785e-01 -5.896394e-16
    outer loop
      vertex -1.083336e+01 -1.247204e+00 0.000000e+00
      vertex -1.083336e+01 -1.247204e+00 2.000000e+00
      vertex -1.057403e+01 -1.385820e+00 2.000000e+00
    endloop
  endfacet
  facet normal 4.422046e-01 8.969142e-01 -6.107033e-16
    outer loop
      vertex -1.083336e+01 -1.247204e+00 0.000000e+00
      vertex -1.057403e+01 -1.385820e+00 2.000000e+00
      vertex -1.057403e+01 -1.385820e+00 0.000000e+00
    endloop
  endfacet
  facet normal 3.215283e-01 9.469000e-01 -6.447384e-16
    outer loop
      vertex -1.057403e+01 -1.385820e+00 0.000000e+00
      vertex -1.057403e+01 -1.385820e+00 2.000000e+00
      vertex -1.029263e+01 -1.471179e+00 2.000000e+00
    endloop
  endfacet
  facet normal 2.587285e-01 9.659501e-01 -6.577095e-16
    outer loop
      vertex -1.057403e+01 -1.385820e+00 0.000000e+00
      vertex -1.029263e+01 -1.471179e+00 2.000000e+00
      vertex -1.029263e+01 -1.471179e+00 0.000000e+00
    endloop
  endfacet
  facet normal 1.306191e-01 9.914326e-01 -6.750603e-16
    outer loop
      vertex -1.029263e+01 -1.471179e+00 0.000000e+00
      vertex -1.029263e+01 -1.471179e+00 2.000000e+00
      vertex -1.000000e+01 -1.500000e+00 2.000000e+00
    endloop
  endfacet
  facet normal 6.530957e-02 9.978651e-01 -6.794401e-16
    outer loop
      vertex 9.707367e+00 -1.471179e+00 0.000000e+00
      vertex 1.000000e+01 -1.500000e+00 2.000000e+00
      vertex 1.000000e+01 -1.500000e+00 0.000000e+00
    endloop
  endfacet
  facet normal -6.530957e-02 9.978651e-01 -6.794401e-16
    outer loop
      vertex 1.000000e+01 -1.500000e+00 0.000000e+00
      vertex 1.000000e+01 -1.500000e+00 2.000000e+00
      vertex 1.029263e+01 -1.471179e+00 2.000000e+00
    endloop
  endfacet
  facet normal -1.306191e-01 9.914326e-01 -6.750603e-16
    outer loop
      vertex 1.000000e+01 -1.500000e+00 0.000000e+00
      vertex 1.029263e+01 -1.471179e+00 2.000000e+00
      vertex 1.029263e+01 -1.471179e+00 0.000000e+00
    endloop
  endfacet
  facet normal -2.587285e-01 9.659501e-01 -6.577095e-16
    outer loop
      vertex 1.029263e+01 -1.471179e+00 0.000000e+00
      vertex 1.029263e+01 -1.471179e+00 2.000000e+00
      vertex 1.057402e+01 -1.385820e+00 2.000000e+00
    endloop
  endfacet
  facet normal -3.215283e-01 9.469000e-01 -6.447384e-16
    outer loop
      vertex 1.029263e+01 -1.471179e+00 0.000000e+00
      vertex 1.057402e+01 -1.385820e+00 2.000000e+00
      vertex 1.057402e+01 -1.385820e+00 0.000000e+00
    endloop
  endfacet
  facet normal -4.422047e-01 8.969142e-01 -6.107033e-16
    outer loop
      vertex 1.057402e+01 -1.385820e+00 0.000000e+00
      vertex 1.057402e+01 -1.385820e+00 2.000000e+00
      vertex 1.083335e+01 -1.247204e+00 2.000000e+00
    endloop
  endfacet
  facet normal -5.000812e-01 8.659785e-01 -5.896394e-16
    outer loop
      vertex 1.057402e+01 -1.385820e+00 0.000000e+00
      vertex 1.083335e+01 -1.247204e+00 2.000000e+00
      vertex 1.083335e+01 -1.247204e+00 0.000000e+00
    endloop
  endfacet
  facet normal -6.086870e-01 7.934104e-01 -5.402282e-16
    outer loop
      vertex 1.083335e+01 -1.247204e+00 0.000000e+00
      vertex 1.083335e+01 -1.247204e+00 2.000000e+00
      vertex 1.106066e+01 -1.060661e+00 2.000000e+00
    endloop
  endfacet
  facet normal -6.594163e-01 7.517779e-01 -5.118810e-16
    outer loop
      vertex 1.083335e+01 -1.247204e+00 0.000000e+00
      vertex 1.106066e+01 -1.060661e+00 2.000000e+00
      vertex 1.106066e+01 -1.060661e+00 0.000000e+00
    endloop
  endfacet
  facet normal -7.517779e-01 6.594163e-01 -4.489924e-16
    outer loop
      vertex 1.106066e+01 -1.060661e+00 0.000000e+00
      vertex 1.106066e+01 -1.060661e+00 2.000000e+00
      vertex 1.124720e+01 -8.333554e-01 2.000000e+00
    endloop
  endfacet
  facet normal -7.934104e-01 6.086870e-01 -4.144513e-16
    outer loop
      vertex 1.106066e+01 -1.060661e+00 0.000000e+00
      vertex 1.124720e+01 -8.333554e-01 2.000000e+00
      vertex 1.124720e+01 -8.333554e-01 0.000000e+00
    endloop
  endfacet
  facet normal -8.659785e-01 5.000812e-01 -3.405022e-16
    outer loop
      vertex 1.124720e+01 -8.333554e-01 0.000000e+00
      vertex 1.124720e+01 -8.333554e-01 2.000000e+00
      vertex 1.138582e+01 -5.740247e-01 2.000000e+00
    endloop
  endfacet
  facet normal -8.969142e-01 4.422046e-01 -3.010944e-16
    outer loop
      vertex 1.124720e+01 -8.333554e-01 0.000000e+00
      vertex 1.138582e+01 -5.740247e-01 2.000000e+00
      vertex 1.138582e+01 -5.740247e-01 0.000000e+00
    endloop
  endfacet
  facet normal -9.469000e-01 3.215283e-01 -2.189266e-16
    outer loop
      vertex 1.138582e+01 -5.740247e-01 0.000000e+00
      vertex 1.138582e+01 -5.740247e-01 2.000000e+00
      vertex 1.147118e+01 -2.926364e-01 2.000000e+00
    endloop
  endfacet
  facet normal -9.659501e-01 2.587285e-01 -1.761666e-16
    outer loop
      vertex 1.138582e+01 -5.740247e-01 0.000000e+00
      vertex 1.147118e+01 -2.926364e-01 2.000000e+00
      vertex 1.147118e+01 -2.926364e-01 0.000000e+00
    endloop
  endfacet
  facet normal -9.914326e-01 1.306191e-01 -8.893776e-17
    outer loop
      vertex 1.147118e+01 -2.926364e-01 0.000000e+00
      vertex 1.147118e+01 -2.926364e-01 2.000000e+00
      vertex 1.150000e+01 -4.768372e-07 2.000000e+00
    endloop
  endfacet
  facet normal -9.978651e-01 6.530957e-02 -4.446888e-17
    outer loop
      vertex 1.147118e+01 -2.926364e-01 0.000000e+00
      vertex 1.150000e+01 -4.768372e-07 2.000000e+00
      vertex 1.150000e+01 -4.768372e-07 0.000000e+00
    endloop
  endfacet
  facet normal -9.978651e-01 -6.530957e-02 4.446888e-17
    outer loop
      vertex 1.150000e+01 -4.768372e-07 0.000000e+00
      vertex 1.150000e+01 -4.768372e-07 2.000000e+00
      vertex 1.147118e+01 2.926345e-01 2.000000e+00
    endloop
  endfacet
  facet normal -9.914326e-01 -1.306191e-01 8.893776e-17
    outer loop
      vertex 1.150000e+01 -4.768372e-07 0.000000e+00
      vertex 1.147118e+01 2.926345e-01 2.000000e+00
      vertex 1.147118e+01 2.926345e-01 0.000000e+00
    endloop
  endfacet
  facet normal -9.659501e-01 -2.587285e-01 1.761666e-16
    outer loop
      vertex 1.147118e+01 2.926345e-01 0.000000e+00
      vertex 1.147118e+01 2.926345e-01 2.000000e+00
      vertex 1.138582e+01 5.740247e-01 2.000000e+00
    endloop
  endfacet
  facet normal -9.469000e-01 -3.215283e-01 2.189266e-16
    outer loop
      vertex 1.147118e+01 2.926345e-01 0.000000e+00
      vertex 1.138582e+01 5.740247e-01 2.000000e+00
      vertex 1.138582e+01 5.740247e-01 0.000000e+00
    endloop
  endfacet
  facet normal -8.969142e-01 -4.422047e-01 3.010944e-16
    outer loop
      vertex 1.138582e+01 5.740247e-01 0.000000e+00
      vertex 1.138582e+01 5.740247e-01 2.000000e+00
      vertex 1.124720e+01 8.333554e-01 2.000000e+00
    endloop
  endfacet
  facet normal -8.659785e-01 -5.000812e-01 3.405022e-16
    outer loop
      vertex 1.138582e+01 5.740247e-01 0.000000e+00
      vertex 1.124720e+01 8.333554e-01 2.000000e+00
      vertex 1.124720e+01 8.333554e-01 0.000000e+00
    endloop
  endfacet
  facet normal -7.934104e-01 -6.086870e-01 4.144512e-16
    outer loop
      vertex 1.124720e+01 8.333554e-01 0.000000e+00
      vertex 1.124720e+01 8.333554e-01 2.000000e+00
      vertex 1.106066e+01 1.060660e+00 2.000000e+00
    endloop
  endfacet
  facet normal -7.517779e-01 -6.594163e-01 4.489924e-16
    outer loop
      vertex 1.124720e+01 8.333554e-01 0.000000e+00
      vertex 1.106066e+01 1.060660e+00 2.000000e+00
      vertex 1.106066e+01 1.060660e+00 0.000000e+00
    endloop
  endfacet
  facet normal -6.594163e-01 -7.517779e-01 5.118810e-16
    outer loop
      vertex 1.106066e+01 1.060660e+00 0.000000e+00
      vertex 1.106066e+01 1.060660e+00 2.000000e+00
      vertex 1.083335e+01 1.247204e+00 2.000000e+00
    endloop
  endfacet
  facet normal -6.086870e-01 -7.934104e-01 5.402283e-16
    outer loop
      vertex 1.106066e+01 1.060660e+00 0.000000e+00
      vertex 1.083335e+01 1.247204e+00 2.000000e+00
      vertex 1.083335e+01 1.247204e+00 0.000000e+00
    endloop
  endfacet
  facet normal -5.000812e-01 -8.659785e-01 5.896394e-16
    outer loop
      vertex 1.083335e+01 1.247204e+00 0.000000e+00
      vertex 1.083335e+01 1.247204e+00 2.000000e+00
      vertex 1.057402e+01 1.385820e+00 2.000000e+00
    endloop
  endfacet
  facet normal -4.422046e-01 -8.969142e-01 6.107033e-16
    outer loop
      vertex 1.083335e+01 1.247204e+00 0.000000e+00
      vertex 1.057402e+01 1.385820e+00 2.000000e+00
      vertex 1.057402e+01 1.385820e+00 0.000000e+00
    endloop
  endfacet
  facet normal -3.215283e-01 -9.469000e-01 6.447384e-16
    outer loop
      vertex 1.057402e+01 1.385820e+00 0.000000e+00
      vertex 1.057402e+01 1.385820e+00 2.000000e+00
      vertex 1.029263e+01 1.471178e+00 2.000000e+00
    endloop
  endfacet
  facet normal -2.587285e-01 -9.659501e-01 6.577095e-16
    outer loop
      vertex 1.057402e+01 1.385820e+00 0.000000e+00
      vertex 1.029263e+01 1.471178e+00 2.000000e+00
      vertex 1.029263e+01 1.471178e+00 0.000000e+00
    endloop
  endfacet
  facet normal -1.306191e-01 -9.914326e-01 6.750603e-16
    outer loop
      vertex 1.029263e+01 1.471178e+00 0.000000e+00
      vertex 1.029263e+01 1.471178e+00 2.000000e+00
      vertex 1.000000e+01 1.500000e+00 2.000000e+00
    endloop
  endfacet
  facet normal -6.530957e-02 -9.978651e-01 6.794401e-16
    outer loop
      vertex 1.029263e+01 1.471178e+00 0.000000e+00
      vertex 1.000000e+01 1.500000e+00 2.000000e+00
      vertex 1.000000e+01 1.500000e+00 0.000000e+00
    endloop
  endfacet
  facet normal 6.530957e-02 -9.978651e-01 6.794401e-16
    outer loop
      vertex 1.000000e+01 1.500000e+00 0.000000e+00
      vertex 1.000000e+01 1.500000e+00 2.000000e+00
      vertex 9.707367e+00 1.471178e+00 2.000000e+00
    endloop
  endfacet
  facet normal 1.306191e-01 -9.914326e-01 6.750603e-16
    outer loop
      vertex 1.000000e+01 1.500000e+00 0.000000e+00
      vertex 9.707367e+00 1.471178e+00 2.000000e+00
      vertex 9.707367e+00 1.471178e+00 0.000000e+00
    endloop
  endfacet
  facet normal 2.587285e-01 -9.659501e-01 6.577095e-16
    outer loop
      vertex 9.707367e+00 1.471178e+00 0.000000e+00
      vertex 9.707367e+00 1.471178e+00 2.000000e+00
      vertex 9.425976e+00 1.385820e+00 2.000000e+00
    endloop
  endfacet
  facet normal 3.215283e-01 -9.469000e-01 6.447384e-16
    outer loop
      vertex 9.707367e+00 1.471178e+00 0.000000e+00
      vertex 9.425976e+00 1.385820e+00 2.000000e+00
      vertex 9.425976e+00 1.385820e+00 0.000000e+00
    endloop
  endfacet
  facet normal 4.422047e-01 -8.969142e-01 6.107033e-16
    outer loop
      vertex 9.425976e+00 1.385820e+00 0.000000e+00
      vertex 9.425976e+00 1.385820e+00 2.000000e+00
      vertex 9.166641e+00 1.247204e+00 2.000000e+00
    endloop
  endfacet
  facet normal 5.000812e-01 -8.659785e-01 5.896394e-16
    outer loop
      vertex 9.425976e+00 1.385820e+00 0.000000e+00
      vertex 9.166641e+00 1.247204e+00 2.000000e+00
      vertex 9.166641e+00 1.247204e+00 0.000000e+00
    endloop
  endfacet
  facet normal 6.086870e-01 -7.934104e-01 5.402282e-16
    outer loop
      vertex 9.166641e+00 1.247204e+00 0.000000e+00
      vertex 9.166641e+00 1.247204e+00 2.000000e+00
      vertex 8.939342e+00 1.060660e+00 2.000000e+00
    endloop
  endfacet
  facet normal 6.594163e-01 -7.517779e-01 5.118810e-16
    outer loop
      vertex 9.166641e+00 1.247204e+00 0.000000e+00
      vertex 8.939342e+00 1.060660e+00 2.000000e+00
      vertex 8.939342e+00 1.060660e+00 0.000000e+00
    endloop
  endfacet
  facet normal 7.517779e-01 -6.594163e-01 4.489924e-16
    outer loop
      vertex 8.939342e+00 1.060660e+00 0.000000e+00
      vertex 8.939342e+00 1.060660e+00 2.000000e+00
      vertex 8.752796e+00 8.333554e-01 2.000000e+00
    endloop
  endfacet
  facet normal 7.934104e-01 -6.086870e-01 4.144513e-16
    outer loop
      vertex 8.939342e+00 1.060660e+00 0.000000e+00
      vertex 8.752796e+00 8.333554e-01 2.000000e+00
      vertex 8.752796e+00 8.333554e-01 0.000000e+00
    endloop
  endfacet
  facet normal 8.659785e-01 -5.000812e-01 3.405022e-16
    outer loop
      vertex 8.752796e+00 8.333554e-01 0.000000e+00
      vertex 8.752796e+00 8.333554e-01 2.000000e+00
      vertex 8.614182e+00 5.740247e-01 2.000000e+00
    endloop
  endfacet
  facet normal 8.969142e-01 -4.422046e-01 3.010944e-16
    outer loop
      vertex 8.752796e+00 8.333554e-01 0.000000e+00
      vertex 8.614182e+00 5.740247e-01 2.000000e+00
      vertex 8.614182e+00 5.740247e-01 0.000000e+00
    endloop
  endfacet
  facet normal 9.469000e-01 -3.215283e-01 2.189266e-16
    outer loop
      vertex 8.614182e+00 5.740247e-01 0.000000e+00
      vertex 8.614182e+00 5.740247e-01 2.000000e+00
      vertex 8.528820e+00 2.926345e-01 2.000000e+00
    endloop
  endfacet
  facet normal 9.659501e-01 -2.587285e-01 1.761666e-16
    outer loop
      vertex 8.614182e+00 5.740247e-01 0.000000e+00
      vertex 8.528820e+00 2.926345e-01 2.000000e+00
      vertex 8.528820e+00 2.926345e-01 0.000000e+00
    endloop
  endfacet
  facet normal 9.914326e-01 -1.306191e-01 8.893776e-17
    outer loop
      vertex 8.528820e+00 2.926345e-01 0.000000e+00
      vertex 8.528820e+00 2.926345e-01 2.000000e+00
      vertex 8.500000e+00 -4.768372e-07 2.000000e+00
    endloop
  endfacet
  facet normal 9.978651e-01 -6.530957e-02 4.446888e-17
    outer loop
      vertex 8.528820e+00 2.926345e-01 0.000000e+00
      vertex 8.500000e+00 -4.768372e-07 2.000000e+00
      vertex 8.500000e+00 -4.768372e-07 0.000000e+00
    endloop
  endfacet
  facet normal 9.978651e-01 6.530957e-02 -4.446888e-17
    outer loop
      vertex 8.500000e+00 -4.768372e-07 0.000000e+00
      vertex 8.500000e+00 -4.768372e-07 2.000000e+00
      vertex 8.528820e+00 -2.926364e-01 2.000000e+00
    endloop
  endfacet
  facet normal 9.914326e-01 1.306191e-01 -8.893776e-17
    outer loop
      vertex 8.500000e+00 -4.768372e-07 0.000000e+00
      vertex 8.528820e+00 -2.926364e-01 2.000000e+00
      vertex 8.528820e+00 -2.926364e-01 0.000000e+00
    endloop
  endfacet
  facet normal 9.659501e-01 2.587285e-01 -1.761666e-16
    outer loop
      vertex 8.528820e+00 -2.926364e-01 0.000000e+00
      vertex 8.528820e+00 -2.926364e-01 2.000000e+00
      vertex 8.614182e+00 -5.740247e-01 2.000000e+00
    endloop
  endfacet
  facet normal 9.469000e-01 3.215283e-01 -2.189266e-16
    outer loop
      vertex 8.528820e+00 -2.926364e-01 0.000000e+00
      vertex 8.614182e+00 -5.740247e-01 2.000000e+00
      vertex 8.614182e+00 -5.740247e-01 0.000000e+00
    endloop
  endfacet
  facet normal 8.969142e-01 4.422047e-01 -3.010944e-16
    outer loop
      vertex 8.614182e+00 -5.740247e-01 0.000000e+00
      vertex 8.614182e+00 -5.740247e-01 2.000000e+00
      vertex 8.752796e+00 -8.333554e-01 2.000000e+00
    endloop
  endfacet
  facet normal 8.659785e-01 5.000812e-01 -3.405022e-16
    outer loop
      vertex 8.614182e+00 -5.740247e-01 0.000000e+00
      vertex 8.752796e+00 -8.333554e-01 2.000000e+00
      vertex 8.752796e+00 -8.333554e-01 0.000000e+00
    endloop
  endfacet
  facet normal 7.934104e-01 6.086870e-01 -4.144512e-16
    outer loop
      vertex 8.752796e+00 -8.333554e-01 0.000000e+00
      vertex 8.752796e+00 -8.333554e-01 2.000000e+00
      vertex 8.939342e+00 -1.060661e+00 2.000000e+00
    endloop
  endfacet
  facet normal 7.517779e-01 6.594163e-01 -4.489924e-16
    outer loop
      vertex 8.752796e+00 -8.333554e-01 0.000000e+00
      vertex 8.939342e+00 -1.060661e+00 2.000000e+00
      vertex 8.939342e+00 -1.060661e+00 0.000000e+00
    endloop
  endfacet
  facet normal 6.594163e-01 7.517779e-01 -5.118810e-16
    outer loop
      vertex 8.939342e+00 -1.060661e+00 0.000000e+00
      vertex 8.939342e+00 -1.060661e+00 2.000000e+00
      vertex 9.166641e+00 -1.247204e+00 2.000000e+00
    endloop
  endfacet
  facet normal 6.086870e-01 7.934104e-01 -5.402283e-16
    outer loop
      vertex 8.939342e+00 -1.060661e+00 0.000000e+00
      vertex 9.166641e+00 -1.247204e+00 2.000000e+00
      vertex 9.166641e+00 -1.247204e+00 0.000000e+00
    endloop
  endfacet
  facet normal 5.000812e-01 8.659785e-01 -5.896394e-16
    outer loop
      vertex 9.166641e+00 -1.247204e+00 0.000000e+00
      vertex 9.166641e+00 -1.247204e+00 2.000000e+00
      vertex 9.425976e+00 -1.385820e+00 2.000000e+00
    endloop
  endfacet
  facet normal 4.422046e-01 8.969142e-01 -6.107033e-16
    outer loop
      vertex 9.166641e+00 -1.247204e+00 0.000000e+00
      vertex 9.425976e+00 -1.385820e+00 2.000000e+00
      vertex 9.425976e+00 -1.385820e+00 0.000000e+00
    endloop
  endfacet
  facet normal 3.215283e-01 9.469000e-01 -6.447384e-16
    outer loop
      vertex 9.425976e+00 -1.385820e+00 0.000000e+00
      vertex 9.425976e+00 -1.385820e+00 2.000000e+00
      vertex 9.707367e+00 -1.471179e+00 2.000000e+00
    endloop
  endfacet
  facet normal 2.587285e-01 9.659501e-01 -6.577095e-16
    outer loop
      vertex 9.425976e+00 -1.385820e+00 0.000000e+00
      vertex 9.707367e+00 -1.471179e+00 2.000000e+00
      vertex 9.707367e+00 -1.471179e+00 0.000000e+00
    endloop
  endfacet
  facet normal 1.306191e-01 9.914326e-01 -6.750603e-16
    outer loop
      vertex 9.707367e+00 -1.471179e+00 0.000000e+00
      vertex 9.707367e+00 -1.471179e+00 2.000000e+00
      vertex 1.000000e+01 -1.500000e+00 2.000000e+00
    endloop
  endfacet
endsolid Default
