<?xml version="1.0" encoding="utf-8"?>
<!-- Generator: Adobe Illustrator 15.1.0, SVG Export Plug-In . SVG Version: 6.00 Build 0)  -->
<!DOCTYPE svg PUBLIC "-//W3C//DTD SVG 1.1//EN" "http://www.w3.org/Graphics/SVG/1.1/DTD/svg11.dtd">
<svg version="1.1" id="Layer_1" xmlns="http://www.w3.org/2000/svg" xmlns:xlink="http://www.w3.org/1999/xlink" x="0px" y="0px"
	 width="300px" height="300px" viewBox="0 0 300 300" enable-background="new 0 0 300 300" xml:space="preserve">
<path fill="none" stroke="#000000" stroke-miterlimit="10" d="M296.464,149.516c0,40.317-16.342,76.817-42.763,103.238
	c-26.42,26.421-62.92,42.763-103.237,42.763s-76.817-16.342-103.238-42.763S4.463,189.833,4.463,149.516
	S20.805,72.699,47.226,46.278S110.146,3.516,150.464,3.516s76.817,16.341,103.237,42.762
	C280.122,72.699,296.464,109.199,296.464,149.516z"/>
<path fill="none" stroke="#000000" stroke-miterlimit="10" d="M291.464,149.516c0,38.936-15.782,74.186-41.298,99.703
	c-25.516,25.516-60.766,41.298-99.702,41.298s-74.187-15.782-99.703-41.298c-25.516-25.517-41.298-60.767-41.298-99.703
	S25.245,75.33,50.761,49.814s60.766-41.298,99.703-41.298s74.187,15.782,99.702,41.298S291.464,110.58,291.464,149.516z"/>
<path fill="none" stroke="#000000" stroke-miterlimit="10" d="M285.714,149.516c0,37.349-15.138,71.162-39.613,95.637
	s-58.288,39.613-95.637,39.613s-71.161-15.138-95.637-39.613s-39.614-58.288-39.614-95.637c0-37.348,15.138-71.161,39.614-95.636
	s58.288-39.614,95.637-39.614s71.161,15.138,95.637,39.614S285.714,112.168,285.714,149.516z"/>
<path fill="none" stroke="#000000" stroke-miterlimit="10" d="M279.714,149.516c0,35.692-14.467,68.004-37.856,91.394
	c-23.389,23.39-55.701,37.856-91.394,37.856c-35.691,0-68.004-14.467-91.394-37.856s-37.856-55.702-37.856-91.394
	c0-35.691,14.467-68.004,37.856-91.394s55.703-37.856,91.394-37.856c35.692,0,68.005,14.467,91.394,37.856
	C265.247,81.512,279.714,113.825,279.714,149.516z"/>
<path fill="none" stroke="#000000" stroke-miterlimit="10" d="M273.214,149.516c0,33.897-13.739,64.584-35.952,86.798
	c-22.213,22.213-52.9,35.952-86.798,35.952c-33.896,0-64.584-13.739-86.798-35.952c-22.213-22.214-35.953-52.901-35.953-86.798
	c0-33.896,13.739-64.584,35.953-86.797s52.901-35.953,86.798-35.953c33.897,0,64.585,13.739,86.798,35.953
	S273.214,115.62,273.214,149.516z"/>
<path fill="none" stroke="#000000" stroke-miterlimit="10" d="M266.214,149.516c0,31.964-12.956,60.902-33.902,81.848
	s-49.884,33.902-81.848,33.902s-60.901-12.956-81.848-33.902s-33.902-49.884-33.902-81.848c0-31.963,12.956-60.901,33.902-81.848
	s49.884-33.902,81.848-33.902s60.901,12.956,81.848,33.902S266.214,117.553,266.214,149.516z"/>
<path fill="none" stroke="#000000" stroke-miterlimit="10" d="M258,149.25c0,29.755-12.061,56.692-31.559,76.191
	C206.942,244.939,180.005,257,150.25,257c-29.754,0-56.691-12.061-76.19-31.559C54.561,205.942,42.5,179.005,42.5,149.25
	c0-29.754,12.061-56.691,31.56-76.19s46.437-31.56,76.19-31.56c29.755,0,56.692,12.061,76.191,31.56
	C245.939,92.559,258,119.496,258,149.25z"/>
<path fill="none" stroke="#000000" stroke-miterlimit="10" d="M251.207,149.854c0,27.713-11.232,52.801-29.393,70.961
	s-43.248,29.393-70.961,29.393c-27.712,0-52.8-11.232-70.96-29.393S50.5,177.566,50.5,149.854c0-27.712,11.232-52.8,29.393-70.96
	S123.142,49.5,150.854,49.5c27.713,0,52.801,11.232,70.961,29.393S251.207,122.142,251.207,149.854z"/>
<path fill="none" stroke="#000000" stroke-miterlimit="10" d="M243.303,149.401c0,25.655-10.398,48.88-27.21,65.691
	s-40.036,27.21-65.691,27.21c-25.654,0-48.879-10.398-65.691-27.21S57.5,175.057,57.5,149.401c0-25.654,10.398-48.879,27.21-65.691
	s40.037-27.21,65.691-27.21c25.655,0,48.88,10.398,65.691,27.21S243.303,123.748,243.303,149.401z"/>
<path fill="none" stroke="#000000" stroke-miterlimit="10" d="M234.857,149.516c0,23.384-9.478,44.554-24.802,59.877
	c-15.323,15.324-36.493,24.802-59.877,24.802c-23.383,0-44.553-9.478-59.877-24.802C74.978,194.07,65.5,172.9,65.5,149.516
	c0-23.383,9.478-44.553,24.802-59.877c15.324-15.324,36.494-24.802,59.877-24.802c23.384,0,44.554,9.478,59.877,24.802
	C225.38,104.963,234.857,126.133,234.857,149.516z"/>
<path fill="none" stroke="#000000" stroke-miterlimit="10" d="M225.543,149.516c0,20.733-8.403,39.503-21.99,53.089
	c-13.586,13.587-32.355,21.99-53.089,21.99c-20.732,0-39.502-8.403-53.089-21.99c-13.586-13.586-21.99-32.356-21.99-53.089
	c0-20.732,8.404-39.502,21.99-53.089c13.587-13.586,32.357-21.99,53.089-21.99c20.733,0,39.503,8.404,53.089,21.99
	C217.14,110.014,225.543,128.784,225.543,149.516z"/>
<path fill="none" stroke="#000000" stroke-miterlimit="10" d="M216.79,149.516c0,18.316-7.424,34.898-19.426,46.901
	c-12.003,12.002-28.585,19.426-46.9,19.426s-34.897-7.424-46.9-19.426c-12.003-12.003-19.427-28.585-19.427-46.901
	c0-18.315,7.424-34.897,19.427-46.9s28.585-19.427,46.9-19.427s34.897,7.424,46.9,19.427
	C209.366,114.619,216.79,131.201,216.79,149.516z"/>
<path fill="none" stroke="#000000" stroke-miterlimit="10" d="M207.624,149.516c0,15.785-6.397,30.075-16.741,40.419
	c-10.344,10.344-24.635,16.741-40.419,16.741c-15.785,0-30.075-6.397-40.419-16.741c-10.344-10.345-16.742-24.635-16.742-40.419
	s6.398-30.075,16.742-40.418c10.344-10.344,24.634-16.742,40.419-16.742c15.784,0,30.075,6.398,40.419,16.742
	C201.227,119.441,207.624,133.731,207.624,149.516z"/>
<path fill="none" stroke="#000000" stroke-miterlimit="10" d="M197.707,149.516c0,13.046-5.287,24.858-13.837,33.407
	c-8.549,8.55-20.36,13.837-33.406,13.837s-24.857-5.287-33.406-13.837c-8.55-8.549-13.837-20.36-13.837-33.407
	c0-13.046,5.288-24.857,13.837-33.406c8.549-8.55,20.36-13.837,33.406-13.837s24.857,5.288,33.406,13.837
	C192.42,124.659,197.707,136.47,197.707,149.516z"/>
<path fill="none" stroke="#000000" stroke-miterlimit="10" d="M187.321,149.516c0,10.178-4.125,19.393-10.795,26.063
	s-15.884,10.795-26.062,10.795c-10.179,0-19.394-4.125-26.063-10.795c-6.67-6.67-10.796-15.885-10.796-26.063
	s4.125-19.393,10.796-26.062c6.67-6.67,15.885-10.795,26.063-10.795c10.178,0,19.392,4.125,26.062,10.795
	S187.321,139.338,187.321,149.516z"/>
<path fill="none" stroke="#000000" stroke-miterlimit="10" d="M175.283,149.516c0,6.854-2.777,13.059-7.27,17.55
	c-4.49,4.492-10.695,7.27-17.549,7.27c-6.854,0-13.06-2.777-17.552-7.27c-4.491-4.491-7.27-10.696-7.27-17.55
	s2.778-13.059,7.27-17.55c4.492-4.491,10.697-7.27,17.552-7.27c6.854,0,13.059,2.778,17.549,7.27
	C172.506,136.458,175.283,142.662,175.283,149.516z"/>
<path fill="none" stroke="#000000" stroke-miterlimit="10" d="M163.129,149.516c0,3.498-1.418,6.664-3.709,8.956
	c-2.292,2.292-5.459,3.71-8.956,3.71c-3.498,0-6.664-1.418-8.956-3.71s-3.709-5.458-3.709-8.956s1.417-6.664,3.709-8.956
	s5.458-3.709,8.956-3.709c3.497,0,6.664,1.417,8.956,3.709C161.711,142.853,163.129,146.019,163.129,149.516z"/>
<path fill="none" stroke="#000000" stroke-miterlimit="10" d="M159.304,149.516c0,2.441-0.989,4.651-2.589,6.25
	s-3.809,2.589-6.25,2.589c-2.442,0-4.652-0.989-6.252-2.589c-1.6-1.6-2.589-3.81-2.589-6.25s0.989-4.651,2.589-6.25
	c1.6-1.6,3.81-2.589,6.252-2.589c2.441,0,4.65,0.99,6.25,2.589S159.304,147.075,159.304,149.516z"/>
<path fill="none" stroke="#000000" stroke-miterlimit="10" d="M156.095,149.516c0,1.555-0.63,2.962-1.649,3.981
	c-1.019,1.02-2.426,1.649-3.981,1.649s-2.963-0.63-3.982-1.649c-1.019-1.019-1.649-2.426-1.649-3.981s0.63-2.962,1.649-3.981
	c1.019-1.019,2.427-1.649,3.982-1.649s2.963,0.63,3.981,1.649C155.465,146.554,156.095,147.961,156.095,149.516z"/>
</svg>
