<?xml version="1.0" encoding="utf-8"?>
<!-- Generator: Adobe Illustrator 15.1.0, SVG Export Plug-In . SVG Version: 6.00 Build 0)  -->
<!DOCTYPE svg PUBLIC "-//W3C//DTD SVG 1.1//EN" "http://www.w3.org/Graphics/SVG/1.1/DTD/svg11.dtd">
<svg version="1.1" id="Layer_1" xmlns="http://www.w3.org/2000/svg" xmlns:xlink="http://www.w3.org/1999/xlink" x="0px" y="0px"
	 width="300px" height="300px" viewBox="0 0 300 300" enable-background="new 0 0 300 300" xml:space="preserve">
<g>
	
		<path fill="none" stroke="#000000" stroke-width="6.601" stroke-linecap="square" stroke-linejoin="round" stroke-miterlimit="10" d="
		M28.379,166.26c0,0,25.249-16.349,28.549-29.552c3.3-13.202-23.268,63.877-23.268,63.877l22-59.663c0,0,3.246-6.756,11.417-6.333
		c21.538,1.116,15.735,33.479-6.538,30.221c-7.823-1.146-11.211-6.713-11.211-6.713s21.267,26.762,52.67-22.638l-6.715,28.285
		c11.381,11.248,22.021-29.362,36.56-28.704c8.428,0.381,8.437,0,8.437,0s0.572-0.496-8.437,0
		c-18.978,1.041-22.158,36.405,4.476,28.923c15.466-4.343,12.881-28.713,28.405-28.666c7.992,0.024,8.027-0.258,8.027-0.258h-5.353
		c-17.464-1-26.46,30.729,1.467,28.4c17.456-2.367,10.995-31.549,32.033-29.853c2.841,0.229,2.396,0.598,0,0
		c-15.705-3.92-26.869,28.434-8.349,29.411c20.451,1.077,25.28-26.091,9.092-29.246c-1.504-0.293,3.673,1.296,7.71,5.047
		c0,0,14.098-1.739,30.482-24.935c10.463-14.81,0.011-18.422-3.509-9.969l-16.062,58.748c1.295,3.484,6.358,1.224,13.215-5.838
		c8.782-9.05,9.424-24.401,24.186-23.378c2.843,0.197,7.368,1.399,5.087,0.451c-20.31-8.447-29.174,28.152-10.631,28.46
		c24.954,0.417,24.954-28.628,9.091-29.245c-1.527-0.059,10.54,6.887,15.819,6.887"/>
	
		<line fill="none" stroke="#000000" stroke-width="6.601" stroke-linecap="round" stroke-linejoin="round" stroke-miterlimit="10" x1="105.409" y1="118.545" x2="106.637" y2="117.182"/>
</g>
</svg>
