<?xml version="1.0" encoding="utf-8"?>
<!-- Generator: Adobe Illustrator 15.0.2, SVG Export Plug-In . SVG Version: 6.00 Build 0)  -->
<!DOCTYPE svg PUBLIC "-//W3C//DTD SVG 1.0//EN" "http://www.w3.org/TR/2001/REC-SVG-20010904/DTD/svg10.dtd">
<svg version="1.0" id="Layer_1" xmlns="http://www.w3.org/2000/svg" xmlns:xlink="http://www.w3.org/1999/xlink" x="0px" y="0px"
	 width="300px" height="300px" viewBox="0 0 300 300" enable-background="new 0 0 300 300" xml:space="preserve">
<path fill="none" stroke="#000000" stroke-width="1.7478" stroke-miterlimit="10" d="M265.217,160.528
	c0-65.663-53.231-118.894-118.895-118.894c-59.097,0-107.005,47.907-107.005,107.004c0,53.188,43.117,96.304,96.304,96.304
	c47.87,0,86.674-38.805,86.674-86.673c0-43.082-34.924-78.006-78.005-78.006c-38.774,0-70.206,31.432-70.206,70.205
	c0,34.897,28.289,63.186,63.185,63.186c31.406,0,56.867-25.46,56.867-56.867c0-28.266-22.914-51.18-51.18-51.18
	c-25.439,0-46.062,20.623-46.062,46.062c0,22.896,18.56,41.456,41.455,41.456c20.606,0,37.311-16.704,37.311-37.31
	c0-18.546-15.034-33.58-33.579-33.58c-16.691,0-30.221,13.53-30.221,30.221c0,15.021,12.177,27.199,27.199,27.199
	c13.52,0,24.479-10.96,24.479-24.479c0-12.167-9.863-22.031-22.032-22.031c-10.951,0-19.828,8.877-19.828,19.828
	c0,9.855,7.99,17.846,17.846,17.846c8.871,0,16.061-7.19,16.061-16.061"/>
</svg>
