<?xml version="1.0" encoding="utf-8"?>
<!-- Generator: Adobe Illustrator 15.0.2, SVG Export Plug-In . SVG Version: 6.00 Build 0)  -->
<!DOCTYPE svg PUBLIC "-//W3C//DTD SVG 1.1//EN" "http://www.w3.org/Graphics/SVG/1.1/DTD/svg11.dtd">
<svg version="1.1" xmlns="http://www.w3.org/2000/svg" xmlns:xlink="http://www.w3.org/1999/xlink" x="0px" y="0px" width="300px"
	 height="300px" viewBox="0 0 300 300" enable-background="new 0 0 300 300" xml:space="preserve">
<g id="Layer_1" display="none">
	<rect x="-391" y="-391" display="inline" fill="#ED1C24" stroke="#000000" stroke-miterlimit="10" width="144" height="142"/>
	<rect x="-391" y="-173" display="inline" fill="#ED1C24" stroke="#000000" stroke-miterlimit="10" width="144" height="142"/>
	<rect x="-175" y="-173" display="inline" fill="#ED1C24" stroke="#000000" stroke-miterlimit="10" width="144" height="142"/>
	<rect x="475" y="475.111" display="inline" fill="#ED1C24" stroke="#000000" stroke-miterlimit="10" width="144" height="142"/>
	<rect x="-175" y="43.111" display="inline" fill="#ED1C24" stroke="#000000" stroke-miterlimit="10" width="144" height="142"/>
	<rect x="-175" y="255.111" display="inline" fill="#ED1C24" stroke="#000000" stroke-miterlimit="10" width="144" height="142"/>
	<rect x="-391" y="255.111" display="inline" fill="#ED1C24" stroke="#000000" stroke-miterlimit="10" width="144" height="142"/>
	<rect x="-391" y="475.111" display="inline" fill="#ED1C24" stroke="#000000" stroke-miterlimit="10" width="144" height="142"/>
	<rect x="-175" y="475.111" display="inline" fill="#ED1C24" stroke="#000000" stroke-miterlimit="10" width="144" height="142"/>
	<rect x="43.778" y="475.111" display="inline" fill="#ED1C24" stroke="#000000" stroke-miterlimit="10" width="144" height="142"/>
	
		<rect x="255.778" y="475.111" display="inline" fill="#ED1C24" stroke="#000000" stroke-miterlimit="10" width="144" height="142"/>
	<rect x="255.778" y="-391" display="inline" fill="#ED1C24" stroke="#000000" stroke-miterlimit="10" width="144" height="142"/>
	<rect x="255.778" y="-173" display="inline" fill="#ED1C24" stroke="#000000" stroke-miterlimit="10" width="144" height="142"/>
	<rect x="475" y="-173" display="inline" fill="#ED1C24" stroke="#000000" stroke-miterlimit="10" width="144" height="142"/>
	<rect x="43.778" y="-391" display="inline" fill="#ED1C24" stroke="#000000" stroke-miterlimit="10" width="144" height="142"/>
	<rect x="255.778" y="43.112" display="inline" fill="#ED1C24" stroke="#000000" stroke-miterlimit="10" width="144" height="142"/>
	<rect x="43.778" y="43.112" display="inline" fill="#ED1C24" stroke="#000000" stroke-miterlimit="10" width="144" height="142"/>
	<rect x="475" y="42.995" display="inline" fill="#ED1C24" stroke="#000000" stroke-miterlimit="10" width="144" height="142"/>
	<rect x="475" y="255.111" display="inline" fill="#ED1C24" stroke="#000000" stroke-miterlimit="10" width="144" height="142"/>
	
		<rect x="255.778" y="255.111" display="inline" fill="#ED1C24" stroke="#000000" stroke-miterlimit="10" width="144" height="142"/>
	<rect x="42.618" y="255.111" display="inline" fill="#ED1C24" stroke="#000000" stroke-miterlimit="10" width="144" height="142"/>
	<rect x="475" y="-391" display="inline" fill="#ED1C24" stroke="#000000" stroke-miterlimit="10" width="144" height="142"/>
	<rect x="43.778" y="-173" display="inline" fill="#ED1C24" stroke="#000000" stroke-miterlimit="10" width="144" height="142"/>
	<rect x="-175" y="-391" display="inline" fill="#ED1C24" stroke="#000000" stroke-miterlimit="10" width="144" height="142"/>
	<rect x="-391" y="42.995" display="inline" fill="#ED1C24" stroke="#000000" stroke-miterlimit="10" width="144" height="142"/>
</g>
<g id="Layer_2">
	<polyline fill="none" stroke="#000000" stroke-width="0.72" stroke-miterlimit="10" points="15.065,6 15.065,112.506 
		73.322,112.685 73.232,190.451 15.155,190.362 15.11,287.304 248.093,287.186 248.093,297.104 286.976,297.104 286.976,248.423 
		53.813,248.527 53.903,229.152 112.16,229.108 112.16,170.792 228.765,171.03 228.671,112.64 286.72,112.505 286.976,73.802 
		228.765,73.756 228.493,15.631 131.58,15.631 131.58,54.428 189.625,54.428 189.625,132.013 112.154,132.013 112.16,73.892 
		53.949,73.85 53.813,6 	"/>
	<polyline fill="none" stroke="#00AEEF" stroke-width="0.72" stroke-miterlimit="10" points="31.967,8.218 17.493,8.218 
		17.493,110.438 75.75,110.438 75.66,192.967 17.493,192.787 17.493,285.118 250.52,285.118 250.429,294.647 284.504,294.378 
		284.504,250.955 51.603,250.688 51.358,226.681 109.868,226.681 109.823,168.559 226.292,168.424 226.316,109.897 284.574,110.162 
		284.574,76.274 226.247,76.424 226.156,18.06 134.006,17.995 134.217,52.181 192.263,52.181 192.263,134.709 109.733,134.442 
		109.644,76.364 51.477,76.095 51.477,8.218 34.485,8.218 	"/>
	<polyline fill="none" stroke="#EF4136" stroke-width="0.72" stroke-miterlimit="10" points="32.057,10.665 20.119,10.642 
		20.119,107.919 78.554,108.01 78.537,195.034 20.119,195.034 20.119,282.689 252.948,282.6 253.037,292.22 281.986,292.31 
		282.166,253.338 49.151,253.109 49.116,224.356 107.44,224.523 107.508,166.131 223.886,166.266 223.886,107.875 282.008,107.673 
		281.986,78.842 223.82,78.747 223.954,20.489 136.434,20.422 136.434,49.416 194.69,49.685 194.69,137.134 107.373,137.045 
		107.306,78.882 48.958,78.611 48.958,10.696 34.529,10.669 	"/>
	<polyline fill="none" stroke="#006838" stroke-width="0.72" stroke-miterlimit="10" points="32.057,13.176 22.483,13.158 
		22.483,105.403 80.604,105.222 80.784,197.732 22.483,197.732 22.483,280.172 255.374,280.262 255.394,289.972 279.649,289.972 
		279.649,255.742 46.622,255.72 46.711,221.915 104.878,222.096 104.789,163.568 221.392,163.479 221.571,105.493 279.47,105.312 
		279.47,81.039 221.392,81.128 221.571,23.001 138.797,22.938 138.797,46.965 197.113,46.987 197.207,139.296 104.699,139.476 
		104.968,81.218 46.981,81.218 46.802,13.203 34.574,13.181 	"/>
	<polyline fill="none" stroke="#2B3990" stroke-width="0.72" stroke-miterlimit="10" points="32.146,15.644 24.833,15.631 
		24.833,102.975 83.032,102.885 83.136,200.206 24.833,200.206 24.833,277.588 257.803,277.588 257.733,287.365 277.152,287.5 
		277.288,258.17 44.126,258.17 44.126,219.533 102.45,219.398 102.384,161.142 218.897,161.142 218.897,103.02 277.356,102.953 
		277.29,83.504 218.897,83.398 218.964,25.462 141.149,25.276 141.149,44.584 199.613,44.628 199.559,141.77 102.519,141.723 
		102.452,83.68 44.194,83.534 44.329,15.667 34.619,15.649 	"/>
	<polyline fill="none" stroke="#C49A6C" stroke-width="0.72" stroke-miterlimit="10" points="32.101,18.069 27.194,18.06 
		27.194,100.458 85.526,100.525 85.495,202.636 27.194,202.636 27.194,275.228 260.095,275.228 260.127,284.938 274.794,284.871 
		274.929,260.602 41.968,260.73 41.767,216.973 100.158,217.106 100.091,158.714 216.469,158.512 216.604,100.458 274.794,100.525 
		274.862,85.941 216.402,86.028 216.537,27.881 143.508,27.706 143.508,42.134 202.107,42.134 201.918,144.199 100.158,144.353 
		100.023,86.173 41.767,86.028 41.699,18.087 34.529,18.074 	"/>
	<polyline fill="none" stroke="#FFF200" stroke-width="0.72" stroke-miterlimit="10" points="32.103,20.424 29.667,20.419 
		29.667,98.031 87.887,98.166 87.968,204.994 29.667,204.994 29.667,272.733 262.59,272.801 262.597,282.375 272.365,282.443 
		272.365,262.964 39.474,263.159 39.205,214.611 97.664,214.477 97.664,156.423 214.11,156.287 214.043,97.963 272.365,98.232 
		272.365,88.321 214.11,88.456 214.11,29.862 145.983,30.065 145.983,39.504 204.4,39.638 204.393,146.558 97.73,146.577 
		97.597,88.527 39.406,88.456 39.34,20.438 34.485,20.428 	"/>
	<polyline fill="none" stroke="#EC008C" stroke-width="0.72" stroke-miterlimit="10" points="32.282,22.779 32.081,22.779 
		32.081,95.693 90.404,95.604 90.383,207.354 32.081,207.354 32.081,270.283 265.175,270.464 265.066,279.996 269.939,280.084 
		270.028,265.326 37.001,265.429 36.822,212.297 95.258,212.117 95.168,153.79 211.682,153.771 211.682,95.604 269.939,95.693 
		270.028,90.479 211.758,90.57 211.682,32.236 148.396,32.424 148.396,37.437 206.916,37.347 206.806,148.917 95.258,149.095 
		95.168,90.875 37.091,90.749 36.879,22.779 34.665,22.779 	"/>
	<polyline fill="none" stroke="#000000" stroke-width="0.72" stroke-miterlimit="10" points="264.995,115.022 248.363,115.022 
		248.184,190.271 131.746,190.092 131.746,229.108 287.199,229.108 287.199,115.022 267.556,115.022 	"/>
	<polyline fill="none" stroke="#00AEEF" stroke-width="0.72" stroke-miterlimit="10" points="265.04,117.36 250.592,117.36 
		250.681,192.697 134.064,192.697 133.974,226.77 284.574,226.77 284.574,117.36 267.513,117.36 	"/>
	<polyline fill="none" stroke="#ED1C24" stroke-width="0.72" stroke-miterlimit="10" points="265.175,119.787 252.948,119.787 
		253.037,195.126 136.421,195.126 136.344,224.164 282.211,224.254 282.211,119.787 267.646,119.787 	"/>
	<polyline fill="none" stroke="#00A651" stroke-width="0.72" stroke-miterlimit="10" points="265.084,122.303 255.433,122.303 
		255.523,197.643 138.906,197.643 138.816,221.646 279.649,221.916 279.649,122.303 267.6,122.303 	"/>
	<polyline fill="none" stroke="#2E3192" stroke-width="0.72" stroke-miterlimit="10" points="265.128,124.552 257.743,124.552 
		257.832,199.89 141.215,199.89 141.125,219.488 277.356,219.488 277.356,124.552 267.468,124.552 	"/>
	<polyline fill="none" stroke="#A97C50" stroke-width="0.72" stroke-miterlimit="10" points="264.995,127.249 260.223,127.249 
		260.314,202.587 143.697,202.587 143.606,216.973 274.929,216.791 274.929,127.249 267.6,127.249 	"/>
	<polyline fill="none" stroke="#FFF200" stroke-width="0.72" stroke-miterlimit="10" points="265.128,129.586 262.594,129.586 
		262.683,204.924 146.066,204.924 146.041,214.61 272.365,214.477 272.365,129.586 267.513,129.586 	"/>
	<polyline fill="none" stroke="#EC008C" stroke-width="0.72" stroke-miterlimit="10" points="265.155,132.013 265.246,207.353 
		148.628,207.353 148.603,212.115 270.028,212.115 270.028,132.013 267.646,132.013 	"/>
	<path fill="none" stroke="#000000" stroke-width="0.72" stroke-miterlimit="10" d="M32.081,22.779"/>
	<polyline fill="none" stroke="#000000" stroke-width="0.72" stroke-miterlimit="10" points="231.102,15.631 231.102,54.472 
		287.199,54.472 287.199,15.631 233.617,15.631 	"/>
	<polyline fill="none" stroke="#00AEEF" stroke-width="0.72" stroke-miterlimit="10" points="233.617,18.06 233.617,51.91 
		284.574,51.91 284.574,18.06 235.866,18.06 	"/>
	<polyline fill="none" stroke="#ED1C24" stroke-width="0.72" stroke-miterlimit="10" points="235.866,20.419 235.866,49.617 
		282.211,49.551 282.211,20.419 238.383,20.419 	"/>
	<polyline fill="none" stroke="#00A651" stroke-width="0.72" stroke-miterlimit="10" points="238.383,22.779 238.383,47.19 
		279.649,47.19 279.649,22.779 240.899,22.779 	"/>
	<polyline fill="none" stroke="#2E3192" stroke-width="0.72" stroke-miterlimit="10" points="240.899,25.209 240.899,44.696 
		277.356,44.696 277.356,25.209 243.147,25.209 	"/>
	<polyline fill="none" stroke="#FFF200" stroke-width="0.72" stroke-miterlimit="10" points="245.599,29.996 245.732,39.841 
		272.365,39.841 272.365,29.93 248.161,29.996 	"/>
	<polyline fill="none" stroke="#C49A6C" stroke-width="0.72" stroke-miterlimit="10" points="243.201,27.701 243.201,42.301 
		274.929,42.267 274.929,27.701 245.494,27.701 	"/>
	<polyline fill="none" stroke="#EC008C" stroke-width="0.72" stroke-miterlimit="10" points="248.193,32.422 248.193,37.48 
		270.028,37.347 270.028,32.422 250.483,32.422 	"/>
	<polyline fill="none" stroke="#000000" stroke-width="0.72" stroke-miterlimit="10" points="73.195,15.631 73.195,54.472 
		129.294,54.472 129.294,15.631 75.713,15.631 	"/>
	<polyline fill="none" stroke="#00AEEF" stroke-width="0.72" stroke-miterlimit="10" points="75.713,18.06 75.713,51.91 
		126.668,51.91 126.668,18.06 77.96,18.06 	"/>
	<polyline fill="none" stroke="#ED1C24" stroke-width="0.72" stroke-miterlimit="10" points="77.96,20.419 77.96,49.617 
		124.306,49.551 124.306,20.419 80.477,20.419 	"/>
	<polyline fill="none" stroke="#00A651" stroke-width="0.72" stroke-miterlimit="10" points="80.477,22.779 80.477,47.19 
		121.742,47.19 121.742,22.779 82.994,22.779 	"/>
	<polyline fill="none" stroke="#2E3192" stroke-width="0.72" stroke-miterlimit="10" points="82.994,25.209 82.994,44.696 
		119.45,44.696 119.45,25.209 85.242,25.209 	"/>
	<polyline fill="none" stroke="#FFF200" stroke-width="0.72" stroke-miterlimit="10" points="87.692,29.996 87.827,39.841 
		114.46,39.841 114.46,29.93 90.253,29.996 	"/>
	<polyline fill="none" stroke="#C49A6C" stroke-width="0.72" stroke-miterlimit="10" points="85.297,27.701 85.297,42.301 
		117.022,42.267 117.022,27.701 87.589,27.701 	"/>
	<polyline fill="none" stroke="#EC008C" stroke-width="0.72" stroke-miterlimit="10" points="90.286,32.422 90.286,37.48 
		112.123,37.347 112.123,32.422 92.579,32.422 	"/>
	<polyline fill="none" stroke="#000000" stroke-width="0.72" stroke-miterlimit="10" points="14.855,131.843 14.855,170.686 
		70.955,170.686 70.955,131.843 17.373,131.843 	"/>
	<polyline fill="none" stroke="#00AEEF" stroke-width="0.72" stroke-miterlimit="10" points="17.373,134.272 17.373,168.123 
		68.329,168.123 68.329,134.272 19.621,134.272 	"/>
	<polyline fill="none" stroke="#ED1C24" stroke-width="0.72" stroke-miterlimit="10" points="19.621,136.631 19.621,165.831 
		65.965,165.764 65.965,136.631 22.139,136.631 	"/>
	<polyline fill="none" stroke="#00A651" stroke-width="0.72" stroke-miterlimit="10" points="22.139,138.991 22.139,163.402 
		63.403,163.402 63.403,138.991 24.655,138.991 	"/>
	<polyline fill="none" stroke="#2E3192" stroke-width="0.72" stroke-miterlimit="10" points="24.655,141.422 24.655,160.908 
		61.11,160.908 61.11,141.422 26.904,141.422 	"/>
	<polyline fill="none" stroke="#FFF200" stroke-width="0.72" stroke-miterlimit="10" points="29.353,146.209 29.488,156.054 
		56.121,156.054 56.121,146.142 31.915,146.209 	"/>
	<polyline fill="none" stroke="#C49A6C" stroke-width="0.72" stroke-miterlimit="10" points="26.958,143.914 26.958,158.514 
		58.683,158.479 58.683,143.914 29.249,143.914 	"/>
	<polyline fill="none" stroke="#EC008C" stroke-width="0.72" stroke-miterlimit="10" points="31.408,146.377 31.408,151.437 
		53.244,151.302 53.244,146.377 33.699,146.377 	"/>
	<polyline fill="none" stroke="#000000" stroke-width="0.72" stroke-miterlimit="10" points="170.585,73.518 131.744,73.518 
		131.744,129.617 170.585,129.617 170.585,76.036 	"/>
	<polyline fill="none" stroke="#00AEEF" stroke-width="0.72" stroke-miterlimit="10" points="168.156,76.036 134.307,76.036 
		134.307,126.991 168.156,126.991 168.156,78.282 	"/>
	<polyline fill="none" stroke="#ED1C24" stroke-width="0.72" stroke-miterlimit="10" points="165.798,78.282 136.598,78.282 
		136.666,124.626 165.798,124.626 165.798,80.801 	"/>
	<polyline fill="none" stroke="#00A651" stroke-width="0.72" stroke-miterlimit="10" points="163.438,80.801 139.026,80.801 
		139.026,122.064 163.438,122.064 163.438,83.317 	"/>
	<polyline fill="none" stroke="#2E3192" stroke-width="0.72" stroke-miterlimit="10" points="161.008,83.317 141.52,83.317 
		141.52,119.773 161.008,119.773 161.008,85.565 	"/>
	<polyline fill="none" stroke="#FFF200" stroke-width="0.72" stroke-miterlimit="10" points="156.221,88.014 146.375,88.15 
		146.375,114.783 156.287,114.783 156.221,90.576 	"/>
	<polyline fill="none" stroke="#C49A6C" stroke-width="0.72" stroke-miterlimit="10" points="158.516,85.62 143.916,85.62 
		143.95,117.345 158.516,117.345 158.516,87.912 	"/>
	<polyline fill="none" stroke="#EC008C" stroke-width="0.72" stroke-miterlimit="10" points="156.054,90.07 150.992,90.07 
		151.128,111.906 156.054,111.906 156.054,92.363 	"/>
</g>
</svg>
