<?xml version="1.0" encoding="utf-8"?>
<!-- Generator: Adobe Illustrator 15.1.0, SVG Export Plug-In . SVG Version: 6.00 Build 0)  -->
<!DOCTYPE svg PUBLIC "-//W3C//DTD SVG 1.0//EN" "http://www.w3.org/TR/2001/REC-SVG-20010904/DTD/svg10.dtd">
<svg version="1.0" id="Layer_1" xmlns="http://www.w3.org/2000/svg" xmlns:xlink="http://www.w3.org/1999/xlink" x="0px" y="0px"
	 width="300px" height="300px" viewBox="0 0 300 300" enable-background="new 0 0 300 300" xml:space="preserve">
<g>
	<polygon fill="none" stroke="#000000" stroke-miterlimit="10" points="213.77,0.5 -0.5,214.77 -0.5,225.137 224.137,0.5 	"/>
	<polygon fill="none" stroke="#000000" stroke-miterlimit="10" points="182.67,0.5 -0.5,183.67 -0.5,194.036 193.037,0.5 	"/>
	<polygon fill="none" stroke="#000000" stroke-miterlimit="10" points="203.404,0.5 -0.5,204.404 -0.5,214.77 213.77,0.5 	"/>
	<polygon fill="none" stroke="#000000" stroke-miterlimit="10" points="193.037,0.5 -0.5,194.036 -0.5,204.404 203.404,0.5 	"/>
	<polygon fill="none" stroke="#000000" stroke-miterlimit="10" points="151.572,0.5 -0.5,152.572 -0.5,162.938 161.938,0.5 	"/>
	<polygon fill="none" stroke="#000000" stroke-miterlimit="10" points="172.304,0.5 -0.5,173.304 -0.5,183.67 182.67,0.5 	"/>
	<polygon fill="none" stroke="#000000" stroke-miterlimit="10" points="161.938,0.5 -0.5,162.938 -0.5,173.304 172.304,0.5 	"/>
	<polygon fill="none" stroke="#000000" stroke-miterlimit="10" points="234.502,0.5 -0.5,235.502 -0.5,245.869 244.869,0.5 	"/>
	<polygon fill="none" stroke="#000000" stroke-miterlimit="10" points="265.602,0.5 -0.5,266.602 -0.5,276.967 275.967,0.5 	"/>
	<polygon fill="none" stroke="#000000" stroke-miterlimit="10" points="275.967,0.5 -0.5,276.967 -0.5,287.334 286.334,0.5 	"/>
	<polygon fill="none" stroke="#000000" stroke-miterlimit="10" points="255.235,0.5 -0.5,256.235 -0.5,266.602 265.602,0.5 	"/>
	<polygon fill="none" stroke="#000000" stroke-miterlimit="10" points="244.869,0.5 -0.5,245.869 -0.5,256.235 255.235,0.5 	"/>
	<polygon fill="none" stroke="#000000" stroke-miterlimit="10" points="139.725,0.5 -0.5,140.725 -0.5,152.572 151.572,0.5 	"/>
	<polygon fill="none" stroke="#000000" stroke-miterlimit="10" points="224.137,0.5 -0.5,225.137 -0.5,235.502 234.502,0.5 	"/>
	<polygon fill="none" stroke="#000000" stroke-miterlimit="10" points="87.893,0.5 -0.5,88.893 -0.5,99.259 98.258,0.5 	"/>
	<polygon fill="none" stroke="#000000" stroke-miterlimit="10" points="13.848,0.5 -0.5,14.848 -0.5,26.694 25.694,0.5 	"/>
	<polygon fill="none" stroke="#000000" stroke-miterlimit="10" points="25.694,0.5 -0.5,26.694 -0.5,37.061 36.061,0.5 	"/>
	<polygon fill="none" stroke="#000000" stroke-miterlimit="10" points="46.427,0.5 -0.5,47.427 -0.5,57.793 56.793,0.5 	"/>
	<polygon fill="none" stroke="#000000" stroke-miterlimit="10" points="36.061,0.5 -0.5,37.061 -0.5,47.427 46.427,0.5 	"/>
	<polygon fill="none" stroke="#000000" stroke-miterlimit="10" points="3.48,0.5 -0.5,4.48 -0.5,14.848 13.848,0.5 	"/>
	<polygon fill="none" stroke="#000000" stroke-miterlimit="10" points="-0.5,0.5 -0.5,4.48 3.48,0.5 	"/>
	<polygon fill="none" stroke="#000000" stroke-miterlimit="10" points="77.526,0.5 -0.5,78.526 -0.5,88.893 87.893,0.5 	"/>
	<polygon fill="none" stroke="#000000" stroke-miterlimit="10" points="108.625,0.5 -0.5,109.625 -0.5,119.991 118.991,0.5 	"/>
	<polygon fill="none" stroke="#000000" stroke-miterlimit="10" points="118.991,0.5 -0.5,119.991 -0.5,130.358 129.359,0.5 	"/>
	<polygon fill="none" stroke="#000000" stroke-miterlimit="10" points="98.258,0.5 -0.5,99.259 -0.5,109.625 108.625,0.5 	"/>
	<polygon fill="none" stroke="#000000" stroke-miterlimit="10" points="286.334,0.5 -0.5,287.334 -0.5,299.181 298.18,0.5 	"/>
	<polygon fill="none" stroke="#000000" stroke-miterlimit="10" points="129.359,0.5 -0.5,130.358 -0.5,140.725 139.725,0.5 	"/>
	<polygon fill="none" stroke="#000000" stroke-miterlimit="10" points="67.159,0.5 -0.5,68.159 -0.5,78.526 77.526,0.5 	"/>
	<polygon fill="none" stroke="#000000" stroke-miterlimit="10" points="56.793,0.5 -0.5,57.793 -0.5,68.159 67.159,0.5 	"/>
	<polygon fill="none" stroke="#000000" stroke-miterlimit="10" points="299.5,209.471 208.471,300.5 218.836,300.5 299.5,219.836 	
		"/>
	<polygon fill="none" stroke="#000000" stroke-miterlimit="10" points="299.5,219.836 218.836,300.5 229.203,300.5 299.5,230.203 	
		"/>
	<polygon fill="none" stroke="#000000" stroke-miterlimit="10" points="299.5,230.203 229.203,300.5 239.568,300.5 299.5,240.568 	
		"/>
	<polygon fill="none" stroke="#000000" stroke-miterlimit="10" points="299.5,0.5 298.18,0.5 -0.5,299.181 -0.5,300.5 8.547,300.5 
		299.5,9.547 	"/>
	<polygon fill="none" stroke="#000000" stroke-miterlimit="10" points="299.5,166.523 165.523,300.5 175.891,300.5 299.5,176.891 	
		"/>
	<polygon fill="none" stroke="#000000" stroke-miterlimit="10" points="299.5,176.891 175.891,300.5 186.256,300.5 299.5,187.256 	
		"/>
	<polygon fill="none" stroke="#000000" stroke-miterlimit="10" points="299.5,187.256 186.256,300.5 196.623,300.5 299.5,197.623 	
		"/>
	<polygon fill="none" stroke="#000000" stroke-miterlimit="10" points="299.5,156.157 155.157,300.5 165.523,300.5 299.5,166.523 	
		"/>
	<polygon fill="none" stroke="#000000" stroke-miterlimit="10" points="299.5,300.5 299.5,292.4 291.4,300.5 	"/>
	<polygon fill="none" stroke="#000000" stroke-miterlimit="10" points="299.5,271.669 270.669,300.5 281.034,300.5 299.5,282.034 	
		"/>
	<polygon fill="none" stroke="#000000" stroke-miterlimit="10" points="299.5,292.4 299.5,282.034 281.034,300.5 291.4,300.5 	"/>
	<polygon fill="none" stroke="#000000" stroke-miterlimit="10" points="299.5,240.568 239.568,300.5 249.936,300.5 299.5,250.936 	
		"/>
	<polygon fill="none" stroke="#000000" stroke-miterlimit="10" points="299.5,261.301 260.301,300.5 270.669,300.5 299.5,271.669 	
		"/>
	<polygon fill="none" stroke="#000000" stroke-miterlimit="10" points="299.5,250.936 249.936,300.5 260.301,300.5 299.5,261.301 	
		"/>
	<polygon fill="none" stroke="#000000" stroke-miterlimit="10" points="299.5,197.623 196.623,300.5 208.471,300.5 299.5,209.471 	
		"/>
	<polygon fill="none" stroke="#000000" stroke-miterlimit="10" points="299.5,51.013 50.013,300.5 60.38,300.5 299.5,61.38 	"/>
	<polygon fill="none" stroke="#000000" stroke-miterlimit="10" points="299.5,40.647 39.647,300.5 50.013,300.5 299.5,51.013 	"/>
	<polygon fill="none" stroke="#000000" stroke-miterlimit="10" points="299.5,61.38 60.38,300.5 70.746,300.5 299.5,71.746 	"/>
	<polygon fill="none" stroke="#000000" stroke-miterlimit="10" points="299.5,19.914 18.915,300.5 29.28,300.5 299.5,30.28 	"/>
	<polygon fill="none" stroke="#000000" stroke-miterlimit="10" points="299.5,9.547 8.547,300.5 18.915,300.5 299.5,19.914 	"/>
	<polygon fill="none" stroke="#000000" stroke-miterlimit="10" points="299.5,30.28 29.28,300.5 39.647,300.5 299.5,40.647 	"/>
	<polygon fill="none" stroke="#000000" stroke-miterlimit="10" points="299.5,71.746 70.746,300.5 81.112,300.5 299.5,82.112 	"/>
	<polygon fill="none" stroke="#000000" stroke-miterlimit="10" points="299.5,92.478 91.478,300.5 101.845,300.5 299.5,102.846 	"/>
	<polygon fill="none" stroke="#000000" stroke-miterlimit="10" points="299.5,123.577 122.577,300.5 132.944,300.5 299.5,133.944 	
		"/>
	<polygon fill="none" stroke="#000000" stroke-miterlimit="10" points="299.5,113.211 112.211,300.5 122.577,300.5 299.5,123.577 	
		"/>
	<polygon fill="none" stroke="#000000" stroke-miterlimit="10" points="299.5,133.944 132.944,300.5 144.792,300.5 299.5,145.792 	
		"/>
	<polygon fill="none" stroke="#000000" stroke-miterlimit="10" points="299.5,82.112 81.112,300.5 91.478,300.5 299.5,92.478 	"/>
	<polygon fill="none" stroke="#000000" stroke-miterlimit="10" points="299.5,102.846 101.845,300.5 112.211,300.5 299.5,113.211 	
		"/>
	<polygon fill="none" stroke="#000000" stroke-miterlimit="10" points="299.5,145.792 144.792,300.5 155.157,300.5 299.5,156.157 	
		"/>
</g>
</svg>
