<?xml version="1.0" encoding="utf-8"?>
<!-- Generator: Adobe Illustrator 15.1.0, SVG Export Plug-In . SVG Version: 6.00 Build 0)  -->
<!DOCTYPE svg PUBLIC "-//W3C//DTD SVG 1.1//EN" "http://www.w3.org/Graphics/SVG/1.1/DTD/svg11.dtd">
<svg version="1.1" id="Layer_1" xmlns="http://www.w3.org/2000/svg" xmlns:xlink="http://www.w3.org/1999/xlink" x="0px" y="0px"
	 width="300px" height="300px" viewBox="0 0 300 300" enable-background="new 0 0 300 300" xml:space="preserve">
<path fill="none" stroke="#000000" stroke-width="0.25" stroke-linecap="round" stroke-miterlimit="10" d="M0,0
	c-0.211,0-0.422,0-0.633,0c97.836,0,195.672,0,293.508,0c2.375,0,4.75,0,7.125,0"/>
<path fill="none" stroke="#000000" stroke-width="0.25" stroke-linecap="round" stroke-miterlimit="10" d="M0,4
	c-0.211,0-0.422,0-0.633,0c97.836,0,195.672,0,293.508,0c2.375,0,4.75,0,7.125,0"/>
<path fill="none" stroke="#000000" stroke-width="0.25" stroke-linecap="round" stroke-miterlimit="10" d="M0,8
	c-0.211,0-0.422,0-0.633,0c97.836,0,195.672,0,293.508,0c2.375,0,4.75,0,7.125,0"/>
<path fill="none" stroke="#000000" stroke-width="0.25" stroke-linecap="round" stroke-miterlimit="10" d="M0,12
	c-0.211,0-0.422,0-0.633,0c97.836,0,195.672,0,293.508,0c2.375,0,4.75,0,7.125,0"/>
<path fill="none" stroke="#000000" stroke-width="0.25" stroke-linecap="round" stroke-miterlimit="10" d="M0,16
	c-0.211,0-0.422,0-0.633,0c97.836,0,195.672,0,293.508,0c2.375,0,4.75,0,7.125,0"/>
<path fill="none" stroke="#000000" stroke-width="0.25" stroke-linecap="round" stroke-miterlimit="10" d="M0,20
	c-0.211,0-0.422,0-0.633,0c97.836,0,195.672,0,293.508,0c2.375,0,4.75,0,7.125,0"/>
<path fill="none" stroke="#000000" stroke-width="0.25" stroke-linecap="round" stroke-miterlimit="10" d="M0,24
	c-0.211,0-0.422,0-0.633,0c97.836,0,195.672,0,293.508,0c2.375,0,4.75,0,7.125,0"/>
<path fill="none" stroke="#000000" stroke-width="0.25" stroke-linecap="round" stroke-miterlimit="10" d="M0,28
	c-0.211,0-0.422,0-0.633,0c97.836,0,195.672,0,293.508,0c2.375,0,4.75,0,7.125,0"/>
<path fill="none" stroke="#000000" stroke-width="0.25" stroke-linecap="round" stroke-miterlimit="10" d="M0,32
	c-0.211,0-0.422,0-0.633,0c97.836,0,195.672,0,293.508,0c2.375,0,4.75,0,7.125,0"/>
<path fill="none" stroke="#000000" stroke-width="0.25" stroke-linecap="round" stroke-miterlimit="10" d="M0,36
	c-0.211,0-0.422,0-0.633,0c97.836,0,195.672,0,293.508,0c2.375,0,4.75,0,7.125,0"/>
<path fill="none" stroke="#000000" stroke-width="0.25" stroke-linecap="round" stroke-miterlimit="10" d="M0,40
	c-0.211,0-0.422,0-0.633,0C47.578,40,95.789,40,144,40c4.965,0,8.312,2.161,11.368-2.931c1.473-2.453,3.161-8.06,6.158-9.068
	c4.551-1.532,5.396,13.45,9.947,11.918c2.775-0.934,4.385-5.961,5.685-8.254c0.737-1.302,1.562-2.887,2.842-3.745
	c2.881-1.93,5.938,0,9,0c3,0,6,0,9,0c2.586,0,5.129-1.481,7.714-0.633c3.971,1.303,5.841,7.13,8.036,10.26
	c1.865,2.66,4.093,3.762,7.393,3.085C224.926,39.857,228.649,40,232.5,40c8,0,16,0,24,0c14.5,0,29,0,43.5,0"/>
<path fill="none" stroke="#000000" stroke-width="0.25" stroke-linecap="round" stroke-miterlimit="10" d="M0,44
	c-0.211,0-0.422,0-0.633,0C22.578,44,45.789,44,69,44c12.5,0,25,0,37.5,0c6,0,12,0,18,0c3,0,6,0,9,0c2.924,0,6.388,1.56,9.214,0.633
	c3.693-1.212,5.537-6.449,7.473-9.425c3.652-5.611,7.598-3.288,13.312-3.288c12.5,0,25,0,37.5,0c2.838,0,5.782,0.258,8.571-0.352
	c2.417-0.529,4.959-1.045,6.991,0.796c3.198,2.899,4.444,7.435,7.312,10.622c1.68,1.867,3.901,2.132,6.268,1.646
	c2.83-0.581,5.472-0.633,8.357-0.633c6.5,0,13,0,19.5,0c14,0,28,0,42,0"/>
<path fill="none" stroke="#000000" stroke-width="0.25" stroke-linecap="round" stroke-miterlimit="10" d="M0,48
	c-0.211,0-0.422,0-0.633,0C22.578,48,45.789,48,69,48c12.5,0,25,0,37.5,0c6,0,12,0,18,0c3,0,6,0,9,0c2.924,0,6.388,1.56,9.214,0.633
	c3.693-1.212,5.537-6.449,7.473-9.425c3.652-5.611,7.598-3.288,13.312-3.288c12.5,0,25,0,37.5,0c5.634,0,12.055,0.855,17.571-0.352
	c6.048-1.323,8.087,1.622,10.929,6.392c2.331,3.912,4.397,7.749,9.643,6.673C245.247,47.381,251.783,48,258,48c14,0,28,0,42,0"/>
<path fill="none" stroke="#000000" stroke-width="0.25" stroke-linecap="round" stroke-miterlimit="10" d="M0,52
	c-0.211,0-0.422,0-0.633,0C22.578,52,45.789,52,69,52c12.5,0,25,0,37.5,0c6,0,12,0,18,0c3,0,6,0,9,0c2.924,0,6.388,1.56,9.214,0.633
	c3.693-1.212,5.537-6.449,7.473-9.425c3.652-5.611,7.598-3.288,13.312-3.288c12.5,0,25,0,37.5,0c5.634,0,12.055,0.855,17.571-0.352
	c6.048-1.323,8.087,1.622,10.929,6.392c2.331,3.912,4.397,7.749,9.643,6.673C245.247,51.381,251.783,52,258,52c14,0,28,0,42,0"/>
<path fill="none" stroke="#000000" stroke-width="0.25" stroke-linecap="round" stroke-miterlimit="10" d="M0,56
	c-0.211,0-0.422,0-0.633,0C22.578,56,45.789,56,69,56c12.5,0,25,0,37.5,0c6,0,12,0,18,0c3,0,6,0,9,0c2.924,0,6.388,1.56,9.214,0.633
	c3.693-1.212,5.537-6.449,7.473-9.425c3.652-5.611,7.598-3.288,13.312-3.288c12.5,0,25,0,37.5,0c6,0,12,0,18,0
	c2.838,0,5.782,0.258,8.571-0.352c2.779-0.608,5.46-0.961,7.554,1.365c2.713,3.015,4.037,7.039,6.75,10.053
	c1.68,1.867,3.901,2.132,6.268,1.646C251.452,55.954,254.629,56,258,56c14,0,28,0,42,0"/>
<path fill="none" stroke="#000000" stroke-width="0.25" stroke-linecap="round" stroke-miterlimit="10" d="M0,60
	c-0.211,0-0.422,0-0.633,0C22.578,60,45.789,60,69,60c12.5,0,25,0,37.5,0c6,0,12,0,18,0c3,0,6,0,9,0c2.924,0,6.388,1.56,9.214,0.633
	c3.693-1.212,5.537-6.449,7.473-9.425c3.652-5.611,7.598-3.288,13.312-3.288c2.866,0,5.947,0.321,8.786-0.105
	c2.608-0.392,5.27-1.532,7.714,0.105c3.41,2.285,4.855,7.236,7.312,10.391c2.903,3.729,8.53,4.323,11.812,0.675
	c2.868-3.187,4.114-7.723,7.312-10.622c2.032-1.842,4.574-1.325,6.991-0.796c2.789,0.61,5.733,0.352,8.571,0.352
	c5.283,0,10.68-2.64,14.25,2.453c2.195,3.13,4.065,8.957,8.036,10.26C247.112,61.56,250.576,60,253.5,60c3.5,0,7,0,10.5,0
	c12,0,24,0,36,0"/>
<path fill="none" stroke="#000000" stroke-width="0.25" stroke-linecap="round" stroke-miterlimit="10" d="M0,64
	c-0.211,0-0.422,0-0.633,0C22.578,64,45.789,64,69,64c12.5,0,25,0,37.5,0c6,0,12,0,18,0c2.656,0,5.293,0.801,7.929,0.665
	c2.817-0.146,4.626-2.105,6.321-4.127c3.423-4.083,6.201-7.061,11.679-8.163c2.881-0.58,5.64-0.723,8.571-0.563
	c3.215,0.175,6.302-0.984,9.429-0.77c4.238,0.29,6.287,5.7,8.196,8.784c0.909,1.469,1.905,3.19,3.375,4.175c2.881,1.93,5.938,0,9,0
	c3,0,6,0,9,0c2.586,0,5.129,1.481,7.714,0.633c3.971-1.303,5.841-7.129,8.036-10.26c3.617-5.159,7.5-1.801,12.536-2.559
	c2.608-0.392,5.27-1.532,7.714,0.105c1.752,1.174,2.881,3.342,3.938,5.099c2.478,4.119,4.545,8.775,10.205,7.614
	C254.247,63.381,260.783,64,267,64c11,0,22,0,33,0"/>
<path fill="none" stroke="#000000" stroke-width="0.25" stroke-linecap="round" stroke-miterlimit="10" d="M0,68
	c-0.211,0-0.422,0-0.633,0C22.578,68,45.789,68,69,68c12.5,0,25,0,37.5,0c6,0,12,0,18,0c5.715,0,9.661,2.324,13.312-3.288
	c1.937-2.976,3.78-8.213,7.473-9.425c2.585-0.849,5.128,0.633,7.714,0.633c3.062,0,6.119-1.93,9,0c3.134,2.1,4.648,6.631,6.75,9.627
	C172.32,70.64,177.717,68,183,68c6,0,12,0,18,0c2.838,0,5.782-0.258,8.571,0.352c2.779,0.608,5.46,0.961,7.554-1.365
	c2.713-3.014,4.037-7.038,6.75-10.053c1.659-1.844,3.909-2.203,6.268-1.751c3.06,0.586,5.933,0.543,9,0.87
	c5.306,0.566,7.376,5.693,10.286,9.426C253.411,70.586,259.829,68,265.5,68c11.5,0,23,0,34.5,0"/>
<path fill="none" stroke="#000000" stroke-width="0.25" stroke-linecap="round" stroke-miterlimit="10" d="M0,72
	c-0.211,0-0.422,0-0.633,0C22.578,72,45.789,72,69,72c12.5,0,25,0,37.5,0c6,0,12,0,18,0c5.715,0,9.661,2.324,13.312-3.288
	c1.937-2.976,3.78-8.213,7.473-9.425c2.585-0.849,5.128,0.633,7.714,0.633c3.062,0,6.119-1.93,9,0c3.134,2.1,4.648,6.631,6.75,9.627
	C172.32,74.64,177.717,72,183,72c6,0,12,0,18,0c2.838,0,5.782-0.258,8.571,0.352c2.779,0.608,5.46,0.961,7.554-1.365
	c2.713-3.014,4.037-7.038,6.75-10.053c1.68-1.867,3.901-2.132,6.268-1.646c3.359,0.689,5.676,0.153,9-0.211
	c5.424-0.593,7.646,5.951,10.045,9.636C253.016,74.595,257.985,72,264,72c12,0,24,0,36,0"/>
<path fill="none" stroke="#000000" stroke-width="0.25" stroke-linecap="round" stroke-miterlimit="10" d="M0,76
	c-0.211,0-0.422,0-0.633,0C22.578,76,45.789,76,69,76c12.5,0,25,0,37.5,0c6,0,12,0,18,0c5.715,0,9.661,2.324,13.312-3.288
	c1.937-2.976,3.78-8.213,7.473-9.425c2.585-0.849,5.128,0.633,7.714,0.633c3.062,0,6.119-1.93,9,0c3.134,2.1,4.648,6.631,6.75,9.627
	C172.32,78.64,177.717,76,183,76c6,0,12,0,18,0c2.838,0,5.782-0.258,8.571,0.352c2.779,0.608,5.46,0.961,7.554-1.365
	c2.713-3.014,4.037-7.038,6.75-10.053c1.68-1.867,3.901-2.132,6.268-1.646c3.359,0.689,5.676,0.153,9-0.211
	c5.424-0.593,7.646,5.951,10.045,9.636C253.016,78.595,257.985,76,264,76c12,0,24,0,36,0"/>
<path fill="none" stroke="#000000" stroke-width="0.25" stroke-linecap="round" stroke-miterlimit="10" d="M0,80
	c-0.211,0-0.422,0-0.633,0C22.578,80,45.789,80,69,80c12.5,0,25,0,37.5,0c3,0,6,0,9,0c2.665,0,5.299,1.059,7.929,0.879
	c4.521-0.309,6.661-6.447,8.759-9.671c1.034-1.589,2.203-3.299,4.098-3.92c2.585-0.849,5.128,0.633,7.714,0.633c3,0,6,0,9,0
	c3.062,0,6.119-1.93,9,0c3.134,2.1,4.648,6.631,6.75,9.627C172.32,82.64,177.717,80,183,80c6,0,12,0,18,0
	c5.837,0,13.102,2.024,18-1.819c6.679-5.239,19.676-17.939,26.812-6.974c1.937,2.976,3.779,8.213,7.474,9.425
	C255.871,81.481,258.414,80,261,80c3,0,6,0,9,0c10,0,20,0,30,0"/>
<path fill="none" stroke="#000000" stroke-width="0.25" stroke-linecap="round" stroke-miterlimit="10" d="M0,84
	c-0.211,0-0.422,0-0.633,0C22.578,84,45.789,84,69,84c12.5,0,25,0,37.5,0c3,0,6,0,9,0c2.665,0,5.299,1.059,7.929,0.879
	c4.521-0.309,6.661-6.447,8.759-9.671c1.034-1.589,2.203-3.299,4.098-3.92c2.585-0.849,5.128,0.633,7.714,0.633
	c5.673,0,12.986-1.109,18,2.25c3.502,2.358,4.965,6.829,8.308,9.375c2.132,1.624,4.683,1.177,7.121,0.742
	C180.711,83.701,184.178,84,187.5,84c6,0,12,0,18,0c3,0,6,0,9,0c2.924,0,6.388,1.56,9.214,0.633
	c3.694-1.212,5.537-6.449,7.474-9.425c2.726-4.188,8.045-6.768,12.375-2.843c3.198,2.899,4.444,7.435,7.312,10.622
	c1.68,1.867,3.901,2.132,6.268,1.646C260.452,83.954,263.629,84,267,84c11,0,22,0,33,0"/>
<path fill="none" stroke="#000000" stroke-width="0.25" stroke-linecap="round" stroke-miterlimit="10" d="M0,88
	c-0.211,0-0.422,0-0.633,0C22.578,88,45.789,88,69,88c12.5,0,25,0,37.5,0c3,0,6,0,9,0c2.665,0,5.299,1.059,7.929,0.879
	c4.521-0.309,6.661-6.447,8.759-9.671c1.034-1.589,2.203-3.299,4.098-3.92c2.585-0.849,5.128,0.633,7.714,0.633
	s5.129-1.481,7.714-0.633c2.211,0.725,3.51,2.949,4.661,4.809c1.909,3.083,3.958,8.494,8.196,8.783
	C167.2,89.059,169.835,88,172.5,88c3.5,0,7,0,10.5,0c6,0,12,0,18,0c6.217,0,12.753-0.619,18.857,0.633
	c10.591,2.172,9.475-17.129,20.571-13.943c4.584,1.316,6.39,6.382,8.759,10.023C253.016,90.595,257.985,88,264,88c12,0,24,0,36,0"/>
<path fill="none" stroke="#000000" stroke-width="0.25" stroke-linecap="round" stroke-miterlimit="10" d="M0,92
	c-0.211,0-0.422,0-0.633,0C22.578,92,45.789,92,69,92c12.5,0,25,0,37.5,0c5.018,0,9.32,2.439,12.75-2.453
	c2.195-3.13,4.066-8.958,8.036-10.26c2.585-0.849,5.128,0.633,7.714,0.633c3,0,6,0,9,0c2.586,0,5.129-1.481,7.714-0.633
	c2.211,0.725,3.51,2.949,4.661,4.809c1.909,3.083,3.958,8.494,8.196,8.783C167.2,93.059,169.835,92,172.5,92c3.5,0,7,0,10.5,0
	c6,0,12,0,18,0c6.217,0,12.753-0.619,18.857,0.633c10.591,2.172,9.475-17.129,20.571-13.943c4.584,1.316,6.39,6.382,8.759,10.023
	C253.016,94.595,257.985,92,264,92c12,0,24,0,36,0"/>
<path fill="none" stroke="#000000" stroke-width="0.25" stroke-linecap="round" stroke-miterlimit="10" d="M0,96
	c-0.211,0-0.422,0-0.633,0C22.578,96,45.789,96,69,96c12.5,0,25,0,37.5,0c5.018,0,9.32,2.439,12.75-2.453
	c2.195-3.13,4.066-8.958,8.036-10.26c2.585-0.849,5.128,0.633,7.714,0.633c3,0,6,0,9,0c2.586,0,5.129-1.481,7.714-0.633
	c2.211,0.725,3.51,2.949,4.661,4.809c1.909,3.083,3.958,8.494,8.196,8.783C167.2,97.059,169.835,96,172.5,96c3.5,0,7,0,10.5,0
	c6,0,12,0,18,0c6.217,0,12.753-0.619,18.857,0.633c10.591,2.172,9.475-17.129,20.571-13.943c4.584,1.316,6.39,6.382,8.759,10.023
	C253.016,98.595,257.985,96,264,96c12,0,24,0,36,0"/>
<path fill="none" stroke="#000000" stroke-width="0.25" stroke-linecap="round" stroke-miterlimit="10" d="M0,100
	c-0.211,0-0.422,0-0.633,0c23.211,0,46.422,0,69.633,0c6,0,12,0,18,0c3,0,6,0,9,0c3.132,0,6.366,1.088,9.429,0.879
	c4.238-0.29,6.288-5.7,8.196-8.783c0.909-1.469,1.905-3.191,3.375-4.176c2.881-1.93,5.938,0,9,0c6,0,12,0,18,0
	c2.586,0,5.129-1.481,7.714-0.633c2.211,0.725,3.51,2.949,4.661,4.809c1.909,3.083,3.958,8.494,8.196,8.783
	c2.629,0.18,5.264-0.879,7.929-0.879c3.5,0,7,0,10.5,0c6,0,12,0,18,0c6.217,0,12.753-0.619,18.857,0.633
	c10.591,2.172,9.475-17.129,20.571-13.943c4.584,1.316,6.39,6.382,8.759,10.023C253.016,102.595,257.985,100,264,100c12,0,24,0,36,0
	"/>
<path fill="none" stroke="#000000" stroke-width="0.25" stroke-linecap="round" stroke-miterlimit="10" d="M0,104
	c-0.211,0-0.422,0-0.633,0c23.211,0,46.422,0,69.633,0c6,0,12,0,18,0c3,0,6,0,9,0c3.132,0,6.366,1.088,9.429,0.879
	c4.238-0.29,6.288-5.7,8.196-8.783c0.909-1.469,1.905-3.191,3.375-4.176c2.881-1.93,5.938,0,9,0c6,0,12,0,18,0
	c2.586,0,5.129-1.481,7.714-0.633c2.211,0.725,3.51,2.949,4.661,4.809c1.909,3.083,3.958,8.494,8.196,8.783
	c2.629,0.18,5.264-0.879,7.929-0.879c3.5,0,7,0,10.5,0c12.075,0,24.899,1.281,36.857-0.412c5.337-0.756,7.613-4.326,10.681-8.256
	c3.015-3.862,8.644-6.938,13.024-2.967c3.198,2.899,4.444,7.435,7.312,10.622c1.68,1.867,3.901,2.132,6.268,1.646
	c3.31-0.679,6.486-0.633,9.857-0.633c11,0,22,0,33,0"/>
<path fill="none" stroke="#000000" stroke-width="0.25" stroke-linecap="round" stroke-miterlimit="10" d="M0,108
	c-0.211,0-0.422,0-0.633,0c23.211,0,46.422,0,69.633,0c6,0,12,0,18,0c5.283,0,10.679,2.64,14.25-2.453
	c2.101-2.997,3.616-7.527,6.75-9.627c2.444-1.638,5.106-0.498,7.714-0.105c3.314,0.499,6.938,0.105,10.286,0.105
	c5.988,0,12.018-0.24,18,0c2.579,0.104,5.193-0.907,7.714,0.051c2.265,0.859,3.627,3.059,4.886,4.992
	c2.233,3.429,4.39,8.332,9.258,7.831C172.11,108.15,178.18,108,184.5,108c6,0,12,0,18,0c4.825,0,11.776,2.692,15.188-1.689
	c2.427-3.116,3.792-7.265,6.75-9.946c2.032-1.842,4.574-1.325,6.991-0.796c3.202,0.701,5.868-0.741,9-0.527
	c4.521,0.309,6.66,6.448,8.759,9.671C253.016,110.595,257.985,108,264,108c12,0,24,0,36,0"/>
<path fill="none" stroke="#000000" stroke-width="0.25" stroke-linecap="round" stroke-miterlimit="10" d="M0,112
	c-0.211,0-0.422,0-0.633,0c23.211,0,46.422,0,69.633,0c6,0,12,0,18,0c5.283,0,10.679,2.64,14.25-2.453
	c2.101-2.997,3.616-7.527,6.75-9.627c2.444-1.638,5.106-0.498,7.714-0.105c3.314,0.499,6.938,0.105,10.286,0.105c3,0,6,0,9,0
	c2.586,0,5.129-1.481,7.714-0.633c3.97,1.303,5.841,7.13,8.036,10.26c3.43,4.892,7.731,2.453,12.75,2.453c6.5,0,13,0,19.5,0
	c6,0,12,0,18,0c2.838,0,5.782-0.258,8.571,0.352c2.779,0.608,5.46,0.961,7.554-1.365c2.713-3.014,4.037-7.038,6.75-10.053
	c1.68-1.867,3.901-2.132,6.268-1.646c3.359,0.689,5.676,0.153,9-0.211c5.424-0.593,7.646,5.951,10.045,9.636
	C253.016,114.595,257.985,112,264,112c12,0,24,0,36,0"/>
<path fill="none" stroke="#000000" stroke-width="0.25" stroke-linecap="round" stroke-miterlimit="10" d="M0,116
	c-0.211,0-0.422,0-0.633,0c23.211,0,46.422,0,69.633,0c5.841,0,11.375,0.213,17.143,0.844c5.115,0.56,7.273-5.18,9.482-8.748
	c3.063-4.949,5.54-5.116,11.089-4.281c6.167,0.928,13.048,0.105,19.286,0.105c3,0,6,0,9,0c2.586,0,5.129-1.481,7.714-0.633
	c3.97,1.303,5.841,7.13,8.036,10.26c3.43,4.892,7.731,2.453,12.75,2.453c6.5,0,13,0,19.5,0c6,0,12,0,18,0
	c2.838,0,5.782-0.258,8.571,0.352c2.779,0.608,5.46,0.961,7.554-1.365c2.713-3.014,4.037-7.038,6.75-10.053
	c1.68-1.867,3.901-2.132,6.268-1.646c3.359,0.689,5.676,0.153,9-0.211c5.424-0.593,7.646,5.951,10.045,9.636
	C253.016,118.595,257.985,116,264,116c12,0,24,0,36,0"/>
<path fill="none" stroke="#000000" stroke-width="0.25" stroke-linecap="round" stroke-miterlimit="10" d="M0,120
	c-0.211,0-0.422,0-0.633,0c23.211,0,46.422,0,69.633,0c5.841,0,11.375,0.213,17.143,0.844c5.115,0.56,7.273-5.18,9.482-8.748
	c3.063-4.949,5.54-5.116,11.089-4.281c6.167,0.928,13.048,0.105,19.286,0.105c3,0,6,0,9,0c2.586,0,5.129-1.481,7.714-0.633
	c3.97,1.303,5.841,7.13,8.036,10.26c3.43,4.892,7.731,2.453,12.75,2.453c6.5,0,13,0,19.5,0c6,0,12,0,18,0
	c2.838,0,5.782-0.258,8.571,0.352c2.779,0.608,5.46,0.961,7.554-1.365c2.713-3.014,4.037-7.038,6.75-10.053
	c3.692-4.103,9.492-2.673,12.375,1.439c2.195,3.13,4.065,8.957,8.036,10.26c2.826,0.927,6.29-0.633,9.214-0.633c3.5,0,7,0,10.5,0
	c12,0,24,0,36,0"/>
<path fill="none" stroke="#000000" stroke-width="0.25" stroke-linecap="round" stroke-miterlimit="10" d="M0,124
	c-0.211,0-0.422,0-0.633,0c23.211,0,46.422,0,69.633,0c4.628,0,10.354,2.593,13.688-1.689c2.457-3.155,3.902-8.106,7.312-10.391
	c2.444-1.638,5.106-0.498,7.714-0.105c2.838,0.427,5.92,0.105,8.786,0.105c6.5,0,13,0,19.5,0c3,0,6,0,9,0
	c2.586,0,5.129-1.481,7.714-0.633c3.97,1.303,5.841,7.13,8.036,10.26c3.43,4.892,7.731,2.453,12.75,2.453c6.5,0,13,0,19.5,0
	c5.634,0,12.055-0.855,17.571,0.352c6.048,1.323,8.087-1.622,10.929-6.392c2.331-3.912,4.397-7.749,9.643-6.673
	c2.822,0.579,4.893,0.579,7.715,0c2.805-0.575,5.064,0.054,6.83,2.322c2.528,3.248,4.345,9.628,8.599,11.024
	c2.826,0.927,6.29-0.633,9.214-0.633c3.5,0,7,0,10.5,0c12,0,24,0,36,0"/>
<path fill="none" stroke="#000000" stroke-width="0.25" stroke-linecap="round" stroke-miterlimit="10" d="M0,128
	c-0.211,0-0.422,0-0.633,0c23.211,0,46.422,0,69.633,0c4.628,0,10.354,2.593,13.688-1.689c2.457-3.155,3.902-8.106,7.312-10.391
	c2.444-1.638,5.106-0.498,7.714-0.105c2.625,0.395,5.103-0.757,7.714-0.612c4.547,0.254,6.283,5.561,8.759,8.598
	c2.666,3.269,4.768,1.352,6.75-1.519c2.781-4.028,4.559-7.823,10.206-6.878c5.414,0.906,11.258,0.733,16.714,0.214
	c5.733-0.545,7.833,4.006,10.543,8.146c0.979,1.496,2.049,3.259,3.6,4.236c2.453,1.545,5.114,0.467,7.714,0.099
	C175.91,127.223,182.741,128,189,128c3,0,6,0,9,0c2.586,0,5.129,1.481,7.714,0.633c3.971-1.303,5.841-7.129,8.036-10.26
	c2.286-3.261,4.896-3.632,8.679-2.805c3.878,0.849,8.884-2.149,12.134,0.796c4.584,4.155,5.646,13.896,13.58,12.268
	C256.997,126.817,266.971,128,276,128c8,0,16,0,24,0"/>
<path fill="none" stroke="#000000" stroke-width="0.25" stroke-linecap="round" stroke-miterlimit="10" d="M0,132
	c-0.211,0-0.422,0-0.633,0c10.711,0,21.422,0,32.133,0c12.227,0,24.528-0.481,36.643,0.844c4.787,0.523,6.865-4.409,8.919-7.825
	c0.972-1.616,1.962-3.374,3.375-4.654c2.455-2.225,5.444-0.976,8.277-0.55c2.838,0.427,5.92,0.105,8.786,0.105
	c2.665,0,5.299-1.059,7.929-0.879c4.293,0.293,5.992,5.815,7.782,8.957c1.214,2.13,3.237,5.636,5.684,2.833
	c2.594-2.971,3.595-7.033,6.158-10.029c1.566-1.83,3.868-1.97,6.09-1.514c2.83,0.581,5.471,0.633,8.357,0.633
	c4.825,0,11.777-2.692,15.188,1.689c2.426,3.117,3.792,7.266,6.75,9.946c2.032,1.842,4.574,1.325,6.991,0.796
	c3.248-0.71,6.765-0.352,10.071-0.352c3,0,6,0,9,0c2.665,0,5.3,1.059,7.929,0.879c4.521-0.309,6.661-6.447,8.759-9.671
	c2.406-3.698,4.879-4.593,9.241-3.639c4.75,1.039,10.699,0.688,15.429-0.281c9.408-1.929,8.335,11.018,15.429,13.346
	c2.143,0.703,4.313-0.209,6.428-0.527C253.076,131.75,255.616,132,258,132c5.5,0,11,0,16.5,0c8.5,0,17,0,25.5,0"/>
<path fill="none" stroke="#000000" stroke-width="0.25" stroke-linecap="round" stroke-miterlimit="10" d="M0,136
	c-0.211,0-0.422,0-0.633,0c10.711,0,21.422,0,32.133,0c6,0,12,0,18,0c4.825,0,11.777,2.692,15.188-1.689
	c2.426-3.116,3.792-7.265,6.75-9.946c2.032-1.842,4.574-1.325,6.991-0.796c3.248,0.71,6.765,0.352,10.071,0.352
	c5.019,0,9.32-2.439,12.75,2.453c2.403,3.427,4.04,8.453,8.036,10.365c11.556,5.53,10.967-14.712,20.571-13.662
	c11.91,1.303,24.139-0.423,36,1.256c5.371,0.761,7.604,4.363,10.681,8.316c3.235,4.155,8.623,6.079,13.062,2.111
	c3.042-2.719,4.41-6.869,7.2-9.815c1.73-1.827,3.964-2.073,6.343-1.616c3.307,0.634,6.497,0.592,9.857,0.592
	c3.512,0,8.916-2.066,12,0c2.313,1.55,3.674,4.673,5.062,6.981c1.506,2.504,3.212,5.752,6.509,5.978
	c2.193,0.15,4.247-0.879,6.429-0.879c2.5,0,5,0,7.5,0c16.5,0,33,0,49.5,0"/>
<path fill="none" stroke="#000000" stroke-width="0.25" stroke-linecap="round" stroke-miterlimit="10" d="M0,140
	c-0.211,0-0.422,0-0.633,0c10.711,0,21.422,0,32.133,0c6,0,12,0,18,0c4.825,0,11.777,2.692,15.188-1.689
	c2.426-3.116,3.792-7.265,6.75-9.946c2.032-1.842,4.574-1.325,6.991-0.796c3.248,0.71,6.765,0.352,10.071,0.352
	c4.634,0,9.319-2.544,12.395,2.172c1.874,2.874,3.155,7.673,6.158,9.595c2.549,1.63,4.858-3.876,5.684-5.412
	c2.19-4.072,3.963-8.104,9.406-6.988c5.643,1.157,11.611,0.633,17.357,0.633c6.5,0,13,0,19.5,0c12.5,0,25,0,37.5,0c6,0,12,0,18,0
	c5.715,0,9.66-2.324,13.312,3.288c2.861,4.397,4.92,10.74,11.33,9.425C246.166,139.192,253.845,140,261,140c13,0,26,0,39,0"/>
<path fill="none" stroke="#000000" stroke-width="0.25" stroke-linecap="round" stroke-miterlimit="10" d="M0,144
	c-0.211,0-0.422,0-0.633,0c10.711,0,21.422,0,32.133,0c5.746,0,11.714-0.524,17.357,0.633c5.661,1.161,7.729-3.495,10.206-7.614
	c2.683-4.461,4.854-6.656,10.366-5.451c2.789,0.61,5.734,0.352,8.571,0.352c3.132,0,6.366-1.088,9.429-0.879
	C96.097,131.634,96.241,151.878,108,144c3.134-2.1,4.649-6.631,6.75-9.627c3.571-5.093,8.967-2.453,14.25-2.453c12.5,0,25,0,37.5,0
	s25,0,37.5,0c4.628,0,10.354-2.593,13.688,1.689c2.456,3.156,3.902,8.106,7.312,10.391c2.444,1.638,5.105,0.498,7.714,0.105
	C236.028,143.607,239.652,144,243,144c7,0,14,0,21,0c12,0,24,0,36,0"/>
<path fill="none" stroke="#000000" stroke-width="0.25" stroke-linecap="round" stroke-miterlimit="10" d="M0,148
	c-0.211,0-0.422,0-0.633,0c10.711,0,21.422,0,32.133,0c2.886,0,5.527,0.052,8.357,0.633c2.366,0.485,4.588,0.22,6.268-1.646
	c2.869-3.187,4.114-7.723,7.312-10.622c2.032-1.842,4.574-1.325,6.991-0.796c2.789,0.61,5.734,0.352,8.571,0.352c3,0,6,0,9,0
	c3.132,0,6.366-1.088,9.429-0.879C96.097,135.634,96.241,155.878,108,148c3.134-2.1,4.649-6.631,6.75-9.627
	c3.749-5.347,8.527-1.747,13.821-2.761c5.313-1.018,7.466,0.625,10.135,4.95c1.213,1.967,3.887,7.767,6.882,5.165
	c2.769-2.406,3.858-6.265,6.353-8.919c1.643-1.749,3.974-1.841,6.201-1.441c3.305,0.593,6.506,0.554,9.857,0.554c12.5,0,25,0,37.5,0
	c3.494,0,8.103-2.238,11.062,0.445c2.457,2.227,3.843,5.609,5.625,8.348c2.406,3.698,4.88,4.593,9.241,3.639
	C236.041,147.343,241.295,148,246,148c18,0,36,0,54,0"/>
<path fill="none" stroke="#000000" stroke-width="0.25" stroke-linecap="round" stroke-miterlimit="10" d="M0,152
	c-0.211,0-0.422,0-0.633,0c10.711,0,21.422,0,32.133,0c5.746,0,11.714-0.524,17.357,0.633c5.661,1.161,7.729-3.495,10.206-7.614
	c2.683-4.461,4.854-6.656,10.366-5.451c5.291,1.157,10.044-2.583,13.821,2.805c2.101,2.996,3.616,7.527,6.75,9.627
	c2.444,1.638,5.106,0.498,7.714,0.105c3.025-0.455,6.036,1.5,9,0.527c3.693-1.212,5.537-6.449,7.473-9.425
	c1.034-1.589,2.203-3.299,4.098-3.92c2.964-0.973,5.975,0.982,9,0.527c5.146-0.774,7.812-0.966,10.557,3.799
	c1.191,2.069,3.271,8.146,6.158,8.387c2.807,0.234,5.163-5.61,6.353-7.455c3.194-4.953,7.762-4.525,13.147-4.712
	c5.977-0.208,12.016,0.087,18,0.087c6.098,0,13.104,0.954,19.071-0.352c9.383-2.052,9.365,7.002,14.866,11.987
	C218.455,154.29,224.321,152,228,152c5.5,0,11,0,16.5,0c18.5,0,37,0,55.5,0"/>
<path fill="none" stroke="#000000" stroke-width="0.25" stroke-linecap="round" stroke-miterlimit="10" d="M0,156
	c-0.211,0-0.422,0-0.633,0c10.711,0,21.422,0,32.133,0c5.746,0,11.714-0.524,17.357,0.633c5.661,1.161,7.729-3.495,10.206-7.614
	c2.251-3.744,5.327-7.776,10.366-6.33c4.584,1.316,6.389,6.382,8.759,10.023c1.034,1.589,2.204,3.298,4.098,3.92
	C84.871,157.481,87.414,156,90,156c3,0,6,0,9,0c3.062,0,6.119,1.93,9,0c3.134-2.1,4.649-6.631,6.75-9.627
	c3.777-5.387,8.53-1.647,13.821-2.805c5.512-1.206,7.683,0.99,10.366,5.451c2.455,4.082,4.574,8.798,10.206,7.723
	c4.513-0.862,10.728,0.202,14.143-3.406c2.812-2.972,4.758-8.751,9-9.97c2.583-0.742,5.131,0.554,7.714,0.554c3,0,6,0,9,0
	c2.586,0,5.129-1.481,7.714-0.633c2.211,0.725,3.51,2.949,4.661,4.809c1.54,2.487,2.862,5.466,5.062,7.46
	C209.455,158.29,215.321,156,219,156c9.5,0,19,0,28.5,0c17.5,0,35,0,52.5,0"/>
<path fill="none" stroke="#000000" stroke-width="0.25" stroke-linecap="round" stroke-miterlimit="10" d="M0,160
	c-0.211,0-0.422,0-0.633,0c10.711,0,21.422,0,32.133,0c5.746,0,11.714-0.524,17.357,0.633c5.661,1.161,7.729-3.495,10.206-7.614
	c2.251-3.743,5.327-7.776,10.366-6.329c4.584,1.316,6.389,6.382,8.759,10.023c1.034,1.589,2.204,3.298,4.098,3.92
	C84.871,161.481,87.414,160,90,160c3,0,6,0,9,0c3.062,0,6.119,1.93,9,0c3.134-2.1,4.649-6.631,6.75-9.627
	c2.883-4.112,8.683-5.542,12.375-1.439c2.712,3.015,4.037,7.039,6.75,10.053c1.68,1.867,3.902,2.132,6.268,1.646
	c3.309-0.679,6.486-0.633,9.857-0.633c25,0,50,0,75,0s50,0,75,0"/>
<path fill="none" stroke="#000000" stroke-width="0.25" stroke-linecap="round" stroke-miterlimit="10" d="M0,164
	c-0.211,0-0.422,0-0.633,0c10.711,0,21.422,0,32.133,0c5.75,0,11.699-0.496,17.357,0.595c5.508,1.062,7.292-2.901,9.643-6.983
	c1.054-1.829,3.347-6.635,6-4.262c2.924,2.615,3.909,6.857,6.5,9.763c1.601,1.795,3.918,1.912,6.143,1.482
	C79.968,164.05,82.625,164,85.5,164c6.012,0,12.165,2.173,16.773-2.613c3.748-3.894,6.792-7.146,12.156-8.808
	c5.014-1.554,10.36-3.144,13.821,1.794c2.101,2.996,3.616,7.527,6.75,9.627c2.444,1.638,5.106,0.498,7.714,0.105
	C146.029,163.607,149.652,164,153,164c25,0,50,0,75,0c24,0,48,0,72,0"/>
<path fill="none" stroke="#000000" stroke-width="0.25" stroke-linecap="round" stroke-miterlimit="10" d="M0,168
	c-0.211,0-0.422,0-0.633,0c23.211,0,46.422,0,69.633,0c6,0,12,0,18,0c5.283,0,10.679,2.64,14.25-2.453
	c2.101-2.996,3.616-7.527,6.75-9.627c2.444-1.638,5.106-0.498,7.714-0.105c3.025,0.455,6.036-1.5,9-0.527
	c3.693,1.212,5.537,6.449,7.473,9.426c3.652,5.611,7.598,3.287,13.312,3.287c12.5,0,25,0,37.5,0c25,0,50,0,75,0c14,0,28,0,42,0"/>
<path fill="none" stroke="#000000" stroke-width="0.25" stroke-linecap="round" stroke-miterlimit="10" d="M0,172
	c-0.211,0-0.422,0-0.633,0c23.211,0,46.422,0,69.633,0c6,0,12,0,18,0c5.283,0,10.679,2.64,14.25-2.453
	c2.101-2.996,3.616-7.527,6.75-9.627c2.444-1.638,5.106-0.498,7.714-0.105c3.025,0.455,6.036-1.5,9-0.527
	c3.693,1.212,5.537,6.449,7.473,9.426c3.652,5.611,7.598,3.287,13.312,3.287c12.5,0,25,0,37.5,0c25,0,50,0,75,0c14,0,28,0,42,0"/>
<path fill="none" stroke="#000000" stroke-width="0.25" stroke-linecap="round" stroke-miterlimit="10" d="M0,176
	c-0.211,0-0.422,0-0.633,0c23.211,0,46.422,0,69.633,0c6,0,12,0,18,0c5.283,0,10.679,2.64,14.25-2.453
	c2.101-2.996,3.616-7.527,6.75-9.627c2.444-1.638,5.106-0.498,7.714-0.105c3.025,0.455,6.036-1.5,9-0.527
	c3.693,1.212,5.537,6.449,7.473,9.426c3.652,5.611,7.598,3.287,13.312,3.287c12.5,0,25,0,37.5,0c25,0,50,0,75,0c14,0,28,0,42,0"/>
<path fill="none" stroke="#000000" stroke-width="0.25" stroke-linecap="round" stroke-miterlimit="10" d="M0,180
	c-0.211,0-0.422,0-0.633,0c23.211,0,46.422,0,69.633,0c6,0,12,0,18,0c5.283,0,10.679,2.64,14.25-2.453
	c2.101-2.996,3.616-7.527,6.75-9.627c2.444-1.638,5.106-0.498,7.714-0.105c3.025,0.455,6.036-1.5,9-0.527
	c3.693,1.212,5.537,6.449,7.473,9.426c3.652,5.611,7.598,3.287,13.312,3.287c12.5,0,25,0,37.5,0c25,0,50,0,75,0c14,0,28,0,42,0"/>
<path fill="none" stroke="#000000" stroke-width="0.25" stroke-linecap="round" stroke-miterlimit="10" d="M0,184
	c-0.211,0-0.422,0-0.633,0c23.211,0,46.422,0,69.633,0c6,0,12,0,18,0c5.283,0,10.679,2.64,14.25-2.453
	c2.101-2.996,3.616-7.527,6.75-9.627c5.111-3.424,9.613-0.287,12.375,4.176c1.909,3.083,3.958,8.493,8.196,8.783
	c2.629,0.18,5.264-0.879,7.929-0.879c3.5,0,7,0,10.5,0c12.5,0,25,0,37.5,0c25,0,50,0,75,0c13.5,0,27,0,40.5,0"/>
<path fill="none" stroke="#000000" stroke-width="0.25" stroke-linecap="round" stroke-miterlimit="10" d="M0,188
	c-0.211,0-0.422,0-0.633,0c23.211,0,46.422,0,69.633,0c6,0,12.001,0.115,18,0.115c5.475,0,10.959,0.42,14.571-4.316
	c2.603-3.411,4.536-7.756,9-9c5.593-1.559,8.501,3.088,10.929,7.161c2.331,3.912,4.398,7.748,9.643,6.673
	C137.247,187.381,143.784,188,150,188c12.5,0,25,0,37.5,0c25,0,50,0,75,0c12.5,0,25,0,37.5,0"/>
<path fill="none" stroke="#000000" stroke-width="0.25" stroke-linecap="round" stroke-miterlimit="10" d="M0,192
	c-0.211,0-0.422,0-0.633,0c23.211,0,46.422,0,69.633,0c5.841,0,11.375,0.213,17.143,0.844c5.115,0.56,7.273-5.181,9.482-8.748
	c3.063-4.949,5.54-5.116,11.089-4.281c2.658,0.399,5.084-0.953,7.714-0.773c2.591,0.177,4.087,2.175,5.384,4.166
	c1.937,2.977,3.78,8.214,7.473,9.426c2.585,0.849,5.128-0.633,7.714-0.633c3.5,0,7,0,10.5,0c12.5,0,25,0,37.5,0c25,0,50,0,75,0
	c14,0,28,0,42,0"/>
<path fill="none" stroke="#000000" stroke-width="0.25" stroke-linecap="round" stroke-miterlimit="10" d="M0,196
	c-0.211,0-0.422,0-0.633,0c23.211,0,46.422,0,69.633,0c5.841,0,11.375,0.213,17.143,0.844c5.115,0.56,7.273-5.181,9.482-8.748
	c3.063-4.949,5.54-5.116,11.089-4.281c2.658,0.399,5.084-0.953,7.714-0.773c2.591,0.177,4.087,2.175,5.384,4.166
	c1.937,2.977,3.78,8.214,7.473,9.426c2.585,0.849,5.128-0.633,7.714-0.633c3.5,0,7,0,10.5,0c12.5,0,25,0,37.5,0c25,0,50,0,75,0
	c14,0,28,0,42,0"/>
<path fill="none" stroke="#000000" stroke-width="0.25" stroke-linecap="round" stroke-miterlimit="10" d="M0,200
	c-0.211,0-0.422,0-0.633,0c23.211,0,46.422,0,69.633,0c5.841,0,11.375,0.213,17.143,0.844c5.115,0.56,7.273-5.181,9.482-8.748
	c3.063-4.949,5.54-5.116,11.089-4.281c2.658,0.399,5.084-0.953,7.714-0.773c2.591,0.177,4.087,2.175,5.384,4.166
	c1.937,2.977,3.78,8.214,7.473,9.426c2.585,0.849,5.128-0.633,7.714-0.633c3.5,0,7,0,10.5,0c12.5,0,25,0,37.5,0c25,0,50,0,75,0
	c14,0,28,0,42,0"/>
<path fill="none" stroke="#000000" stroke-width="0.25" stroke-linecap="round" stroke-miterlimit="10" d="M0,204
	c-0.211,0-0.422,0-0.633,0c23.211,0,46.422,0,69.633,0c5.841,0,11.375,0.213,17.143,0.844c5.115,0.56,7.273-5.181,9.482-8.748
	c3.063-4.949,5.54-5.116,11.089-4.281c2.658,0.399,5.084-0.953,7.714-0.773c2.591,0.177,4.087,2.175,5.384,4.166
	c1.937,2.977,3.78,8.214,7.473,9.426c2.585,0.849,5.128-0.633,7.714-0.633c3.5,0,7,0,10.5,0c12.5,0,25,0,37.5,0c25,0,50,0,75,0
	c14,0,28,0,42,0"/>
<path fill="none" stroke="#000000" stroke-width="0.25" stroke-linecap="round" stroke-miterlimit="10" d="M0,208
	c-0.211,0-0.422,0-0.633,0c23.211,0,46.422,0,69.633,0c5.841,0,11.375,0.213,17.143,0.844c5.115,0.56,7.273-5.181,9.482-8.748
	c2.452-3.962,6.165-7.125,11.089-4.873c4.124,1.886,5.793,6.89,8.486,10.241c3.356,4.177,9.076,2.594,13.8,2.594
	c6.5,0,13-0.058,19.5-0.058c12.5,0,25,0,37.5,0c25,0,50,0,75,0c13,0,26,0,39,0"/>
<path fill="none" stroke="#000000" stroke-width="0.25" stroke-linecap="round" stroke-miterlimit="10" d="M0,212
	c-0.211,0-0.422,0-0.633,0c23.211,0,46.422,0,69.633,0c5.841,0,11.375,0.213,17.143,0.844c5.115,0.56,7.273-5.181,9.482-8.748
	c2.417-3.904,6.214-7.247,11.089-4.914c3.996,1.912,5.633,6.938,8.036,10.365c3.43,4.893,7.732,2.453,12.75,2.453c6.5,0,13,0,19.5,0
	c12.5,0,25,0,37.5,0c25,0,50,0,75,0c13.5,0,27,0,40.5,0"/>
<path fill="none" stroke="#000000" stroke-width="0.25" stroke-linecap="round" stroke-miterlimit="10" d="M0,216
	c-0.211,0-0.422,0-0.633,0c23.211,0,46.422,0,69.633,0c4.737,0,10.372,2.389,13.929-1.735c2.924-3.391,4.868-8.835,9.643-9.993
	c2.533-0.614,5.163-0.048,7.714-0.536c2.606-0.498,5.282-1.445,7.714,0.185c3.411,2.285,4.856,7.235,7.312,10.392
	C118.646,218.594,124.372,216,129,216c6.5,0,13,0,19.5,0c12.5,0,25,0,37.5,0c25,0,50,0,75,0c13,0,26,0,39,0"/>
<path fill="none" stroke="#000000" stroke-width="0.25" stroke-linecap="round" stroke-miterlimit="10" d="M0,220
	c-0.211,0-0.422,0-0.633,0c23.211,0,46.422,0,69.633,0c4.628,0,10.354,2.594,13.688-1.688c2.457-3.156,3.902-8.106,7.312-10.392
	c2.444-1.638,5.106-0.498,7.714-0.105c2.658,0.399,5.084-0.953,7.714-0.773c4.521,0.309,6.661,6.447,8.759,9.672
	c1.034,1.589,2.204,3.298,4.098,3.92c2.585,0.849,5.128-0.633,7.714-0.633c6.5,0,13,0,19.5,0c12.5,0,25,0,37.5,0c25,0,50,0,75,0
	c14,0,28,0,42,0"/>
<path fill="none" stroke="#000000" stroke-width="0.25" stroke-linecap="round" stroke-miterlimit="10" d="M0,224
	c-0.211,0-0.422,0-0.633,0c23.211,0,46.422,0,69.633,0c4.628,0,10.354,2.594,13.688-1.688c2.457-3.156,3.902-8.106,7.312-10.392
	c2.444-1.638,5.106-0.498,7.714-0.105c2.658,0.399,5.084-0.953,7.714-0.773c4.521,0.309,6.661,6.447,8.759,9.672
	c1.034,1.589,2.204,3.298,4.098,3.92c2.585,0.849,5.128-0.633,7.714-0.633c6.5,0,13,0,19.5,0c12.5,0,25,0,37.5,0c25,0,50,0,75,0
	c14,0,28,0,42,0"/>
<path fill="none" stroke="#000000" stroke-width="0.25" stroke-linecap="round" stroke-miterlimit="10" d="M0,228
	c-0.211,0-0.422,0-0.633,0c23.211,0,46.422,0,69.633,0c4.628,0,10.354,2.594,13.688-1.688c2.457-3.156,3.902-8.106,7.312-10.392
	c2.444-1.638,5.106-0.498,7.714-0.105c2.658,0.399,5.084-0.953,7.714-0.773c4.521,0.309,6.661,6.447,8.759,9.672
	c1.034,1.589,2.204,3.298,4.098,3.92c2.585,0.849,5.128-0.633,7.714-0.633c6.5,0,13,0,19.5,0c12.5,0,25,0,37.5,0c25,0,50,0,75,0
	c14,0,28,0,42,0"/>
<path fill="none" stroke="#000000" stroke-width="0.25" stroke-linecap="round" stroke-miterlimit="10" d="M0,232
	c-0.211,0-0.422,0-0.633,0c23.211,0,46.422,0,69.633,0c4.628,0,10.354,2.594,13.688-1.688c2.457-3.156,3.902-8.106,7.312-10.392
	c4.608-3.087,9.469-0.423,12.461,3.411c3.489,4.471,5.901,7.8,11.967,8.408C126.597,232.96,139.259,232,151.5,232
	c12.5,0,25,0,37.5,0c25,0,50,0,75,0c12,0,24,0,36,0"/>
<path fill="none" stroke="#000000" stroke-width="0.25" stroke-linecap="round" stroke-miterlimit="10" d="M0,236
	c-0.211,0-0.422,0-0.633,0c23.211,0,46.422,0,69.633,0c4.628,0,10.354,2.594,13.688-1.688c2.457-3.156,3.902-8.106,7.312-10.392
	c11.759-7.878,11.903,12.366,20.571,12.959c2.629,0.18,5.264-0.879,7.929-0.879c3,0,6,0,9,0c6.5,0,13,0,19.5,0c12.5,0,25,0,37.5,0
	c25,0,50,0,75,0c13.5,0,27,0,40.5,0"/>
<path fill="none" stroke="#000000" stroke-width="0.25" stroke-linecap="round" stroke-miterlimit="10" d="M0,240
	c-0.211,0-0.422,0-0.633,0c23.21,0,46.427,0.169,69.633,0.169c4.949,0,10.645-0.398,14.077-4.369
	c3.171-3.669,5.393-8.577,10.78-9.201c5.043-0.584,7.442,3.667,9.643,7.361c2.842,4.77,4.881,7.715,10.929,6.392
	C119.945,239.145,126.366,240,132,240c6.5,0,13,0,19.5,0c12.5,0,25,0,37.5,0c25,0,50,0,75,0c12,0,24,0,36,0"/>
<path fill="none" stroke="#000000" stroke-width="0.25" stroke-linecap="round" stroke-miterlimit="10" d="M0,244
	c-0.211,0-0.422,0-0.633,0c10.711,0,21.422,0,32.133,0c12.227,0,24.528-0.481,36.643,0.844c4.787,0.523,6.865-4.409,8.919-7.825
	c0.972-1.615,1.962-3.373,3.375-4.654c2.455-2.225,5.444-0.976,8.277-0.55c5.036,0.758,8.919-2.601,12.536,2.559
	c2.195,3.13,4.065,8.957,8.036,10.26c2.585,0.849,5.128-0.633,7.714-0.633c3,0,6,0,9,0c6.5,0,13,0,19.5,0c12.5,0,25,0,37.5,0
	c25,0,50,0,75,0c14,0,28,0,42,0"/>
<path fill="none" stroke="#000000" stroke-width="0.25" stroke-linecap="round" stroke-miterlimit="10" d="M0,248
	c-0.211,0-0.422,0-0.633,0c10.711,0,21.422,0,32.133,0c12.227,0,24.528-0.481,36.643,0.844c4.787,0.523,6.865-4.409,8.919-7.825
	c0.972-1.615,1.962-3.373,3.375-4.654c2.455-2.225,5.444-0.976,8.277-0.55c5.036,0.758,8.919-2.601,12.536,2.559
	c2.195,3.13,4.065,8.957,8.036,10.26c2.585,0.849,5.128-0.633,7.714-0.633c3,0,6,0,9,0c6.5,0,13,0,19.5,0c12.5,0,25,0,37.5,0
	c25,0,50,0,75,0c14,0,28,0,42,0"/>
<path fill="none" stroke="#000000" stroke-width="0.25" stroke-linecap="round" stroke-miterlimit="10" d="M0,252
	c-0.211,0-0.422,0-0.633,0c10.711,0,21.422,0,32.133,0c12.227,0,24.528-0.481,36.643,0.844c4.787,0.523,6.865-4.409,8.919-7.825
	c0.972-1.615,1.962-3.373,3.375-4.654c2.455-2.225,5.444-0.976,8.277-0.55c5.036,0.758,8.919-2.601,12.536,2.559
	c2.195,3.13,4.065,8.957,8.036,10.26c2.585,0.849,5.128-0.633,7.714-0.633c3,0,6,0,9,0c6.5,0,13,0,19.5,0c12.5,0,25,0,37.5,0
	c25,0,50,0,75,0c14,0,28,0,42,0"/>
<path fill="none" stroke="#000000" stroke-width="0.25" stroke-linecap="round" stroke-miterlimit="10" d="M0,256
	c-0.211,0-0.422,0-0.633,0c10.711,0,21.422,0,32.133,0c12.227,0,24.528-0.481,36.643,0.844c10.141,1.109,8.059-17.858,20.571-13.423
	c4.68,1.659,7.478,6.228,11.571,8.868c2.391,1.542,4.934,3.007,7.714,3.711c3.37,0.854,7.07,0,10.5,0c50,0,100,0,150,0
	c10.5,0,21,0,31.5,0"/>
<path fill="none" stroke="#000000" stroke-width="0.25" stroke-linecap="round" stroke-miterlimit="10" d="M0,260
	c-0.211,0-0.422,0-0.633,0c10.711,0,21.422,0,32.133,0c12.227,0,24.528-0.481,36.643,0.844c9.604,1.051,9.015-19.191,20.571-13.662
	c3.705,1.772,5.354,6.275,7.473,9.531c3.652,5.611,7.598,3.287,13.312,3.287c50,0,100,0,150,0c13.5,0,27,0,40.5,0"/>
<path fill="none" stroke="#000000" stroke-width="0.25" stroke-linecap="round" stroke-miterlimit="10" d="M0,264
	c-0.211,0-0.422,0-0.633,0c10.711,0,21.422,0,32.133,0c12.227,0,24.528-0.481,36.643,0.844c9.604,1.051,9.015-19.191,20.571-13.662
	c3.705,1.772,5.354,6.275,7.473,9.531c3.652,5.611,7.598,3.287,13.312,3.287c50,0,100,0,150,0c13.5,0,27,0,40.5,0"/>
<path fill="none" stroke="#000000" stroke-width="0.25" stroke-linecap="round" stroke-miterlimit="10" d="M0,268
	c-0.211,0-0.422,0-0.633,0c10.711,0,21.422,0,32.133,0c12.227,0,24.528-0.481,36.643,0.844c9.604,1.051,9.015-19.191,20.571-13.662
	c3.705,1.772,5.354,6.275,7.473,9.531c3.652,5.611,7.598,3.287,13.312,3.287c50,0,100,0,150,0c13.5,0,27,0,40.5,0"/>
<path fill="none" stroke="#000000" stroke-width="0.25" stroke-linecap="round" stroke-miterlimit="10" d="M0,272
	c-0.211,0-0.422,0-0.633,0c10.711,0,21.422,0,32.133,0c12.227,0,24.528-0.481,36.643,0.844c9.604,1.051,9.015-19.191,20.571-13.662
	c3.705,1.772,5.354,6.275,7.473,9.531c3.652,5.611,7.598,3.287,13.312,3.287c50,0,100,0,150,0c13.5,0,27,0,40.5,0"/>
<path fill="none" stroke="#000000" stroke-width="0.25" stroke-linecap="round" stroke-miterlimit="10" d="M0,276
	c-0.211,0-0.422,0-0.633,0c97.836,0,195.672,0,293.508,0c2.375,0,4.75,0,7.125,0"/>
<path fill="none" stroke="#000000" stroke-width="0.25" stroke-linecap="round" stroke-miterlimit="10" d="M0,280
	c-0.211,0-0.422,0-0.633,0c97.836,0,195.672,0,293.508,0c2.375,0,4.75,0,7.125,0"/>
<path fill="none" stroke="#000000" stroke-width="0.25" stroke-linecap="round" stroke-miterlimit="10" d="M0,284
	c-0.211,0-0.422,0-0.633,0c97.836,0,195.672,0,293.508,0c2.375,0,4.75,0,7.125,0"/>
<path fill="none" stroke="#000000" stroke-width="0.25" stroke-linecap="round" stroke-miterlimit="10" d="M0,288
	c-0.211,0-0.422,0-0.633,0c97.836,0,195.672,0,293.508,0c2.375,0,4.75,0,7.125,0"/>
<path fill="none" stroke="#000000" stroke-width="0.25" stroke-linecap="round" stroke-miterlimit="10" d="M0,292
	c-0.211,0-0.422,0-0.633,0c97.836,0,195.672,0,293.508,0c2.375,0,4.75,0,7.125,0"/>
<path fill="none" stroke="#000000" stroke-width="0.25" stroke-linecap="round" stroke-miterlimit="10" d="M0,296
	c-0.211,0-0.422,0-0.633,0c97.836,0,195.672,0,293.508,0c2.375,0,4.75,0,7.125,0"/>
</svg>
