<?xml version="1.0" encoding="utf-8"?>
<!-- Generator: Adobe Illustrator 15.1.0, SVG Export Plug-In . SVG Version: 6.00 Build 0)  -->
<!DOCTYPE svg PUBLIC "-//W3C//DTD SVG 1.0//EN" "http://www.w3.org/TR/2001/REC-SVG-20010904/DTD/svg10.dtd">
<svg version="1.0" id="Layer_1" xmlns="http://www.w3.org/2000/svg" xmlns:xlink="http://www.w3.org/1999/xlink" x="0px" y="0px"
	 width="300px" height="300px" viewBox="0 0 300 300" enable-background="new 0 0 300 300" xml:space="preserve">
<polyline fill="none" stroke="#000000" stroke-miterlimit="10" points="24.595,0.209 -0.5,27.267 -0.5,54.82 54.497,0.5 81.717,0.5 
	-0.5,81.745 -0.5,108.67 109.013,0.5 135.566,0.5 -0.5,135.114 -0.5,164.442 163.529,0.5 190.378,0.5 -0.5,188.482 -0.5,218.292 
	218.044,0.5 247.112,0.5 -0.5,244.736 -0.5,270.219 272.561,0.5 300,0.5 -0.019,299.5 26.906,299.5 299.5,27.267 299.5,54.82 
	54.497,299.5 81.717,299.5 299.5,81.783 299.5,108.67 109.013,299.5 136.528,299.5 299.5,136.299 299.5,163.48 163.529,299.5 
	190.378,299.5 299.5,190.814 299.5,218.292 218.044,299.5 245.188,299.5 299.5,245.33 299.5,272.142 272.561,299.5 300,299.5 "/>
</svg>
