<?xml version="1.0" encoding="utf-8"?>
<!-- Generator: Adobe Illustrator 15.1.0, SVG Export Plug-In . SVG Version: 6.00 Build 0)  -->
<!DOCTYPE svg PUBLIC "-//W3C//DTD SVG 1.1//EN" "http://www.w3.org/Graphics/SVG/1.1/DTD/svg11.dtd">
<svg version="1.1" id="Layer_1" xmlns="http://www.w3.org/2000/svg" xmlns:xlink="http://www.w3.org/1999/xlink" x="0px" y="0px"
	 width="300px" height="300px" viewBox="0 0 300 300" enable-background="new 0 0 300 300" xml:space="preserve">
<path fill="none" stroke="#000000" stroke-width="0.2302" stroke-miterlimit="10" d="M286.07,152.991
	c0-73.739-61.436-133.516-137.234-133.516c-75.037,0-135.867,59.18-135.867,132.181c0,72.271,60.225,130.853,134.511,130.853
	c73.543,0,133.163-57.993,133.163-129.546c0-70.831-59.023-128.253-131.834-128.253c-72.078,0-130.511,56.848-130.511,126.975
	c0,69.418,57.847,125.7,129.206,125.7c70.645,0,127.919-55.721,127.919-124.45c0-68.038-56.697-123.198-126.638-123.198
	c-69.241,0-125.372,54.608-125.372,121.966c0,66.686,55.568,120.75,124.119,120.75c67.856,0,122.871-53.521,122.871-119.536
	c0-65.362-54.457-118.35-121.642-118.35c-66.513,0-120.43,52.455-120.43,117.164c0,64.055,53.378,115.985,119.225,115.985
	c65.184,0,118.033-51.406,118.033-114.826c0-62.786-52.319-113.682-116.856-113.682c-63.889,0-115.679,50.39-115.679,112.541
	c0,61.544,51.275,111.423,114.525,111.423c62.617,0,113.377-49.383,113.377-110.301c0-60.316-50.249-109.207-112.243-109.207
	c-61.373,0-111.125,48.403-111.125,108.112c0,59.106,49.256,107.025,110.015,107.025c60.153,0,108.909-47.441,108.909-105.958
	c0-57.934-48.273-104.896-107.822-104.896c-58.953,0-106.748,46.494-106.748,103.847c0,56.788,47.318,102.813,105.68,102.813
	c57.78,0,104.625-45.564,104.625-101.782c0-55.652-46.371-100.766-103.58-100.766c-56.631,0-102.54,44.664-102.54,99.753
	c0,54.553,45.45,98.766,101.519,98.766c55.506,0,100.497-43.771,100.497-97.771c0-53.462-44.547-96.796-99.495-96.796
	c-54.4,0-98.498,42.902-98.498,95.83c0,52.391,43.658,94.865,97.514,94.865c53.312,0,96.535-42.051,96.535-93.917
	c0-51.355-42.787-92.983-95.57-92.983c-52.258,0-94.616,41.213-94.616,92.053c0,50.33,41.937,91.13,93.67,91.13
	c51.212,0,92.734-40.395,92.734-90.219c0-49.332-41.104-89.321-91.808-89.321c-50.196,0-90.89,39.589-90.89,88.43
	c0,48.343,40.287,87.531,89.982,87.531c49.199,0,89.084-38.793,89.084-86.658c0-47.385-39.487-85.798-88.195-85.798
	c-48.221,0-87.307,38.025-87.307,84.943c0,46.438,38.699,84.082,86.437,84.082c47.26,0,85.566-37.267,85.566-83.246
	c0-45.518-37.928-82.417-84.715-82.417c-46.315,0-83.865,36.531-83.865,81.59c0,44.617,37.171,80.779,83.028,80.779
	c45.394,0,82.195-35.804,82.195-79.97c0-43.725-36.434-79.17-81.373-79.17c-44.495,0-80.564,35.091-80.564,78.379
	c0,42.85,35.71,77.597,79.761,77.597c43.605,0,78.962-34.396,78.962-76.824c0-41.996-35.006-76.047-78.172-76.047
	c-42.741,0-77.392,33.711-77.392,75.292c0,41.168,34.301,74.533,76.617,74.533c41.89,0,75.845-33.034,75.845-73.788
	c0-40.348-33.615-73.057-75.088-73.057c-41.053,0-74.338,32.382-74.338,72.321c0,39.548,32.949,71.599,73.596,71.599
	c40.24,0,72.862-31.729,72.862-70.881c0-38.753-32.292-70.173-72.134-70.173c-39.436,0-71.411,31.103-71.411,69.474
	c0,37.983,31.653,68.774,70.697,68.774c38.656,0,69.993-30.486,69.993-68.085c0-37.229-31.025-67.413-69.292-67.413
	c-37.886,0-68.594,29.88-68.594,66.732c0,36.494,30.401,66.069,67.908,66.069c37.129,0,67.236-29.28,67.236-65.406
	c0-35.759-29.805-64.75-66.565-64.75c-36.391,0-65.893,28.697-65.893,64.106c0,35.05,29.209,63.466,65.236,63.466
	c35.667,0,64.583-28.131,64.583-62.831c0-34.355-28.622-62.202-63.94-62.202c-34.954,0-63.293,27.57-63.293,61.576
	c0,33.67,28.056,60.965,62.664,60.965c34.264,0,62.035-27.02,62.035-60.357c0-32.994-27.498-59.746-61.416-59.746
	c-33.583,0-60.801,26.48-60.801,59.157c0,32.336,26.949,58.555,60.192,58.555c32.911,0,59.596-25.952,59.596-57.975
	c0-31.697-26.419-57.396-59-57.396c-32.254,0-58.404,25.441-58.404,56.824c0,31.067,25.886,56.255,57.823,56.255
	c31.611,0,57.247-24.939,57.247-55.693c0-30.45-25.38-55.136-56.675-55.136c-30.987,0-56.106,24.438-56.106,54.584
	c0,29.843,24.869,54.037,55.544,54.037c30.373,0,54.985-23.955,54.985-53.495c0-29.253-24.367-52.965-54.437-52.965
	c-29.763,0-53.895,23.477-53.895,52.433c0,28.665,23.891,51.911,53.355,51.911c29.171,0,52.821-23.008,52.821-51.388
	c0-28.099-23.413-50.877-52.291-50.877c-28.59,0-51.771,22.548-51.771,50.362c0,27.543,22.95,49.87,51.255,49.87
	c28.023,0,50.736-22.106,50.736-49.374c0-26.986-22.487-48.867-50.23-48.867c-27.465,0-49.733,21.66-49.733,48.38
	c0,26.457,22.046,47.9,49.237,47.9c26.917,0,48.74-21.232,48.74-47.423c0-25.924-21.606-46.94-48.253-46.94
	c-26.382,0-47.771,20.805-47.771,46.471c0,25.418,21.171,46.015,47.293,46.015c25.858,0,46.821-20.395,46.821-45.556
	c0-24.902-20.755-45.09-46.353-45.09c-25.346,0-45.889,19.986-45.889,44.64c0,24.415,20.34,44.203,45.431,44.203
	c24.836,0,44.978-19.595,44.978-43.762c0-23.918-19.934-43.315-44.528-43.315c-24.345,0-44.079,19.204-44.079,42.884
	c0,23.449,19.536,42.455,43.639,42.455c23.862,0,43.199-18.813,43.199-42.032c0-22.976-19.147-41.609-42.769-41.609
	c-23.384,0-42.343,18.445-42.343,41.195c0,22.529,18.77,40.781,41.922,40.781c22.917,0,41.498-18.068,41.498-40.367
	c0-22.079-18.392-39.976-41.086-39.976c-22.462,0-40.674,17.718-40.674,39.572c0,21.636,18.027,39.18,40.268,39.18
	c22.023,0,39.866-17.368,39.866-38.785c0-21.208-17.673-38.398-39.464-38.398c-21.583,0-39.076,17.019-39.076,38.012
	c0,20.781,17.318,37.635,38.684,37.635c21.153,0,38.297-16.679,38.297-37.258c0-20.372-16.974-36.885-37.914-36.885
	c-20.728,0-37.535,16.347-37.535,36.517c0,19.963,16.637,36.145,37.162,36.145c20.311,0,36.783-16.017,36.783-35.785
	c0-19.567-16.302-35.432-36.419-35.432c-19.909,0-36.05,15.708-36.05,35.082c0,19.171,15.98,34.718,35.691,34.718
	c19.512,0,35.341-15.39,35.341-34.378c0-18.794-15.668-34.033-34.986-34.033c-19.129,0-34.632,15.087-34.632,33.693
	c0,18.426,15.347,33.356,34.287,33.356c18.747,0,33.942-14.783,33.942-33.017c0-18.058-15.044-32.695-33.606-32.695
	c-18.373,0-33.266,14.489-33.266,32.364c0,17.699,14.747,32.042,32.935,32.042c18.004,0,32.603-14.204,32.603-31.72
	c0-17.346-14.447-31.407-32.277-31.407c-17.649,0-31.957,13.918-31.957,31.093c0,17.001,14.165,30.781,31.635,30.781
	c17.3,0,31.322-13.643,31.322-30.477c0-16.661-13.881-30.166-31.006-30.166c-16.954,0-30.698,13.371-30.698,29.861
	c0,16.33,13.607,29.567,30.391,29.567c16.619,0,30.083-13.101,30.083-29.263c0-16.008-13.332-28.983-29.785-28.983
	c-16.284,0-29.489,12.842-29.489,28.688c0,15.685,13.073,28.398,29.195,28.398c15.962,0,28.897-12.585,28.897-28.113
	c0-15.377-12.803-27.837-28.608-27.837c-15.645,0-28.325,12.336-28.325,27.561c0,15.069,12.553,27.276,28.042,27.276
	c15.333,0,27.767-12.087,27.767-27.009c0-14.766-12.307-26.739-27.488-26.739c-15.03,0-27.209,11.854-27.209,26.471
	c0,14.48,12.062,26.209,26.936,26.209c14.732,0,26.674-11.619,26.674-25.941c0-14.191-11.824-25.689-26.405-25.689
	c-14.439,0-26.141,11.384-26.141,25.431c0,13.901,11.588,25.171,25.875,25.171c14.15,0,25.621-11.16,25.621-24.922
	c0-13.625-11.356-24.672-25.361-24.672c-13.867,0-25.11,10.938-25.11,24.423c0,13.358,11.13,24.186,24.86,24.186
	c13.588,0,24.608-10.717,24.608-23.937c0-13.095-10.911-23.707-24.363-23.707c-13.324,0-24.122,10.506-24.122,23.468
	c0,12.824,10.69,23.229,23.881,23.229c13.054,0,23.64-10.294,23.64-22.998c0-12.576-10.481-22.769-23.403-22.769
	c-12.799,0-23.172,10.092-23.172,22.539c0,12.327,10.269,22.317,22.94,22.317c12.539,0,22.708-9.889,22.708-22.087
	c0-12.083-10.065-21.876-22.481-21.876c-12.293,0-22.259,9.696-22.259,21.655c0,11.841,9.867,21.436,22.037,21.436
	c12.047,0,21.815-9.503,21.815-21.224c0-11.6-9.674-21.007-21.598-21.007c-11.811,0-21.38,9.31-21.38,20.795
	c0,11.371,9.475,20.598,21.163,20.598c11.574,0,20.954-9.135,20.954-20.386c0-11.149-9.285-20.184-20.741-20.184
	c-11.342,0-20.538,8.942-20.538,19.981c0,10.92,9.102,19.779,20.33,19.779c11.121,0,20.127-8.768,20.127-19.587
	c0-10.703-8.917-19.382-19.923-19.382c-10.894,0-19.73,8.592-19.73,19.19c0,10.496,8.747,19.006,19.531,19.006
	c10.681,0,19.338-8.427,19.338-18.813c0-10.284-8.572-18.623-19.144-18.623c-10.463,0-18.95,8.256-18.95,18.439
	c0,10.073,8.402,18.252,18.761,18.252c10.26,0,18.576-8.095,18.576-18.077"/>
</svg>
