<?xml version="1.0" encoding="utf-8"?>
<!-- Generator: Adobe Illustrator 15.1.0, SVG Export Plug-In . SVG Version: 6.00 Build 0)  -->
<!DOCTYPE svg PUBLIC "-//W3C//DTD SVG 1.1//EN" "http://www.w3.org/Graphics/SVG/1.1/DTD/svg11.dtd">
<svg version="1.1" id="Layer_1" xmlns="http://www.w3.org/2000/svg" xmlns:xlink="http://www.w3.org/1999/xlink" x="0px" y="0px"
	 width="300px" height="300px" viewBox="0 0 300 300" enable-background="new 0 0 300 300" xml:space="preserve">
<g id="fill" display="none">
	<g display="inline">
		<path opacity="0.35" fill="#231F20" enable-background="new    " d="M75.21,125.86c0,3.508,0,7.016,0,10.527
			c0,5.116,0,10.235,0,15.354c0,4.332,0,8.661,0,12.995c0,3.712,0,7.425,0,11.138c-4.265,0-8.531,0-12.797,0
			c-4.489,0-8.977,0-13.466,0c-4.41,0-8.819,0-13.229,0c-3.508,0-7.015,0-10.521,0c0-4.185,0-8.369,0-12.556c0-4.1,0-8.191,0-12.286
			c0-4.488,0-8.976,0-13.466c0-3.901,0-7.804,0-11.706c4.137,0,8.273,0,12.411,0c4.252,0,8.505,0,12.757,0c3.938,0,7.875,0,11.813,0
			C66.521,125.86,70.867,125.86,75.21,125.86 M59.389,157.4c-0.113-0.373-0.12-0.84-0.219-1.229
			c-0.117-0.468-0.239-0.935-0.327-1.407c-0.184-0.988-0.454-1.977-0.653-2.976c-0.437-2.193-0.899-4.376-1.378-6.56
			c-0.475-2.17-0.941-4.344-1.412-6.514c-0.207-0.947-0.406-1.893-0.614-2.84c-0.146-0.67-0.313-1.495-0.873-1.955
			c-0.557-0.451-1.509-0.357-2.181-0.391c-1.055-0.049-2.141-0.094-3.195-0.044c-0.561,0.027-1.354,0.155-1.739,0.559
			c-0.577,0.605-0.654,1.606-0.838,2.388c-0.463,1.965-0.888,3.938-1.299,5.913c-0.198,0.958-0.409,1.913-0.609,2.868
			c-0.19,0.897-0.495,1.806-0.637,2.708c-0.165,1.055-0.353,2.124-0.663,3.152c-0.147,0.479-0.195,1.062-0.326,1.563
			c-0.145,0.563-0.303,1.157-0.376,1.729c-0.138,1.085-0.423,2.185-0.667,3.289c-0.138,0.619-0.278,1.24-0.42,1.858
			c-0.081,0.351-0.098,1.267-0.456,1.46c-0.615-3.47-1.215-6.951-1.811-10.438c-0.523-3.062-1.044-6.127-1.564-9.188
			c-0.438-2.58-0.878-5.158-1.321-7.729c-2.348,0-4.696,0-7.043,0c0.476,2.25,0.943,4.504,1.406,6.757
			c0.467,2.265,0.928,4.532,1.393,6.798c0.789,3.854,1.491,7.754,2.401,11.58c0.375,1.568,0.692,3.161,0.981,4.75
			c0.142,0.77,0.367,1.52,0.508,2.285c0.114,0.609,0.114,1.494,0.594,1.941c1.009,0.938,3.113,0.467,4.356,0.492
			c1.206,0.021,3.553,0.521,4.237-0.824c0.433-0.848,0.54-1.812,0.716-2.731c0.166-0.878,0.382-1.749,0.593-2.619
			c0.519-2.135,0.94-4.31,1.399-6.459c0.51-2.384,1.004-4.772,1.508-7.157c0.187-0.886,0.485-1.78,0.616-2.663
			c0.077-0.523,0.205-1.021,0.318-1.537c0.119-0.546,0.151-1.124,0.408-1.633c0.245,0.394,0.29,0.864,0.366,1.307
			c0.056,0.326,0.101,1.005,0.296,1.271c0.225,0.308,0.182,0.933,0.256,1.301c0.13,0.636,0.263,1.269,0.397,1.902
			c0.479,2.24,0.987,4.476,1.482,6.708c0.485,2.186,0.897,4.387,1.429,6.561c0.454,1.855,0.542,3.938,1.312,5.703
			c0.535,1.228,2.447,0.948,3.551,0.896c0.772-0.035,1.539-0.011,2.312,0c0.613,0.009,1.739,0.134,2.283-0.237
			c0.226-0.154,0.392-0.111,0.555-0.4c0.184-0.33,0.273-0.709,0.357-1.07c0.202-0.866,0.422-1.739,0.573-2.617
			c0.349-2.042,0.849-4.07,1.255-6.109c0.767-3.83,1.558-7.658,2.348-11.486c0.446-2.151,0.878-4.308,1.32-6.46
			c0.218-1.072,0.44-2.142,0.666-3.214c0.21-0.997,0.53-2.01,0.576-3.031c-2.177,0-4.355,0-6.532,0
			c-0.408,2.572-0.84,5.142-1.282,7.71c-0.381,2.215-0.769,4.426-1.155,6.639c-0.422,2.42-0.843,4.836-1.251,7.257
			c-0.183,1.082-0.362,2.168-0.533,3.25c-0.051,0.326-0.288,2.49-0.577,2.5C59.919,159.807,59.664,158.309,59.389,157.4"/>
		<path opacity="0.35" fill="#231F20" enable-background="new    " d="M125.125,125.86c4.139,0,8.278,0,12.416,0
			c4.096,0,8.191,0,12.286,0c4.252,0,8.505,0,12.758,0c4.187,0,8.371,0,12.558,0c0,3.981,0,7.962,0,11.944c0,3.856,0,7.716,0,11.576
			c0,4.173,0,8.347,0,12.522c0,4.656,0,9.313,0,13.973c-3.396,0-6.797,0-10.193,0c-5.514,0-11.025,0-16.538,0
			c-4.882,0-9.765,0-14.647,0c-2.879,0-5.757,0-8.636,0c0-3.32,0-6.639,0-9.958c0-5.354,0-10.709,0-16.064c0-4.252,0-8.504,0-12.757
			C125.125,133.35,125.125,129.604,125.125,125.86 M136.149,133.924c0,2.867,0,5.735,0,8.603c0,3.388,0,6.774,0,10.161
			c0,3.43,0,6.857,0,10.287c0,1.715,0,3.43,0,5.144c2.381,0,4.763,0,7.144,0c0.022-2.263,0.005-4.522-0.007-6.788
			c-0.005-1.124-0.01-2.251-0.01-3.374c0.001-0.588,0.004-1.172,0.01-1.761c0.003-0.41-0.158-1.202,0.109-1.551
			c2.449,0,4.904,0.055,7.353-0.002c0.734-0.015,1.469-0.098,2.205-0.074c0.251,0.01,1.959,0.242,2.169,0.242
			c0.467-0.002,1.305,0.312,1.646,0.651c0.359,0.36,0.559,1.147,0.656,1.627c0.141,0.671,0.186,1.36,0.211,2.041
			c0.114,3.011,0.24,5.988,0.562,8.986c2.277,0,4.56,0,6.838,0c-0.131-1.806-0.256-3.612-0.338-5.423
			c-0.09-1.938-0.086-3.877-0.336-5.803c-0.111-0.858-0.381-1.484-0.756-2.246c-0.179-0.365-0.859-1.351-1.223-1.389
			c-0.199-0.021-0.76-0.389-0.92-0.449c-0.167-0.062-1.984-0.427-2.246-0.716c0.832-0.217,1.692-0.386,2.479-0.741
			c0.729-0.33,0.984-0.688,1.556-1.259c0.99-0.988,1.276-2.458,1.479-3.817c0.252-1.78,0.223-3.615,0.057-5.402
			c-0.153-1.603-0.38-3.33-1.283-4.703c-1.052-1.606-2.619-2.293-4.477-2.464c-2.172-0.202-4.393-0.088-6.57-0.088
			c-4.535,0-9.071,0-13.605,0c-0.867,0-1.733,0-2.6,0C136.132,133.634,136.139,133.778,136.149,133.924"/>
		<path opacity="0.35" fill="#231F20" enable-background="new    " d="M225.055,125.86c3.982,0,7.965,0,11.947,0
			c4.566,0,9.135,0,13.703,0c4.408,0,8.82,0,13.229,0c3.713,0,7.424,0,11.137,0c0,4.216,0,8.435,0,12.652c0,4.252,0,8.506,0,12.757
			c0,4.252,0,8.504,0,12.758c0,3.947,0,7.897,0,11.847c-4.422,0-8.842,0-13.262,0c-4.252,0-8.506,0-12.757,0
			c-4.491,0-8.979,0-13.468,0c-3.512,0-7.02,0-10.531,0c0-3.87,0-7.74,0-11.61c0-4.646,0-9.295,0-13.939c0-3.463,0-6.93,0-10.393
			C225.055,135.24,225.055,130.55,225.055,125.86 M236.18,133.924c0,2.396,0,4.791,0,7.186c0,3.303,0,6.606,0,9.908
			c0,2.851,0,5.695,0,8.545c0,2.838-0.158,5.724,0,8.556c4.375,0,8.754-0.007,13.127,0c2.159,0.006,4.327,0.062,6.482-0.11
			c1.633-0.131,3.658-0.374,5.117-1.18c1.187-0.653,2.107-1.479,2.935-2.588c1.144-1.522,1.62-3.545,1.946-5.387
			c0.336-1.887,0.584-3.858,0.479-5.776c-0.039-0.679,0.023-1.343,0.025-2.003c0.006-0.962,0.004-1.925-0.021-2.89
			c-0.086-3.135-0.336-6.472-1.662-9.364c-0.562-1.233-1.438-2.443-2.612-3.222c-0.437-0.288-0.917-0.621-1.405-0.818
			c-0.58-0.237-1.189-0.383-1.852-0.55c-3.426-0.886-7.2-0.717-10.76-0.672c-3.897,0.05-7.797,0.196-11.694,0.062
			C236.164,133.634,236.171,133.778,236.18,133.924"/>
		<path opacity="0.35" fill="#231F20" enable-background="new    " d="M88.378,133.618c3.99,0,7.981,0,11.972,0
			c1.96,0,3.919,0,5.879,0c1.024,0,2.05,0,3.075,0c0.951,0,1.917-0.086,2.857,0.103c0,1.835,0,3.673,0,5.511
			c-1.33,0.181-2.68,0.111-4.02,0.103c-1.518-0.008-3.036,0-4.554,0c-0.11,0.853,0.005,1.772,0.009,2.63
			c0.007,0.972,0.009,1.941,0.011,2.911c0.001,1.976-0.004,3.952-0.011,5.929c-0.008,2.201-0.018,4.405-0.021,6.608
			c-0.002,1.661,0,3.325,0.011,4.989c2.858,0,5.717,0,8.574,0c0,1.871,0,3.742,0,5.613c-1.782,0.342-3.764,0.101-5.572,0.101
			c-2.053,0-4.105,0-6.158,0c-4.052,0-8.103,0-12.154,0c0-1.904,0-3.81,0-5.714c2.824,0,5.647,0,8.472,0
			c0.104-0.855-0.005-1.771-0.01-2.633c-0.007-0.971-0.01-1.941-0.011-2.91c-0.001-1.979,0.004-3.95,0.012-5.928
			c0.009-2.171,0.018-4.345,0.021-6.516c0.001-1.694,0-3.388-0.012-5.083c-2.824,0-5.648,0-8.472,0
			C88.277,138.778,88.076,133.662,88.378,133.618"/>
		<path opacity="0.35" fill="#231F20" enable-background="new    " d="M184.428,133.618c3.272,0,6.543,0,9.813,0
			c3.856,0,7.717,0,11.575,0c2.637,0,5.271,0,7.908,0c0,3.674,0,7.349,0,11.024c-1.51,0.163-4.822,0.163-6.33,0
			c0-1.769,0-3.539,0-5.308c-3.914,0-7.826,0-11.737,0c0,2.722,0,5.443,0,8.164c0.532,0.292,1.467,0.106,2.058,0.109
			c0.83,0.002,1.66,0.001,2.491-0.002c1.612-0.004,3.229-0.015,4.843-0.004c0,1.839,0,3.674,0,5.513c-1.793,0-3.583,0-5.375,0
			c-1.34,0-2.679,0-4.017,0c-0.124,0.153-0.03,0.409-0.015,0.584c0.033,0.37,0.026,0.75,0.03,1.124
			c0.011,0.798,0.007,1.598-0.001,2.395c-0.018,1.694-0.053,3.389-0.018,5.083c0.35,0.194,0.818,0.116,1.197,0.104
			c0.479-0.014,0.961,0,1.44,0.004c1.015,0.003,2.028,0,3.043-0.004c2.155-0.002,4.312-0.014,6.464-0.002c0-2.008,0-4.014,0-6.021
			c2.076,0,4.153,0,6.227,0c0,3.912,0,7.823,0,11.735c-3.604,0-7.207,0-10.812,0c-3.387,0-6.772,0-10.159,0c-2.91,0-5.82,0-8.73,0
			c0-1.904,0-3.81,0-5.714c1.529,0,3.062,0,4.593,0c0-1.658,0-3.313,0-4.975c0-3.312,0-6.627,0-9.941c0-2.683,0-5.369,0-8.052
			c-0.545-0.313-1.591-0.105-2.21-0.104c-0.794,0-1.588,0.006-2.383,0.003C184.327,138.778,184.127,133.662,184.428,133.618"/>
		<path opacity="0.35" fill="#231F20" enable-background="new    " d="M143.396,139.436c3.721,0.071,7.441-0.082,11.165-0.007
			c0.557,0.013,0.926,0.075,1.5,0.142c0.729,0.084,1.238,0.468,1.422,1.193c0.067,0.269,0.219,0.529,0.246,0.853
			c0.045,0.479,0.084,0.962,0.119,1.442c0.066,0.832,0.104,1.67,0.057,2.502c-0.029,0.577-0.229,1.066-0.258,1.609
			c-0.025,0.519-0.371,0.938-0.652,1.377c-0.337,0.528-1.082,0.533-1.652,0.585c-0.725,0.07-1.459,0.064-2.188,0.057
			c-3.285-0.038-6.57-0.057-9.858-0.057c0-1.658,0-3.313,0-4.972C143.293,143.692,143.115,139.476,143.396,139.436"/>
		<path opacity="0.35" fill="#231F20" enable-background="new    " d="M243.327,139.436c2.246,0.084,4.493-0.004,6.739-0.038
			c1.052-0.016,2.104-0.016,3.156,0.023c1.004,0.039,2.045,0.041,3,0.373c1.532,0.532,2.303,1.659,2.644,3.17
			c0.431,1.902,0.472,3.917,0.519,5.858c0.051,2.035,0.02,4.074-0.104,6.109c-0.11,1.865-0.146,4.125-1.221,5.738
			c-0.373,0.559-1.213,1.059-1.847,1.257c-0.784,0.246-1.651,0.277-2.461,0.363c-0.313,0.033-0.181-0.104-0.458-0.019
			s-0.602,0.065-0.888,0.062c-0.91-0.018-1.823-0.036-2.733-0.036c-2.15,0-4.303,0-6.449,0c0-3.854,0-7.707,0-11.562
			c0-1.879,0-3.758,0-5.638C243.225,144.551,243.025,139.479,243.327,139.436"/>
	</g>
</g>
<g id="offset" display="none">
	<g display="inline">
		
			<line fill="none" stroke="#231F20" stroke-width="0.4018" stroke-linecap="round" stroke-linejoin="round" x1="251.309" y1="147.873" x2="251.309" y2="153.898"/>
		<path fill="none" stroke="#231F20" stroke-width="0.4018" stroke-linecap="round" stroke-linejoin="round" d="M248.247,157.277
			h1.428c0.769,0,1.538,0.014,2.306,0.029l0.479,0.008c0.326-0.062,0.649-0.092,0.979-0.092c0.131,0,0.27,0.006,0.398,0.017
			c0.066-0.009,0.143-0.013,0.219-0.021c0.098-0.635,0.148-1.52,0.178-2.073l0.031-0.514c0.109-1.839,0.143-3.751,0.094-5.689
			l-0.002-0.116c-0.037-1.568-0.074-3.058-0.311-4.347c-0.234-0.013-0.502-0.022-0.714-0.03l-0.308-0.011
			c-0.565-0.021-1.137-0.029-1.705-0.029c-0.395,0-0.786,0.004-1.184,0.009c-0.544,0.008-1.09,0.02-1.633,0.031
			c-0.093,0.002-0.184,0.004-0.271,0.005c0.006,0.314,0.013,0.542,0.013,0.644v5.64L248.247,157.277L248.247,157.277z"/>
		<path fill="none" stroke="#231F20" stroke-width="0.4018" stroke-linecap="round" stroke-linejoin="round" d="M245.736,159.79
			h3.938c0.756,0,1.508,0.015,2.262,0.026l0.517,0.01l0.11,0.003l0.148,0.003c0.246-0.064,0.484-0.098,0.729-0.098
			c0.129,0,0.256,0.009,0.383,0.026c0.08-0.009,0.16-0.014,0.24-0.021c0.537-0.049,1.043-0.096,1.396-0.205
			c0.172-0.057,0.436-0.211,0.543-0.309c0.572-0.914,0.661-2.521,0.743-3.944l0.024-0.501c0.115-1.906,0.149-3.893,0.103-5.899
			l-0.004-0.117c-0.043-1.784-0.089-3.629-0.453-5.248c-0.228-1-0.597-1.203-1.019-1.349c-0.508-0.177-1.221-0.201-1.976-0.228
			l-0.298-0.011c-0.602-0.021-1.204-0.03-1.803-0.03c-0.408,0-0.812,0.004-1.219,0.009c-0.553,0.008-1.103,0.02-1.65,0.031
			c-0.928,0.02-1.852,0.039-2.778,0.043c0.007,0.643,0.019,1.437,0.046,2.376c0.008,0.365,0.016,0.633,0.016,0.741v5.639v9.052
			H245.736z"/>
		<path fill="none" stroke="#231F20" stroke-width="0.4018" stroke-linecap="round" stroke-linejoin="round" d="M263.971,170.854
			c1.5-0.932,2.78-2.117,3.896-3.605c1.062-1.414,1.727-2.975,2.182-4.512v8.117H263.971z M230.079,170.854v-5.479v-8.625v-9.125
			v-9.25v-7.492h1.938c-0.56,0.842-0.895,1.895-0.859,3.134v6.859v7.625v8.375v2.688c0,0.914-0.018,1.832-0.035,2.752
			c-0.034,1.971-0.071,4.006,0.043,6.082l0.136,2.455H230.079L230.079,170.854z M270.046,139.014
			c-0.239-0.77-0.528-1.534-0.873-2.287c-0.72-1.57-2.069-3.769-4.407-5.319l-0.111-0.073c-0.203-0.136-0.438-0.291-0.701-0.453
			h6.095L270.046,139.014L270.046,139.014z"/>
		<path fill="none" stroke="#231F20" stroke-width="0.4018" stroke-linecap="round" stroke-linejoin="round" d="M265.5,173.364
			h-7.125H250h-7.5h-7.75h-7.184v-7.614v-7.625v-6.5V144v-8v-7.629h6.809H241h7.875H258h7.125h7.434v6.879v7.375V151v7.875v7.75
			v6.739H265.5z M249.305,170.63c0,0,2.182,0.013,2.668,0.013c1.174,0,2.567-0.017,4.016-0.132c1.99-0.159,4.273-0.461,6.132-1.481
			c1.483-0.816,2.672-1.86,3.733-3.285c1.455-1.942,2.033-4.354,2.404-6.449c0.309-1.73,0.645-4.021,0.514-6.357
			c-0.02-0.313-0.006-0.668,0.012-1.039c0.008-0.271,0.021-0.537,0.021-0.808c0.006-0.81,0.006-1.878-0.023-2.972
			c-0.051-1.894-0.164-3.848-0.506-5.768c-0.278-1.563-0.709-3.105-1.383-4.576c-0.584-1.273-1.664-3.047-3.514-4.27l-0.113-0.077
			c-0.471-0.311-1.056-0.7-1.734-0.975c-0.721-0.292-1.426-0.469-2.104-0.637l-0.075-0.02c-2.691-0.696-5.476-0.791-7.841-0.791
			c-0.823,0-1.646,0.012-2.461,0.026l-1.099,0.015c-1.008,0.014-2.012,0.032-3.018,0.051c-1.688,0.032-3.433,0.065-5.133,0.065
			c-1.253,0-2.374-0.019-3.429-0.054l-0.228-0.008l-0.224,0.033c-1.134,0.165-2.31,1.125-2.252,2.844v6.524v6.374v7v5.688
			c0,0.926-0.017,1.862-0.034,2.797c-0.035,1.927-0.072,3.914,0.039,5.896l0.131,2.372l6.195-0.002l4.934-0.002L249.305,170.63z"/>
		<path fill="none" stroke="#231F20" stroke-width="0.4018" stroke-linecap="round" stroke-linejoin="round" d="M186.839,165.607
			h6.22h10.162h8.299v-6.717h-1.203v3.514v2.521l-2.521-0.012c-0.671-0.003-1.341-0.006-2.012-0.006
			c-0.999,0-1.999,0.003-2.999,0.006l-1.438,0.003l-1.832,0.002h-1.223h-0.496h-4.648v-2.562c-0.027-1.363-0.017-2.729,0-4.047
			v-1.113c0.011-0.779,0.012-1.562,0-2.344V154.6c0-0.203,0-3.998,0-3.998h2.514h4.018h2.861v-0.48c-0.48,0.002-0.965-0.002-1.447,0
			h-0.875h-1.609h-0.896l0,0c-0.105,0-4.562,0-4.562,0v-2.62v-8.167v-2.512h2.514h6.217h5.521h2.512v2.512v2.916
			c0.213,0.003,0.434,0.004,0.654,0.004c0.219,0,0.438-0.001,0.65-0.004v-6.121h-5.396h-11.575h-7.466
			c0.003,0.212,0.005,0.421,0.009,0.668c0.093-0.004,0.192,0.008,0.3,0c0.299-0.023,4.35,0,4.35,0v2.638v8.054v9.942v4.973v2.512
			h-2.514h-2.081L186.839,165.607L186.839,165.607z"/>
		<path fill="none" stroke="#231F20" stroke-width="0.4018" stroke-linecap="round" stroke-linejoin="round" d="M145.805,146.626
			c2.383,0.006,4.817,0.025,7.376,0.052l0.592,0.004c0.555,0,0.963-0.016,1.33-0.05l0.071-0.005
			c0.037-0.296,0.097-0.554,0.144-0.775c0.039-0.173,0.074-0.337,0.078-0.428c0.033-0.611,0.019-1.28-0.051-2.169
			c-0.033-0.417-0.066-0.836-0.104-1.254c-0.271-0.033-0.479-0.053-0.736-0.06c-0.762-0.015-1.524-0.021-2.287-0.021
			c-1.094,0-2.187,0.012-3.279,0.023c-1.062,0.012-2.124,0.023-3.184,0.023c0.006,0.428,0.017,0.942,0.035,1.565
			c0.008,0.311,0.014,0.536,0.014,0.63L145.805,146.626L145.805,146.626z"/>
		<path fill="none" stroke="#231F20" stroke-width="0.4018" stroke-linecap="round" stroke-linejoin="round" d="M148.291,170.854
			l0.025-2.686c0.02-2.021,0.01-4.043-0.001-6.062c0,0-0.01-1.877-0.013-2.414c0.854,0,1.706-0.006,2.558-0.023
			c0.343-0.008,0.687-0.023,1.027-0.045c0.247-0.016,0.494-0.03,0.74-0.033c0.123,3.18,0.254,6.071,0.575,9.064l0.233,2.199H148.291
			z M130.147,170.854v-7.729v-8v-9.5v-7.375v-7.368h1.835c-0.56,0.843-0.893,1.901-0.857,3.143v5.35v7.875v7.125V162v8.854H130.147z
			 M170.046,167.761c-0.13-1.801-0.252-3.561-0.33-5.294c-0.022-0.492-0.039-0.984-0.056-1.478
			c-0.051-1.521-0.104-3.091-0.317-4.744c-0.214-1.638-0.743-2.823-1.224-3.808c-0.036-0.072-0.082-0.162-0.137-0.264
			c1.246-1.945,1.553-4.046,1.717-5.177c0.287-2.008,0.314-4.16,0.086-6.593c-0.146-1.558-0.419-4.456-2.08-6.989
			c-0.54-0.824-1.303-1.732-2.35-2.534h4.763v4.368v9.854v5.146v5.875v4v8.649L170.046,167.761z"/>
		<path fill="none" stroke="#231F20" stroke-width="0.4018" stroke-linecap="round" stroke-linejoin="round" d="M166.5,173.364h-6
			h-9.375h-8.75H134.5h-6.864v-5.989v-8.75v-8.375v-8.125V135v-6.628h9.114h7.625H152h8h5.875h6.754v8.003v8.5v7.375v7.875v7.75
			v5.489H166.5z M154.898,157.314c0.021,0.078,0.047,0.175,0.067,0.289c0.104,0.5,0.142,1.076,0.16,1.625
			c0.124,3.233,0.252,6.16,0.571,9.156l0.24,2.243h7.312h4.481l-0.191-2.688c-0.129-1.817-0.252-3.597-0.333-5.358
			c-0.022-0.504-0.04-1.005-0.058-1.507c-0.051-1.463-0.102-2.971-0.301-4.508c-0.162-1.258-0.578-2.186-0.988-3.025
			c-0.104-0.214-0.446-0.874-1.004-1.499l0.168-0.171c1.67-1.664,2.009-3.987,2.188-5.235c0.257-1.801,0.28-3.762,0.07-5.996
			c-0.175-1.856-0.462-3.989-1.681-5.847c-1.393-2.119-3.525-3.325-6.347-3.586c-0.976-0.091-1.998-0.131-3.317-0.131
			c-0.598,0-1.191,0.008-1.785,0.016c-0.565,0.007-1.133,0.016-1.698,0.016H145h-8.932l-0.18,0.025
			c-1.138,0.165-2.313,1.126-2.252,2.85v6.893v7.875v7.5v7.25v7.13H139h6.781l0.023-2.486c0.019-2.01,0.008-4.019-0.003-6.022
			l-0.004-0.806c-0.005-1.116-0.01-2.237-0.01-3.355c0.001-0.265,0.001-0.525,0.003-0.79c0.005,0,0.011,0,0.015,0
			c0.817,0.009,1.633,0.013,2.45,0.013c0.85,0,1.699-0.006,2.548-0.023c0.312-0.008,0.627-0.023,0.941-0.042
			c0.312-0.019,0.627-0.036,0.941-0.036l0.188,0.003c0.089,0.008,0.449,0.054,0.812,0.101
			C154.366,157.264,154.686,157.299,154.898,157.314L154.898,157.314z"/>
		<path fill="none" stroke="#231F20" stroke-width="0.4018" stroke-linecap="round" stroke-linejoin="round" d="M90.788,165.607
			h9.643h6.157c0.554,0,1.123,0.021,1.697,0.041c0.453,0.019,0.91,0.035,1.365,0.039v-0.772h-6.063h-2.527v-2.495
			c-0.011-1.669-0.002-3.338,0-5.01c0.001-1.732-0.006-3.467,0-5.198v-1.417c0.007-1.972,0.001-3.943,0-5.916
			c-0.001-0.965,0.006-1.931,0-2.898c-0.001-0.246,0.011-0.498,0-0.751c-0.032-0.667-0.102-1.422,0-2.216v-2.191h2.527l1.471-0.001
			l1.479-0.002c0.54,0,1.079,0.002,1.617,0.004c0.277,0.002,0.554,0.006,0.831,0.01c0.222,0.004,0.443,0.006,0.665,0.008v-0.716
			c-0.116,0.001-0.231,0.003-0.346,0.003h-3.075h-5.879h-9.626c0.003,0.214,0.005,0.445,0.009,0.693h6.015h2.525v2.495
			c0.012,1.701,0.002,3.402,0,5.104c-0.001,1.724,0.007,3.449,0,5.173v1.348c-0.007,1.975-0.001,3.944,0,5.916
			c0.001,0.968-0.006,1.933,0,2.896c0.001,0.249-0.011,0.503,0,0.76c0.029,0.657,0.094,1.405,0,2.189v2.212h-2.525h-5.961
			L90.788,165.607L90.788,165.607z"/>
		<path fill="none" stroke="#231F20" stroke-width="0.4018" stroke-linecap="round" stroke-linejoin="round" d="M68.294,170.854
			c0.194-0.242,0.371-0.504,0.527-0.785c0.533-0.946,0.743-1.846,0.868-2.379l0.114-0.48c0.131-0.555,0.266-1.122,0.386-1.723v5.367
			H68.294z M48.353,170.854c0.34-0.416,0.59-0.821,0.767-1.172c0.648-1.271,0.894-2.498,1.062-3.438
			c0.208,0.996,0.49,2.049,0.956,3.114c0.167,0.384,0.457,0.932,0.923,1.496H48.353z M30.218,170.854v-5.463
			c0.035,0.149,0.072,0.301,0.108,0.451c0.069,0.285,0.142,0.571,0.194,0.861l0.023,0.172c0.112,0.85,0.331,2.511,1.56,3.979H30.218
			z M40.437,130.882h2.453c-1.24,1.471-1.569,3.143-1.752,4.073L40.437,130.882z M59.693,134.798
			c-0.195-0.894-0.547-2.507-1.737-3.916h2.396l-0.309,1.949c-0.105,0.666-0.216,1.346-0.331,2.054
			C59.712,134.885,59.7,134.828,59.693,134.798z"/>
		<path fill="none" stroke="#231F20" stroke-width="0.4018" stroke-linecap="round" stroke-linejoin="round" d="M66,173.364h-7.875
			H51.75h-7.876h-8.749h-7.419v-8.114v-7.5v-7.5v-9.409c0.002,0.013,1.399,6.837,1.399,6.837c0.237,1.156,0.465,2.314,0.694,3.474
			c0.53,2.686,1.078,5.462,1.726,8.184c0.321,1.348,0.625,2.814,0.954,4.621c0.081,0.436,0.183,0.863,0.287,1.293
			c0.081,0.333,0.162,0.662,0.223,0.997c0.018,0.091,0.029,0.192,0.044,0.3c0.101,0.77,0.27,2.057,1.305,3.021
			c1.358,1.266,3.223,1.266,3.834,1.266c0.457,0,0.922-0.029,1.361-0.059c0.281-0.021,0.546-0.039,0.779-0.039h0.048
			c0.178,0.004,0.387,0.021,0.615,0.039c0.419,0.031,0.896,0.067,1.408,0.067c2.748,0,3.963-1.253,4.499-2.303
			c0.526-1.033,0.712-2.093,0.862-2.944l0.083-0.46c0.145-0.77,0.333-1.538,0.532-2.354l0.034-0.142
			c0.379-1.56,0.708-3.142,1.026-4.673c0.129-0.618,0.257-1.237,0.389-1.854c0.139-0.649,0.277-1.302,0.412-1.949l0.328,1.468
			c0.18,0.812,0.35,1.626,0.52,2.44c0.285,1.364,0.578,2.774,0.92,4.169c0.14,0.57,0.245,1.195,0.355,1.857
			c0.223,1.324,0.475,2.827,1.094,4.252c0.49,1.127,1.669,2.471,4.503,2.471c0.389,0,0.774-0.023,1.12-0.047l0.348-0.021
			c0.265-0.012,0.528-0.018,0.792-0.018c0.313,0,0.628,0.006,0.944,0.012l0.423,0.009c0.086,0,0.182,0.007,0.285,0.009
			c0.216,0.01,0.454,0.019,0.698,0.019c0.702,0,1.718-0.063,2.606-0.606c0.449-0.203,1.033-0.556,1.475-1.341
			c0.357-0.637,0.504-1.264,0.61-1.724l0.115-0.485c0.174-0.733,0.354-1.494,0.49-2.284c0.208-1.217,0.468-2.419,0.745-3.689
			c0.17-0.783,0.34-1.566,0.498-2.352c0.766-3.828,1.555-7.648,2.345-11.474c0.27-1.309,0.537-2.62,0.803-3.931l0.461-2.263V151v6.5
			v7.875v7.989H66z M39.607,140.927c-0.438-2.581-0.877-5.161-1.322-7.736l-0.358-2.084h-5.426h-4.794v-2.736h7.169h7.874h7.001
			h7.125H64.5h8.2v2.736h-5.074h-4.767l-0.335,2.117c-0.358,2.255-0.764,4.695-1.276,7.679c-0.322,1.866-0.646,3.73-0.972,5.594
			c0,0-0.246,1.411-0.279,1.598c-0.228-1.083-0.469-2.212-0.731-3.402c-0.301-1.378-0.599-2.755-0.896-4.133
			c0,0-1.01-4.679-1.128-5.223c-0.201-0.919-0.517-2.362-1.739-3.36c-1.132-0.924-2.508-0.939-3.331-0.949
			c-0.11-0.002-0.219-0.002-0.318-0.006c-0.695-0.034-1.506-0.07-2.316-0.07c-0.375,0-0.749,0.008-1.12,0.025
			c-1.035,0.05-2.471,0.323-3.434,1.332c-0.966,1.012-1.217,2.29-1.383,3.134c-0.027,0.143-0.054,0.281-0.084,0.413
			c-0.41,1.74-0.815,3.584-1.313,5.978c-0.111,0.534-0.226,1.068-0.34,1.604l-0.269,1.258c-0.069,0.329-0.156,0.661-0.244,0.991
			c-0.154,0.584-0.313,1.186-0.415,1.845c-0.034,0.211-0.067,0.416-0.1,0.614L39.607,140.927z"/>
	</g>
</g>
<polyline fill-rule="evenodd" clip-rule="evenodd" fill="none" stroke="#000000" points="117.5,57.5 189.5,57.5 189.5,66.5 
	117.5,66.5 117.5,75.5 189.5,75.5 189.5,84.5 117.5,84.5 117.5,93.5 189.5,93.5 189.5,102.5 117.5,102.5 117.5,111.5 189.5,111.5 
	189.5,120.5 117.5,120.5 117.5,129.5 189.5,129.5 189.5,138.5 117.5,138.5 117.5,147.5 189.5,147.5 189.5,156.5 117.5,156.5 
	117.5,165.5 189.5,165.5 189.5,174.5 117.5,174.5 117.5,183.5 189.5,183.5 189.5,192.5 117.5,192.5 117.5,201.5 189.5,201.5 
	189.5,210.5 117.5,210.5 117.5,219.5 189.5,219.5 189.5,228.5 117.5,228.5 117.5,237.5 189.5,237.5 "/>
</svg>
