<?xml version="1.0" encoding="utf-8"?>
<!-- Generator: Adobe Illustrator 15.1.0, SVG Export Plug-In . SVG Version: 6.00 Build 0)  -->
<!DOCTYPE svg PUBLIC "-//W3C//DTD SVG 1.1//EN" "http://www.w3.org/Graphics/SVG/1.1/DTD/svg11.dtd">
<svg version="1.1" id="Layer_1" xmlns="http://www.w3.org/2000/svg" xmlns:xlink="http://www.w3.org/1999/xlink" x="0px" y="0px"
	 width="300px" height="300px" viewBox="0 0 300 300" enable-background="new 0 0 300 300" xml:space="preserve">
<line fill="none" stroke="#000000" stroke-miterlimit="10" x1="298.5" y1="0" x2="298.5" y2="300"/>
<line fill="none" stroke="#000000" stroke-miterlimit="10" x1="293.5" y1="0" x2="293.5" y2="300"/>
<line fill="none" stroke="#000000" stroke-miterlimit="10" x1="279.5" y1="0" x2="279.5" y2="300"/>
<line fill="none" stroke="#000000" stroke-miterlimit="10" x1="268.5" y1="0" x2="268.5" y2="300"/>
<line fill="none" stroke="#000000" stroke-miterlimit="10" x1="258.5" y1="0" x2="258.5" y2="300"/>
<line fill="none" stroke="#000000" stroke-miterlimit="10" x1="250.5" y1="0" x2="250.5" y2="300"/>
<line fill="none" stroke="#000000" stroke-miterlimit="10" x1="242.5" y1="0" x2="242.5" y2="300"/>
<line fill="none" stroke="#000000" stroke-miterlimit="10" x1="234.5" y1="0" x2="234.5" y2="300"/>
<line fill="none" stroke="#000000" stroke-miterlimit="10" x1="220.5" y1="0" x2="220.5" y2="300"/>
<line fill="none" stroke="#000000" stroke-miterlimit="10" x1="204.5" y1="0" x2="204.5" y2="300"/>
<line fill="none" stroke="#000000" stroke-miterlimit="10" x1="196.5" y1="0" x2="196.5" y2="300"/>
<line fill="none" stroke="#000000" stroke-miterlimit="10" x1="172.5" y1="0" x2="172.5" y2="300"/>
<line fill="none" stroke="#000000" stroke-miterlimit="10" x1="150.5" y1="0" x2="150.5" y2="300"/>
<line fill="none" stroke="#000000" stroke-miterlimit="10" x1="137.5" y1="0" x2="137.5" y2="300"/>
<line fill="none" stroke="#000000" stroke-miterlimit="10" x1="290.5" y1="0" x2="290.5" y2="300"/>
<line fill="none" stroke="#000000" stroke-miterlimit="10" x1="282.5" y1="0" x2="282.5" y2="300"/>
<line fill="none" stroke="#000000" stroke-miterlimit="10" x1="271.5" y1="0" x2="271.5" y2="300"/>
<line fill="none" stroke="#000000" stroke-miterlimit="10" x1="260.5" y1="0" x2="260.5" y2="300"/>
<line fill="none" stroke="#000000" stroke-miterlimit="10" x1="247.5" y1="0" x2="247.5" y2="300"/>
<line fill="none" stroke="#000000" stroke-miterlimit="10" x1="236.5" y1="0" x2="236.5" y2="300"/>
<line fill="none" stroke="#000000" stroke-miterlimit="10" x1="226.5" y1="0" x2="226.5" y2="300"/>
<line fill="none" stroke="#000000" stroke-miterlimit="10" x1="217.5" y1="0" x2="217.5" y2="300"/>
<line fill="none" stroke="#000000" stroke-miterlimit="10" x1="207.5" y1="0" x2="207.5" y2="300"/>
<line fill="none" stroke="#000000" stroke-miterlimit="10" x1="191.5" y1="0" x2="191.5" y2="300"/>
<line fill="none" stroke="#000000" stroke-miterlimit="10" x1="177.5" y1="0" x2="177.5" y2="300"/>
<line fill="none" stroke="#000000" stroke-miterlimit="10" x1="153.5" y1="0" x2="153.5" y2="300"/>
<line fill="none" stroke="#000000" stroke-miterlimit="10" x1="129.5" y1="0" x2="129.5" y2="300"/>
<line fill="none" stroke="#000000" stroke-miterlimit="10" x1="118.5" y1="0" x2="118.5" y2="300"/>
<line fill="none" stroke="#000000" stroke-miterlimit="10" x1="295.5" y1="0" x2="295.5" y2="300"/>
<line fill="none" stroke="#000000" stroke-miterlimit="10" x1="287.5" y1="0" x2="287.5" y2="300"/>
<line fill="none" stroke="#000000" stroke-miterlimit="10" x1="274.5" y1="0" x2="274.5" y2="300"/>
<line fill="none" stroke="#000000" stroke-miterlimit="10" x1="263.5" y1="0" x2="263.5" y2="300"/>
<line fill="none" stroke="#000000" stroke-miterlimit="10" x1="252.5" y1="0" x2="252.5" y2="300"/>
<line fill="none" stroke="#000000" stroke-miterlimit="10" x1="244.5" y1="0" x2="244.5" y2="300"/>
<line fill="none" stroke="#000000" stroke-miterlimit="10" x1="231.5" y1="0" x2="231.5" y2="300"/>
<line fill="none" stroke="#000000" stroke-miterlimit="10" x1="223.5" y1="0" x2="223.5" y2="300"/>
<line fill="none" stroke="#000000" stroke-miterlimit="10" x1="212.5" y1="0" x2="212.5" y2="300"/>
<line fill="none" stroke="#000000" stroke-miterlimit="10" x1="199.5" y1="0" x2="199.5" y2="300"/>
<line fill="none" stroke="#000000" stroke-miterlimit="10" x1="188.5" y1="0" x2="188.5" y2="300"/>
<line fill="none" stroke="#000000" stroke-miterlimit="10" x1="161.5" y1="0" x2="161.5" y2="300"/>
<line fill="none" stroke="#000000" stroke-miterlimit="10" x1="134.5" y1="0" x2="134.5" y2="300"/>
<line fill="none" stroke="#000000" stroke-miterlimit="10" x1="123.5" y1="0" x2="123.5" y2="300"/>
<line fill="none" stroke="#000000" stroke-miterlimit="10" x1="285.5" y1="0" x2="285.5" y2="300"/>
<line fill="none" stroke="#000000" stroke-miterlimit="10" x1="277.5" y1="0" x2="277.5" y2="300"/>
<line fill="none" stroke="#000000" stroke-miterlimit="10" x1="266.5" y1="0" x2="266.5" y2="300"/>
<line fill="none" stroke="#000000" stroke-miterlimit="10" x1="255.5" y1="0" x2="255.5" y2="300"/>
<line fill="none" stroke="#000000" stroke-miterlimit="10" x1="239.5" y1="0" x2="239.5" y2="300"/>
<line fill="none" stroke="#000000" stroke-miterlimit="10" x1="228.5" y1="0" x2="228.5" y2="300"/>
<line fill="none" stroke="#000000" stroke-miterlimit="10" x1="215.5" y1="0" x2="215.5" y2="300"/>
<line fill="none" stroke="#000000" stroke-miterlimit="10" x1="209.5" y1="0" x2="209.5" y2="300"/>
<line fill="none" stroke="#000000" stroke-miterlimit="10" x1="201.5" y1="0" x2="201.5" y2="300"/>
<line fill="none" stroke="#000000" stroke-miterlimit="10" x1="183.5" y1="0" x2="183.5" y2="300"/>
<line fill="none" stroke="#000000" stroke-miterlimit="10" x1="166.5" y1="0" x2="166.5" y2="300"/>
<line fill="none" stroke="#000000" stroke-miterlimit="10" x1="142.5" y1="0" x2="142.5" y2="300"/>
<line fill="none" stroke="#000000" stroke-miterlimit="10" x1="115.5" y1="0" x2="115.5" y2="300"/>
<line fill="none" stroke="#000000" stroke-miterlimit="10" x1="107.5" y1="0" x2="107.5" y2="300"/>
<line fill="none" stroke="#000000" stroke-miterlimit="10" x1="193.5" y1="0" x2="193.5" y2="300"/>
<line fill="none" stroke="#000000" stroke-miterlimit="10" x1="180.5" y1="0" x2="180.5" y2="300"/>
<line fill="none" stroke="#000000" stroke-miterlimit="10" x1="156.5" y1="0" x2="156.5" y2="300"/>
<line fill="none" stroke="#000000" stroke-miterlimit="10" x1="132.5" y1="0" x2="132.5" y2="300"/>
<line fill="none" stroke="#000000" stroke-miterlimit="10" x1="110.5" y1="0" x2="110.5" y2="300"/>
<line fill="none" stroke="#000000" stroke-miterlimit="10" x1="99.5" y1="0" x2="99.5" y2="300"/>
<line fill="none" stroke="#000000" stroke-miterlimit="10" x1="91.5" y1="0" x2="91.5" y2="300"/>
<line fill="none" stroke="#000000" stroke-miterlimit="10" x1="83.5" y1="0" x2="83.5" y2="300"/>
<line fill="none" stroke="#000000" stroke-miterlimit="10" x1="70.5" y1="0" x2="70.5" y2="300"/>
<line fill="none" stroke="#000000" stroke-miterlimit="10" x1="54.5" y1="0" x2="54.5" y2="300"/>
<line fill="none" stroke="#000000" stroke-miterlimit="10" x1="46.5" y1="0" x2="46.5" y2="300"/>
<line fill="none" stroke="#000000" stroke-miterlimit="10" x1="32.5" y1="0" x2="32.5" y2="300"/>
<line fill="none" stroke="#000000" stroke-miterlimit="10" x1="21.5" y1="0" x2="21.5" y2="300"/>
<line fill="none" stroke="#000000" stroke-miterlimit="10" x1="16.5" y1="0" x2="16.5" y2="300"/>
<line fill="none" stroke="#000000" stroke-miterlimit="10" x1="175.5" y1="0" x2="175.5" y2="300"/>
<line fill="none" stroke="#000000" stroke-miterlimit="10" x1="158.5" y1="0" x2="158.5" y2="300"/>
<line fill="none" stroke="#000000" stroke-miterlimit="10" x1="140.5" y1="0" x2="140.5" y2="300"/>
<line fill="none" stroke="#000000" stroke-miterlimit="10" x1="113.5" y1="0" x2="113.5" y2="300"/>
<line fill="none" stroke="#000000" stroke-miterlimit="10" x1="97.5" y1="0" x2="97.5" y2="300"/>
<line fill="none" stroke="#000000" stroke-miterlimit="10" x1="86.5" y1="0" x2="86.5" y2="300"/>
<line fill="none" stroke="#000000" stroke-miterlimit="10" x1="75.5" y1="0" x2="75.5" y2="300"/>
<line fill="none" stroke="#000000" stroke-miterlimit="10" x1="67.5" y1="0" x2="67.5" y2="300"/>
<line fill="none" stroke="#000000" stroke-miterlimit="10" x1="56.5" y1="0" x2="56.5" y2="300"/>
<line fill="none" stroke="#000000" stroke-miterlimit="10" x1="43.5" y1="0" x2="43.5" y2="300"/>
<line fill="none" stroke="#000000" stroke-miterlimit="10" x1="35.5" y1="0" x2="35.5" y2="300"/>
<line fill="none" stroke="#000000" stroke-miterlimit="10" x1="24.5" y1="0" x2="24.5" y2="300"/>
<line fill="none" stroke="#000000" stroke-miterlimit="10" x1="11.5" y1="0" x2="11.5" y2="300"/>
<line fill="none" stroke="#000000" stroke-miterlimit="10" x1="5.5" y1="0" x2="5.5" y2="300"/>
<line fill="none" stroke="#000000" stroke-miterlimit="10" x1="185.5" y1="0" x2="185.5" y2="300"/>
<line fill="none" stroke="#000000" stroke-miterlimit="10" x1="169.5" y1="0" x2="169.5" y2="300"/>
<line fill="none" stroke="#000000" stroke-miterlimit="10" x1="145.5" y1="0" x2="145.5" y2="300"/>
<line fill="none" stroke="#000000" stroke-miterlimit="10" x1="121.5" y1="0" x2="121.5" y2="300"/>
<line fill="none" stroke="#000000" stroke-miterlimit="10" x1="102.5" y1="0" x2="102.5" y2="300"/>
<line fill="none" stroke="#000000" stroke-miterlimit="10" x1="94.5" y1="0" x2="94.5" y2="300"/>
<line fill="none" stroke="#000000" stroke-miterlimit="10" x1="81.5" y1="0" x2="81.5" y2="300"/>
<line fill="none" stroke="#000000" stroke-miterlimit="10" x1="72.5" y1="0" x2="72.5" y2="300"/>
<line fill="none" stroke="#000000" stroke-miterlimit="10" x1="62.5" y1="0" x2="62.5" y2="300"/>
<line fill="none" stroke="#000000" stroke-miterlimit="10" x1="48.5" y1="0" x2="48.5" y2="300"/>
<line fill="none" stroke="#000000" stroke-miterlimit="10" x1="40.5" y1="0" x2="40.5" y2="300"/>
<line fill="none" stroke="#000000" stroke-miterlimit="10" x1="27.5" y1="0" x2="27.5" y2="300"/>
<line fill="none" stroke="#000000" stroke-miterlimit="10" x1="13.5" y1="0" x2="13.5" y2="300"/>
<line fill="none" stroke="#000000" stroke-miterlimit="10" x1="8.5" y1="0" x2="8.5" y2="300"/>
<line fill="none" stroke="#000000" stroke-miterlimit="10" x1="164.5" y1="0" x2="164.5" y2="300"/>
<line fill="none" stroke="#000000" stroke-miterlimit="10" x1="148.5" y1="0" x2="148.5" y2="300"/>
<line fill="none" stroke="#000000" stroke-miterlimit="10" x1="126.5" y1="0" x2="126.5" y2="300"/>
<line fill="none" stroke="#000000" stroke-miterlimit="10" x1="105.5" y1="0" x2="105.5" y2="300"/>
<line fill="none" stroke="#000000" stroke-miterlimit="10" x1="89.5" y1="0" x2="89.5" y2="300"/>
<line fill="none" stroke="#000000" stroke-miterlimit="10" x1="78.5" y1="0" x2="78.5" y2="300"/>
<line fill="none" stroke="#000000" stroke-miterlimit="10" x1="64.5" y1="0" x2="64.5" y2="300"/>
<line fill="none" stroke="#000000" stroke-miterlimit="10" x1="59.5" y1="0" x2="59.5" y2="300"/>
<line fill="none" stroke="#000000" stroke-miterlimit="10" x1="51.5" y1="0" x2="51.5" y2="300"/>
<line fill="none" stroke="#000000" stroke-miterlimit="10" x1="38.5" y1="0" x2="38.5" y2="300"/>
<line fill="none" stroke="#000000" stroke-miterlimit="10" x1="30.5" y1="0" x2="30.5" y2="300"/>
<line fill="none" stroke="#000000" stroke-miterlimit="10" x1="19.5" y1="0" x2="19.5" y2="300"/>
<line fill="none" stroke="#000000" stroke-miterlimit="10" x1="3.5" y1="0" x2="3.5" y2="300"/>
<line fill="none" stroke="#000000" stroke-miterlimit="10" x1="0.5" y1="0" x2="0.5" y2="300"/>
</svg>
